<svg width="20" height="20" viewBox="0 0 20 20" fill="none" xmlns="http://www.w3.org/2000/svg">
<path d="M18.2528 6.92744C17.68 5.90942 16.8753 4.94105 16.3319 4.43303C15.1457 3.32372 14.1562 3.35073 13.6719 3.46562C13.4684 3.5139 13.2815 3.5935 13.1171 3.69967C12.2719 3.03768 11.2438 2.71338 9.99999 2.71338C8.75617 2.71338 7.72802 3.03768 6.88294 3.69971C6.71841 3.59354 6.53159 3.5139 6.3281 3.46566C5.8439 3.35081 4.85428 3.32375 3.66818 4.43303C3.12477 4.94109 2.32005 5.90946 1.74714 6.92748C0.971526 8.30576 0.798768 9.42071 1.23365 10.2415C1.76465 11.2435 2.57008 11.4999 3.22029 11.5632C3.06047 12.2183 2.96179 12.9192 2.96179 13.7925C2.96179 14.9501 3.2114 15.9459 3.70376 16.7525C4.13657 17.4616 4.75968 18.0294 5.55576 18.4401C7.02662 19.1991 8.79663 19.2868 10 19.2868C11.2034 19.2868 12.9735 19.1991 14.4443 18.4401C15.2403 18.0294 15.8635 17.4616 16.2963 16.7525C16.7886 15.9459 17.0383 14.95 17.0383 13.7925C17.0383 12.9193 16.9396 12.2184 16.7798 11.5632C17.43 11.4999 18.2354 11.2434 18.7664 10.2414C19.2012 9.42074 19.0284 8.30576 18.2528 6.92744ZM3.56212 10.4177C2.98668 10.4018 2.51875 10.2842 2.19528 9.67376C1.97583 9.25958 2.15777 8.47509 2.6945 7.52134C3.20388 6.61613 3.93502 5.73716 4.3988 5.30346C5.16471 4.5871 5.73888 4.54766 6.00903 4.58584C5.20511 5.6203 4.71236 6.9647 4.30029 8.2718C4.12964 8.81308 3.96518 9.2752 3.80607 9.72218C3.72099 9.96132 3.63914 10.1913 3.56212 10.4177ZM9.28123 14.2307C8.99621 13.93 8.84705 13.6144 8.84705 13.458C8.84705 13.3183 8.86972 13.3083 8.95399 13.2709C9.19421 13.1642 9.66601 13.1519 9.99999 13.1519C10.334 13.1519 10.8058 13.1642 11.046 13.2709C11.1303 13.3083 11.1529 13.3184 11.1529 13.458C11.1529 13.6144 11.0038 13.93 10.7188 14.2307C10.4385 14.5264 10.1392 14.6859 9.99996 14.6859C9.86067 14.6859 9.56153 14.5264 9.28123 14.2307ZM13.9604 17.3953C13.1149 17.8315 11.9956 18.0681 10.5509 18.115V15.7328C10.9835 15.5566 11.3357 15.2241 11.4976 15.0533C11.7253 14.8132 12.2547 14.177 12.2547 13.458C12.2547 12.8699 11.9772 12.4227 11.4733 12.1989C11.1374 12.0498 10.7105 11.9889 10 11.9889C9.28952 11.9889 8.86266 12.0498 8.52674 12.1989C8.02284 12.4227 7.74529 12.8698 7.74529 13.458C7.74529 14.177 8.27477 14.8131 8.50237 15.0533C8.6643 15.2242 9.0166 15.5567 9.44913 15.7328V18.115C8.00442 18.0682 6.88512 17.8316 6.03958 17.3953C4.7099 16.7092 4.06352 15.5308 4.06352 13.7925C4.06352 12.3055 4.38815 11.3934 4.83741 10.1312C4.99255 9.69532 5.16833 9.20132 5.34563 8.639C6.31946 5.55017 7.3496 3.87635 9.99999 3.87635C12.6504 3.87635 13.6805 5.5502 14.6543 8.639C14.8316 9.20135 15.0074 9.69532 15.1625 10.1312C15.6118 11.3934 15.9364 12.3054 15.9364 13.7925C15.9365 15.5308 15.2901 16.7092 13.9604 17.3953ZM17.8048 9.67376C17.4813 10.2842 17.0133 10.4017 16.4379 10.4177C16.3608 10.1913 16.2791 9.96132 16.194 9.72218C16.0349 9.27524 15.8705 8.81308 15.6998 8.2718C15.2877 6.9647 14.795 5.6203 13.991 4.58584C14.2612 4.54773 14.8354 4.5871 15.6013 5.3035C16.0651 5.73712 16.7962 6.61606 17.3056 7.52127C17.8423 8.47509 18.0242 9.25962 17.8048 9.67376Z" fill="#924A45" stroke="#924A45" stroke-width="0.4"/>
<path d="M8.16631 8.89404C7.76775 8.89404 7.44336 9.23994 7.44336 9.66703C7.44336 10.0941 7.76771 10.4403 8.16631 10.4403C8.56541 10.4403 8.88972 10.094 8.88972 9.66703C8.88972 9.23994 8.56541 8.89404 8.16631 8.89404Z" fill="#924A45" stroke="#924A45" stroke-width="0.4"/>
<path d="M11.8285 8.88818C11.4261 8.88818 11.0996 9.23697 11.0996 9.66722C11.0996 10.0975 11.4261 10.4463 11.8285 10.4463C12.2305 10.4463 12.5569 10.0975 12.5569 9.66722C12.5569 9.23697 12.2305 8.88818 11.8285 8.88818Z" fill="#924A45" stroke="#924A45" stroke-width="0.4"/>
</svg>
