<svg width="20" height="20" viewBox="0 0 20 20" fill="none" xmlns="http://www.w3.org/2000/svg">
<g clip-path="url(#clip0_104_1196)">
<path d="M7.61821 7.14136C6.82953 7.14223 6.19033 7.78126 6.18945 8.57011C6.18945 8.83312 6.40275 9.04625 6.66576 9.04625C6.92877 9.04625 7.14207 8.83312 7.14207 8.57011C7.14207 8.3071 7.3552 8.0938 7.61821 8.0938C7.88121 8.0938 8.09452 8.3071 8.09452 8.57011C8.09452 8.83312 8.30782 9.04625 8.57083 9.04625C8.83383 9.04625 9.04696 8.83312 9.04696 8.57011C9.04609 7.78126 8.40706 7.14223 7.61821 7.14136Z" fill="#924A44" stroke="#924A44" stroke-width="0.5"/>
<path d="M12.3809 7.14136C11.5922 7.14223 10.953 7.78126 10.9521 8.57011C10.9521 8.83312 11.1654 9.04625 11.4285 9.04625C11.6915 9.04625 11.9046 8.83312 11.9046 8.57011C11.9046 8.3071 12.1179 8.0938 12.3809 8.0938C12.6439 8.0938 12.8572 8.3071 12.8572 8.57011C12.8572 8.83312 13.0703 9.04625 13.3333 9.04625C13.5964 9.04625 13.8097 8.83312 13.8097 8.57011C13.8088 7.78126 13.1696 7.14223 12.3809 7.14136Z" fill="#924A44" stroke="#924A44" stroke-width="0.5"/>
<path d="M18.6075 5.25384C17.4628 2.79206 14.4963 2.75265 13.6262 2.79468C12.7665 1.95717 11.6106 1.42627 10.0001 1.42627C8.38958 1.42627 7.23342 1.95717 6.37376 2.79468C5.50381 2.75265 2.53765 2.79346 1.39266 5.25384C-0.058942 8.37365 -0.377586 10.5346 0.445273 11.6768C0.813449 12.1805 1.40766 12.4684 2.03117 12.445C2.13267 12.445 2.23401 12.4393 2.33481 12.4274C2.66113 12.3878 2.97908 12.2963 3.27662 12.1566C2.90304 14.111 3.1268 15.5846 3.97478 16.6411C5.01652 17.9396 6.98768 18.5713 10.0001 18.5713C13.0123 18.5713 14.9834 17.9396 16.0252 16.6411C16.8732 15.5846 17.0969 14.111 16.7233 12.1566C17.0209 12.2963 17.3388 12.3878 17.6653 12.4274C17.7661 12.4393 17.8675 12.445 17.969 12.445C18.5923 12.4682 19.1867 12.1803 19.5549 11.6768C20.3775 10.5346 20.0589 8.37365 18.6075 5.25384ZM2.22738 11.4814C1.84996 11.557 1.46155 11.4178 1.21825 11.1195C0.943383 10.7381 0.494456 9.44243 2.25581 5.65567C2.93478 4.19588 4.55015 3.83607 5.58404 3.76038C4.48597 5.45336 4.07175 7.79724 3.71002 9.86659C3.65822 10.1631 3.60712 10.4524 3.55497 10.7374C3.41109 11.0376 2.84583 11.4105 2.22738 11.4814ZM10.0001 14.7612C9.47422 14.7607 9.04797 14.3346 9.04744 13.8087H10.9525C10.952 14.3346 10.5259 14.7607 10.0001 14.7612ZM15.2825 16.0448C14.485 17.0393 12.9026 17.5474 10.4762 17.6068V15.6461C11.3151 15.4302 11.9023 14.675 11.905 13.8087C11.9044 13.2829 11.4783 12.8568 10.9525 12.8563H9.04744C8.5216 12.8568 8.09552 13.2829 8.095 13.8087C8.09762 14.675 8.68485 15.4302 9.52375 15.6461V17.6068C7.09738 17.5474 5.51498 17.0393 4.71758 16.0448C4.01105 15.1641 3.86542 13.8431 4.27389 12.0069C4.40958 11.3941 4.52678 10.7243 4.64817 10.0304C5.27517 6.44348 5.98588 2.37871 10.0001 2.37871C14.0142 2.37871 14.7248 6.44348 15.3518 10.0304C15.4732 10.7243 15.5904 11.3941 15.7262 12.0069C16.1345 13.8431 15.9889 15.1641 15.2825 16.0448ZM18.7819 11.1195C18.5374 11.4164 18.15 11.5554 17.7726 11.4816C17.1543 11.4106 16.5889 11.0376 16.445 10.7376C16.3928 10.4526 16.3417 10.1633 16.2899 9.86677C15.9282 7.79724 15.514 5.45319 14.4157 3.7602C15.4496 3.8359 17.0653 4.19622 17.7441 5.65585C19.5055 9.44243 19.0567 10.7383 18.7819 11.1195Z" fill="#924A44" stroke="#924A44" stroke-width="0.5"/>
</g>
<defs>
<clipPath id="clip0_104_1196">
<rect width="20" height="20" fill="white"/>
</clipPath>
</defs>
</svg>
