<svg width="28" height="27" viewBox="0 0 28 27" fill="none" xmlns="http://www.w3.org/2000/svg">
<path d="M4.6961 5.5993H3.90108C2.36468 5.5993 1.11914 6.87281 1.11914 8.44372V14.9452C1.11914 16.5162 2.36468 17.7897 3.90108 17.7897H18.2081L21.5039 21.1595C21.7543 21.4154 22.1824 21.2342 22.1824 20.8721V17.7897H22.9772C24.5137 17.7897 25.7591 16.5162 25.7591 14.9452V8.44372C25.7591 6.87281 24.5137 5.5993 22.9772 5.5993H6.28546" stroke="#914943" stroke-width="1.2" stroke-miterlimit="10" stroke-linecap="round" stroke-linejoin="round"/>
<path d="M14.9199 8.98888V14.6076C14.9821 14.6182 16.8891 14.6076 16.8891 14.6076" stroke="#914943" stroke-width="1.2" stroke-miterlimit="10" stroke-linecap="round" stroke-linejoin="round"/>
<path d="M4.79297 8.9889V14.6123" stroke="#914943" stroke-width="1.2" stroke-miterlimit="10" stroke-linecap="round" stroke-linejoin="round"/>
<path d="M8.6875 8.9889V14.6123" stroke="#914943" stroke-width="1.2" stroke-miterlimit="10" stroke-linecap="round" stroke-linejoin="round"/>
<path d="M4.79297 11.7031H8.68447" stroke="#914943" stroke-width="1.2" stroke-miterlimit="10" stroke-linecap="round" stroke-linejoin="round"/>
<path d="M12.9475 9.01388H10.5996V14.5859H12.9475" stroke="#914943" stroke-width="1.2" stroke-miterlimit="10" stroke-linecap="round" stroke-linejoin="round"/>
<path d="M12.7744 11.8008H10.5996" stroke="#914943" stroke-width="1.2" stroke-miterlimit="10" stroke-linecap="round" stroke-linejoin="round"/>
<path d="M18.5371 8.9889V14.6123" stroke="#914943" stroke-width="1.2" stroke-miterlimit="10" stroke-linecap="round" stroke-linejoin="round"/>
<path d="M21.7209 10.575C21.7209 11.4515 20.9794 12.1619 20.1029 12.1619C19.6682 12.1619 18.548 12.1689 18.548 12.1689C18.548 12.1689 18.541 11.0168 18.541 10.575C18.541 10.2122 18.5371 8.98809 18.5371 8.98809H20.1029C20.9794 8.98809 21.7209 9.69857 21.7209 10.575Z" stroke="#914943" stroke-width="1.2" stroke-miterlimit="10" stroke-linecap="round" stroke-linejoin="round"/>
</svg>
