<svg width="22" height="21" viewBox="0 0 22 21" fill="none" xmlns="http://www.w3.org/2000/svg">
<path d="M21 12.9041L18.5934 7.97808L16.1868 12.9041H17.8078C16.7874 16.1641 13.8032 18.5337 10.2824 18.5337C5.92238 18.5337 2.37479 14.9032 2.37479 10.4411C2.37479 5.9791 5.92238 2.3485 10.2824 2.3485C13.6418 2.3485 16.5119 4.50734 17.6548 7.5384L18.4451 5.92058C16.8727 2.95734 13.8039 0.941162 10.283 0.941162C5.16449 0.941037 1 5.20272 1 10.4411C1 15.6791 5.16449 19.9412 10.2828 19.9412C14.5686 19.9412 18.1773 16.951 19.2407 12.9042L21 12.9041Z" fill="#924943" stroke="#924943" stroke-width="0.3"/>
<path d="M5.35547 12.3354H6.22479L6.48863 11.3623H7.54951L7.83568 12.3354H8.73703L7.58816 8.5437H6.48863L5.35547 12.3354ZM6.82904 9.91637C6.88954 9.69672 6.94452 9.40975 6.99962 9.18508H7.01042C7.06552 9.40975 7.13166 9.69195 7.1978 9.91637L7.42875 10.7218H6.60963L6.82904 9.91637Z" fill="#924943" stroke="#924943" stroke-width="0.3"/>
<path d="M11.0294 9.21348C11.4357 9.21348 11.6885 9.2867 11.8919 9.37599L12.0682 8.68953C11.8867 8.59974 11.5182 8.50366 11.0402 8.50366C9.82516 8.50366 8.92946 9.2234 8.92296 10.4841C8.9178 11.0409 9.10458 11.5355 9.44573 11.8628C9.78663 12.2003 10.2757 12.3746 10.9523 12.3746C11.4407 12.3746 11.931 12.2509 12.1887 12.161V10.1638H10.8092V10.8333H11.3817V11.6261C11.3152 11.6606 11.161 11.6825 10.9688 11.6825C10.2811 11.6825 9.80332 11.2207 9.80332 10.4387C9.80332 9.61812 10.3305 9.21348 11.0294 9.21348Z" fill="#924943" stroke="#924943" stroke-width="0.3"/>
<path d="M15.1326 9.24967V8.54663H12.8457V12.3377H15.2098V11.6353H13.6869V10.7351H15.0507V10.0369H13.6869V9.24967H15.1326Z" fill="#924943" stroke="#924943" stroke-width="0.3"/>
</svg>
