<svg width="36" height="36" viewBox="0 0 36 36" fill="none" xmlns="http://www.w3.org/2000/svg">
<circle cx="18" cy="18" r="18" fill="#8C443E" fill-opacity="0.1"/>
<path d="M29 20.8584L26.3528 15.5636L23.7055 20.8584H25.4886C24.3661 24.3624 21.0835 26.9093 17.2106 26.9093C12.4146 26.9093 8.51227 23.0071 8.51227 18.211C8.51227 13.415 12.4146 9.51267 17.2106 9.51267C20.906 9.51267 24.0631 11.8331 25.3202 15.091L26.1896 13.3521C24.46 10.1671 21.0843 8 17.2113 8C11.5809 7.99987 7 12.5805 7 18.211C7 23.8411 11.5809 28.4221 17.2111 28.4221C21.9254 28.4221 25.895 25.2082 27.0648 20.8585L29 20.8584Z" fill="#924943" stroke="#924943" stroke-width="0.3"/>
<path d="M11.791 20.2471H12.7473L13.0375 19.2011H14.2045L14.5192 20.2471H15.5107L14.247 16.1716H13.0375L11.791 20.2471ZM13.4119 17.647C13.4785 17.4109 13.539 17.1024 13.5996 16.861H13.6115C13.6721 17.1024 13.7448 17.4058 13.8176 17.647L14.0716 18.5127H13.1706L13.4119 17.647Z" fill="#924943" stroke="#924943" stroke-width="0.3"/>
<path d="M18.032 16.8919C18.479 16.8919 18.757 16.9706 18.9808 17.0665L19.1747 16.3287C18.975 16.2322 18.5697 16.1289 18.0439 16.1289C16.7074 16.1289 15.7221 16.9025 15.715 18.2575C15.7093 18.8561 15.9147 19.3876 16.29 19.7394C16.665 20.1023 17.2029 20.2896 17.9472 20.2896C18.4845 20.2896 19.0238 20.1567 19.3072 20.06V17.9133H17.7899V18.6329H18.4196V19.4851C18.3464 19.5221 18.1769 19.5457 17.9653 19.5457C17.2089 19.5457 16.6834 19.0494 16.6834 18.2088C16.6834 17.3268 17.2633 16.8919 18.032 16.8919Z" fill="#924943" stroke="#924943" stroke-width="0.3"/>
<path d="M22.5459 16.9305V16.1748H20.0303V20.2497H22.6308V19.4947H20.9556V18.5271H22.4557V17.7766H20.9556V16.9305H22.5459Z" fill="#924943" stroke="#924943" stroke-width="0.3"/>
</svg>
