<svg width="25" height="25" viewBox="0 0 25 25" fill="none" xmlns="http://www.w3.org/2000/svg">
<path d="M12.7658 16.7754C13.2306 16.7754 13.648 16.6866 14.0183 16.5089C14.3963 16.3235 14.6996 16.0686 14.928 15.7442C15.1643 15.4198 15.2943 15.0452 15.3179 14.6203H18C17.9842 15.4314 17.7401 16.169 17.2675 16.8333C16.7948 17.4976 16.1686 18.0267 15.3888 18.4207C14.609 18.8069 13.7465 19 12.8013 19C11.8246 19 10.9739 18.8378 10.2492 18.5134C9.52453 18.1812 8.92195 17.7255 8.44146 17.1462C7.96097 16.5668 7.59864 15.8987 7.35446 15.1417C7.11815 14.3847 7 13.5737 7 12.7086V12.303C7 11.4379 7.11815 10.6269 7.35446 9.86988C7.59864 9.10517 7.96097 8.43316 8.44146 7.85383C8.92195 7.27451 9.52453 6.82264 10.2492 6.49822C10.9739 6.16607 11.8206 6 12.7895 6C13.8135 6 14.7114 6.20083 15.4834 6.6025C16.2553 6.99643 16.8618 7.54872 17.3029 8.25936C17.7519 8.96227 17.9842 9.78105 18 10.7157H15.3179C15.2943 10.2522 15.1762 9.83512 14.9635 9.46435C14.7587 9.08586 14.4672 8.78461 14.0892 8.56061C13.7189 8.3366 13.2739 8.2246 12.754 8.2246C12.179 8.2246 11.7025 8.34046 11.3244 8.57219C10.9463 8.7962 10.6509 9.10517 10.4382 9.49911C10.2256 9.88532 10.072 10.3217 9.97744 10.8084C9.8908 11.2873 9.84748 11.7855 9.84748 12.303V12.7086C9.84748 13.2261 9.8908 13.7282 9.97744 14.2148C10.0641 14.7014 10.2137 15.1378 10.4264 15.5241C10.647 15.9026 10.9463 16.2077 11.3244 16.4394C11.7025 16.6634 12.183 16.7754 12.7658 16.7754Z" fill="white"/>
<circle cx="12.5" cy="12.5" r="11.75" stroke="white" stroke-width="1.5"/>
</svg>
