<svg width="20" height="20" viewBox="0 0 20 20" fill="none" xmlns="http://www.w3.org/2000/svg">
<g clip-path="url(#clip0_104_2228)">
<path d="M20 12.4053L17.5934 7.59184L15.1868 12.4053H16.8078C15.7874 15.5907 12.8032 17.9061 9.28236 17.9061C4.92238 17.9061 1.37479 14.3586 1.37479 9.99855C1.37479 5.63857 4.92238 2.09098 9.28236 2.09098C12.6418 2.09098 15.5119 4.20046 16.6548 7.16221L17.4451 5.58139C15.8727 2.6859 12.8039 0.71582 9.28297 0.71582C4.16449 0.715698 0 4.87994 0 9.99855C0 15.1168 4.16449 19.2814 9.28285 19.2814C13.5686 19.2814 17.1773 16.3597 18.2407 12.4054L20 12.4053Z" fill="#989898" stroke="#989898" stroke-width="0.3"/>
<path d="M4.35547 11.8496H5.22479L5.48863 10.8986H6.54951L6.83568 11.8496H7.73703L6.58816 8.14453H5.48863L4.35547 11.8496ZM5.82904 9.48582C5.88954 9.27119 5.94452 8.99078 5.99962 8.77124H6.01042C6.06552 8.99078 6.13166 9.26652 6.1978 9.48582L6.42875 10.2728H5.60963L5.82904 9.48582Z" fill="#989898" stroke="#989898" stroke-width="0.3"/>
<path d="M10.0284 8.79906C10.4347 8.79906 10.6875 8.8706 10.891 8.95785L11.0672 8.28709C10.8857 8.19935 10.5172 8.10547 10.0392 8.10547C8.82419 8.10547 7.92848 8.80875 7.92198 10.0406C7.91682 10.5847 8.1036 11.068 8.44475 11.3878C8.78565 11.7176 9.27468 11.8879 9.95133 11.8879C10.4397 11.8879 10.93 11.7671 11.1877 11.6792V9.72765H9.80825V10.3819H10.3807V11.1566C10.3142 11.1902 10.1601 11.2117 9.96778 11.2117C9.28008 11.2117 8.80234 10.7604 8.80234 9.99628C8.80234 9.19445 9.32953 8.79906 10.0284 8.79906Z" fill="#989898" stroke="#989898" stroke-width="0.3"/>
<path d="M14.1326 8.83442V8.14746H11.8457V11.8519H14.2098V11.1655H12.6869V10.2859H14.0507V9.60361H12.6869V8.83442H14.1326Z" fill="#989898" stroke="#989898" stroke-width="0.3"/>
</g>
<defs>
<clipPath id="clip0_104_2228">
<rect width="20" height="20" fill="white"/>
</clipPath>
</defs>
</svg>
