<svg width="22" height="22" viewBox="0 0 22 22" fill="none" xmlns="http://www.w3.org/2000/svg">
<path d="M11.0092 20.9919C8.10764 20.9919 5.46461 19.429 3.93251 16.8114C3.92334 16.799 3.915 16.7865 3.90833 16.775C3.719 16.4507 3.54386 16.0952 3.37288 15.6918C2.90499 14.5483 2.66897 13.3443 2.66897 12.1066C2.65645 12.0506 2.25195 9.16381 2.25195 7.66398C2.25195 3.37504 5.83075 2.84992 6.66644 2.78595C7.11265 2.36212 8.72732 1 11.0092 1C14.6456 1 19.7665 3.06761 19.7665 7.66398C19.7665 9.13627 19.362 12.0489 19.3453 12.1715C19.3495 13.3399 19.1143 14.5474 18.6489 15.6945C18.4629 16.1308 18.2594 16.5297 18.04 16.8896C18.0242 16.9154 18.0058 16.9402 17.985 16.9616C16.5004 19.4601 13.8749 20.9919 11.0092 20.9919ZM4.60057 16.2792C4.60974 16.2916 4.61808 16.3032 4.62475 16.3156C6.00173 18.6871 8.38787 20.1034 11.0092 20.1034C13.588 20.1034 15.9508 18.7253 17.3294 16.4178C17.3461 16.3911 17.3645 16.3645 17.3862 16.3423C17.5363 16.0837 17.7198 15.7238 17.8857 15.3347C18.3028 14.3075 18.5154 13.2182 18.5154 12.1066C18.5238 12.0124 18.9324 9.07141 18.9324 7.66398C18.9324 3.6807 14.2994 1.88853 11.0092 1.88853C8.70647 1.88853 7.14934 3.51898 7.13433 3.53587C7.05593 3.6185 6.95001 3.6647 6.83992 3.66559C6.68646 3.66648 3.08598 3.72779 3.08598 7.66398C3.08598 9.09806 3.49465 12.0116 3.49882 12.0409C3.50299 13.2208 3.71567 14.3066 4.13601 15.332C4.28364 15.6838 4.4371 15.9957 4.60057 16.2792Z" fill="#989898" stroke="#989898" stroke-width="0.5"/>
<path d="M18.7551 14.3281C18.5741 14.3281 18.4073 14.201 18.3547 14.0064L17.3664 10.3279C11.3331 10.2746 8.88938 8.67347 7.91691 7.55481C7.28722 9.27856 5.35979 10.0303 4.67256 10.2479L3.66339 14.0055C3.6 14.2428 3.36814 14.3796 3.14796 14.3103C2.92694 14.2428 2.7985 13.9967 2.86189 13.7612L3.93611 9.7628C3.97698 9.6082 4.09458 9.48914 4.24137 9.45271C4.27223 9.44471 7.28472 8.66103 7.28472 6.38372C7.28472 6.15893 7.44235 5.96967 7.65169 5.94301C7.86187 5.91014 8.05619 6.05941 8.10707 6.27799C8.11374 6.30198 9.05619 9.44116 17.6808 9.44116C17.8668 9.44116 18.0303 9.57177 18.0812 9.7628L19.1554 13.7612C19.2188 13.9975 19.0903 14.2428 18.8693 14.3103C18.8318 14.3227 18.7926 14.3281 18.7551 14.3281Z" fill="#989898" stroke="#989898" stroke-width="0.5"/>
<path d="M18.9137 14.7723C18.8169 14.7723 18.7193 14.7625 18.6226 14.7536C18.3932 14.7296 18.2256 14.5119 18.2481 14.2676C18.2706 14.0241 18.4716 13.8562 18.7035 13.8687C18.7736 13.8758 18.8436 13.8838 18.9137 13.8838C19.6034 13.8838 20.1647 13.2858 20.1647 12.551C20.1647 11.8739 19.6918 11.3044 19.0646 11.2235C18.8361 11.1951 18.6726 10.9738 18.7002 10.7295C18.7277 10.4869 18.937 10.3065 19.1639 10.3412C20.2097 10.4745 20.9987 11.4252 20.9987 12.5501C20.9987 13.7762 20.063 14.7723 18.9137 14.7723Z" fill="#989898" stroke="#989898" stroke-width="0.5"/>
<path d="M3.08506 14.772C1.93578 14.772 1 13.776 1 12.5507C1 11.4151 1.79816 10.4644 2.8557 10.3409C3.0909 10.3196 3.29023 10.4902 3.31609 10.7336C3.34194 10.9771 3.17597 11.1966 2.94745 11.2241C2.32276 11.297 1.83402 11.8798 1.83402 12.5507C1.83402 13.2855 2.39532 13.8835 3.08506 13.8835C3.15178 13.8835 3.21433 13.8773 3.26771 13.8657C3.49206 13.8106 3.71392 13.9714 3.75979 14.2113C3.80649 14.4521 3.66054 14.6858 3.43535 14.7356C3.32693 14.7596 3.2085 14.772 3.08506 14.772Z" fill="#989898" stroke="#989898" stroke-width="0.5"/>
<path d="M7.67291 13.8843C6.98317 13.8843 6.42188 13.2864 6.42188 12.5515C6.42188 11.8167 6.98317 11.2188 7.67291 11.2188C8.36265 11.2188 8.92395 11.8167 8.92395 12.5515C8.92395 13.2864 8.36265 13.8843 7.67291 13.8843ZM7.67291 12.1073C7.44272 12.1073 7.2559 12.3072 7.2559 12.5515C7.2559 12.7959 7.44272 12.9958 7.67291 12.9958C7.9031 12.9958 8.08992 12.7959 8.08992 12.5515C8.08992 12.3072 7.9031 12.1073 7.67291 12.1073Z" fill="#989898" stroke="#989898" stroke-width="0.5"/>
<path d="M14.3448 13.8841C13.655 13.8841 13.0938 13.2861 13.0938 12.5513C13.0938 11.8165 13.655 11.2185 14.3448 11.2185C15.0345 11.2185 15.5958 11.8165 15.5958 12.5513C15.5958 13.2861 15.0345 13.8841 14.3448 13.8841ZM14.3448 12.107C14.1146 12.107 13.9278 12.307 13.9278 12.5513C13.9278 12.7956 14.1146 12.9956 14.3448 12.9956C14.575 12.9956 14.7618 12.7956 14.7618 12.5513C14.7618 12.307 14.575 12.107 14.3448 12.107Z" fill="#989898" stroke="#989898" stroke-width="0.5"/>
<path d="M11.0088 17.4586C10.1547 17.4586 9.29986 17.1119 8.64932 16.4186C8.48669 16.2453 8.48669 15.9635 8.64932 15.7902C8.81195 15.6168 9.07634 15.6168 9.23898 15.7902C10.2148 16.8302 11.8019 16.8302 12.7777 15.7902C12.9404 15.6168 13.2048 15.6168 13.3674 15.7902C13.53 15.9635 13.53 16.2453 13.3674 16.4186C12.7177 17.1128 11.8628 17.4586 11.0088 17.4586Z" fill="#989898" stroke="#989898" stroke-width="0.5"/>
</svg>
