<svg width="36" height="36" viewBox="0 0 36 36" fill="none" xmlns="http://www.w3.org/2000/svg">
<circle cx="18" cy="18" r="18" fill="#8C443E" fill-opacity="0.1"/>
<g clip-path="url(#clip0_104_4117)">
<path d="M27.2241 8.60769C26.7531 8.41105 26.214 8.51582 25.8511 8.87465L23.3086 11.3883C21.7054 10.4245 19.8836 9.91824 18.0001 9.91824C16.1166 9.91824 14.2948 10.4245 12.6916 11.3883L10.1493 8.87469C9.78641 8.5159 9.24695 8.41113 8.77594 8.60773C8.305 8.80433 8 9.26117 8 9.77148V18.989C8 23.6759 11.8144 27.4903 16.5013 27.4903H19.4988C24.1856 27.4903 28 23.6759 28 18.989V9.77148C28 9.26117 27.695 8.80433 27.2241 8.60769ZM26.4043 18.989C26.4043 22.796 23.3057 25.8946 19.4987 25.8946H16.5013C12.6943 25.8946 9.5957 22.796 9.5957 18.989V10.5727L12.0242 12.973C12.2971 13.2428 12.7328 13.2802 13.0484 13.0619C13.8227 12.5265 14.6489 12.1322 15.5532 11.8763V12.8345C15.5532 13.2751 15.9104 13.6324 16.3511 13.6324C16.7918 13.6324 17.149 13.2752 17.149 12.8345V11.5675C17.7341 11.5103 18.266 11.5103 18.8511 11.5675V12.8345C18.8511 13.2752 19.2083 13.6324 19.649 13.6324C20.0896 13.6324 20.4469 13.2752 20.4469 12.8345V11.8763C21.3511 12.1323 22.177 12.5266 22.9513 13.062C23.2669 13.2803 23.6984 13.243 23.9713 12.9732L26.4043 10.5728V18.989H26.4043Z" fill="#924943"/>
<path d="M21.547 20.3278C21.1164 20.2339 20.6914 20.5069 20.5976 20.9375C20.4832 21.4627 20.0092 21.8438 19.4706 21.8438C19.1363 21.8438 18.8185 21.6984 18.5987 21.4448C18.5813 21.4248 18.5628 21.406 18.5437 21.388L19.6123 20.3289C19.996 19.9452 19.7242 19.2988 19.1817 19.2988H16.8191C16.2765 19.2988 16.0048 19.9453 16.3884 20.3289L17.4524 21.3881C17.4316 21.4075 17.4117 21.4255 17.3929 21.4472C17.1731 21.7008 16.8553 21.845 16.521 21.845C15.9824 21.845 15.5085 21.4632 15.394 20.9381C15.3002 20.5075 14.8751 20.2343 14.4446 20.3281C14.014 20.4219 13.741 20.8469 13.8349 21.2774C14.1079 22.5304 15.2376 23.4397 16.521 23.4397C17.049 23.4397 17.5594 23.2879 17.9958 23.0102C18.4323 23.2879 18.9427 23.4396 19.4707 23.4396C20.7541 23.4396 21.8838 22.5302 22.1568 21.2773C22.2505 20.8467 21.9776 20.4216 21.547 20.3278Z" fill="#924943"/>
<path d="M14.3918 18.3061C14.8633 18.3061 15.2455 17.9238 15.2455 17.4523C15.2455 16.9809 14.8633 16.5986 14.3918 16.5986C13.9203 16.5986 13.5381 16.9809 13.5381 17.4523C13.5381 17.9238 13.9203 18.3061 14.3918 18.3061Z" fill="#924943"/>
<path d="M21.6086 18.3061C22.0801 18.3061 22.4623 17.9238 22.4623 17.4523C22.4623 16.9809 22.0801 16.5986 21.6086 16.5986C21.1371 16.5986 20.7549 16.9809 20.7549 17.4523C20.7549 17.9238 21.1371 18.3061 21.6086 18.3061Z" fill="#924943"/>
</g>
<defs>
<clipPath id="clip0_104_4117">
<rect width="20" height="20" fill="white" transform="translate(8 8)"/>
</clipPath>
</defs>
</svg>
