<svg width="226" height="40" viewBox="0 0 226 40" fill="none" xmlns="http://www.w3.org/2000/svg">
<ellipse cx="20" cy="20" rx="20" ry="20" transform="matrix(-1 8.74228e-08 8.74228e-08 1 40 0)" fill="url(#paint0_radial_289_5600)" fill-opacity="0.35"/>
<path d="M15.28 16.28C15.28 15.464 15.168 14.864 14.944 14.48C14.72 14.08 14.272 13.88 13.6 13.88H13.36V13.16H16.24C16.816 13.16 17.256 13.256 17.56 13.448C17.864 13.64 18.08 13.96 18.208 14.408C18.336 14.84 18.4 15.464 18.4 16.28V20.24H24.88V13.16H28V25.88C28 26.696 28.112 27.304 28.336 27.704C28.56 28.088 29.008 28.28 29.68 28.28H29.92V29H27.04C26.464 29 26.024 28.912 25.72 28.736C25.416 28.544 25.2 28.232 25.072 27.8C24.944 27.352 24.88 26.712 24.88 25.88V21.32H18.4V29H15.28V16.28ZM36.4705 29.24C35.3665 29.24 34.3985 28.984 33.5665 28.472C32.7345 27.96 32.0865 27.264 31.6225 26.384C31.1745 25.488 30.9505 24.48 30.9505 23.36C30.9505 22.112 31.1745 21.048 31.6225 20.168C32.0865 19.288 32.7185 18.624 33.5185 18.176C34.3185 17.712 35.2225 17.48 36.2305 17.48C37.2225 17.48 38.1185 17.68 38.9185 18.08C39.7185 18.48 40.3505 19.048 40.8145 19.784C41.2785 20.504 41.5105 21.336 41.5105 22.28C41.5105 22.584 41.4945 22.928 41.4625 23.312L41.4145 23.792H34.1905C34.1905 25.312 34.4225 26.424 34.8865 27.128C35.3505 27.816 35.9985 28.16 36.8305 28.16C37.5985 28.16 38.2385 27.992 38.7505 27.656C39.2785 27.304 39.7825 26.808 40.2625 26.168L41.0065 26.72C40.5425 27.44 39.9585 28.04 39.2545 28.52C38.5665 29 37.6385 29.24 36.4705 29.24ZM38.2705 22.712C38.2705 21.208 38.0945 20.144 37.7425 19.52C37.3905 18.88 36.8865 18.56 36.2305 18.56C35.6225 18.56 35.1265 18.888 34.7425 19.544C34.3745 20.184 34.1905 21.24 34.1905 22.712H38.2705ZM43.8094 16.28C43.8094 15.464 43.6974 14.864 43.4734 14.48C43.2494 14.08 42.8014 13.88 42.1294 13.88H41.8894V13.16H44.7694C45.3454 13.16 45.7854 13.256 46.0894 13.448C46.3934 13.64 46.6094 13.96 46.7374 14.408C46.8654 14.84 46.9294 15.464 46.9294 16.28V29H43.8094V16.28ZM50.3809 20.84C50.3809 20.024 50.2689 19.424 50.0449 19.04C49.8369 18.64 49.3969 18.44 48.7249 18.44H48.4849V17.72H50.8609C51.4209 17.72 51.8529 17.8 52.1569 17.96C52.4609 18.104 52.7009 18.36 52.8769 18.728C53.8209 17.896 54.9089 17.48 56.1409 17.48C57.7569 17.48 58.9969 18.032 59.8609 19.136C60.7409 20.224 61.1809 21.632 61.1809 23.36C61.1809 25.088 60.7329 26.504 59.8369 27.608C58.9569 28.696 57.6849 29.24 56.0209 29.24C55.3649 29.24 54.7489 29.12 54.1729 28.88C53.9169 28.784 53.6929 28.664 53.5009 28.52V33.56H50.3809V20.84ZM55.5409 28.16C57.1409 28.16 57.9409 26.56 57.9409 23.36C57.9409 21.888 57.7569 20.72 57.3889 19.856C57.0209 18.992 56.4449 18.56 55.6609 18.56C54.7649 18.56 53.9889 18.888 53.3329 19.544L53.4049 19.88C53.4689 20.072 53.5009 20.344 53.5009 20.696V27.44C53.6769 27.584 53.8689 27.704 54.0769 27.8C54.5249 28.04 55.0129 28.16 55.5409 28.16ZM72.1341 29C71.5581 29 71.1181 28.912 70.8141 28.736C70.5101 28.544 70.2941 28.232 70.1661 27.8C70.0381 27.352 69.9741 26.712 69.9741 25.88V13.16H73.0941V25.88C73.0941 26.696 73.2061 27.304 73.4301 27.704C73.6541 28.088 74.1021 28.28 74.7741 28.28H75.0141V29H72.1341ZM82.8072 16.28C82.8072 15.464 82.6952 14.864 82.4712 14.48C82.2472 14.08 81.7992 13.88 81.1272 13.88H80.8872V13.16H83.7672C84.3432 13.16 84.7832 13.256 85.0872 13.448C85.3912 13.64 85.6072 13.96 85.7352 14.408C85.8632 14.84 85.9272 15.464 85.9272 16.28V18.392C86.0712 18.28 86.3192 18.128 86.6712 17.936C87.3112 17.632 87.9432 17.48 88.5672 17.48C89.8632 17.48 90.9432 17.816 91.8072 18.488C92.6872 19.144 93.1272 20.272 93.1272 21.872V29H90.0072V21.992C90.0072 20.84 89.7992 20 89.3832 19.472C88.9832 18.944 88.4712 18.68 87.8472 18.68C87.4152 18.68 86.9592 18.824 86.4792 19.112C86.2872 19.224 86.1032 19.36 85.9272 19.52V29H82.8072V16.28ZM99.1979 29.24C97.9019 29.24 96.8939 28.952 96.1739 28.376C95.4699 27.784 95.1179 26.992 95.1179 26C95.1179 25.2 95.3019 24.536 95.6699 24.008C96.0539 23.48 96.7179 23.08 97.6619 22.808C98.6059 22.536 99.9179 22.4 101.598 22.4H101.958C101.958 21.008 101.766 20.024 101.382 19.448C100.998 18.856 100.43 18.56 99.6779 18.56C99.0539 18.56 98.5419 18.712 98.1419 19.016C97.7419 19.32 97.4539 19.888 97.2779 20.72H95.9579C95.9579 20.176 95.9899 19.712 96.0539 19.328C96.1339 18.944 96.3019 18.608 96.5579 18.32C97.0539 17.76 98.2539 17.48 100.158 17.48C101.758 17.48 102.974 17.904 103.806 18.752C104.654 19.584 105.078 20.84 105.078 22.52V29H103.038L102.198 27.92H102.078C101.934 28.144 101.71 28.368 101.406 28.592C100.862 29.024 100.126 29.24 99.1979 29.24ZM99.9179 28.04C100.254 28.04 100.542 27.976 100.782 27.848C101.022 27.704 101.254 27.512 101.478 27.272C101.686 27.048 101.846 26.784 101.958 26.48V23.48H101.598C100.462 23.48 99.6379 23.688 99.1259 24.104C98.6139 24.504 98.3579 25.136 98.3579 26C98.3579 26.656 98.4939 27.16 98.7659 27.512C99.0379 27.864 99.4219 28.04 99.9179 28.04ZM107.918 20.48C107.486 19.584 107.118 18.96 106.814 18.608C106.51 18.24 106.166 18.04 105.782 18.008V17.528L106.67 17.48C107.742 17.48 108.638 17.688 109.358 18.104C110.094 18.52 110.734 19.312 111.278 20.48L113.39 25.088L116.654 17.72H117.95L112.838 29.24H111.974L107.918 20.48ZM124.314 29.24C123.21 29.24 122.242 28.984 121.41 28.472C120.578 27.96 119.93 27.264 119.466 26.384C119.018 25.488 118.794 24.48 118.794 23.36C118.794 22.112 119.018 21.048 119.466 20.168C119.93 19.288 120.562 18.624 121.362 18.176C122.162 17.712 123.066 17.48 124.074 17.48C125.066 17.48 125.962 17.68 126.762 18.08C127.562 18.48 128.194 19.048 128.658 19.784C129.122 20.504 129.354 21.336 129.354 22.28C129.354 22.584 129.338 22.928 129.306 23.312L129.258 23.792H122.034C122.034 25.312 122.266 26.424 122.73 27.128C123.194 27.816 123.842 28.16 124.674 28.16C125.442 28.16 126.082 27.992 126.594 27.656C127.122 27.304 127.626 26.808 128.106 26.168L128.85 26.72C128.386 27.44 127.802 28.04 127.098 28.52C126.41 29 125.482 29.24 124.314 29.24ZM126.114 22.712C126.114 21.208 125.938 20.144 125.586 19.52C125.234 18.88 124.73 18.56 124.074 18.56C123.466 18.56 122.97 18.888 122.586 19.544C122.218 20.184 122.034 21.24 122.034 22.712H126.114ZM145.261 17.96C145.549 18.168 145.757 18.4 145.885 18.656C146.013 18.896 146.077 19.024 146.077 19.04L144.853 19.976C144.741 19.832 144.597 19.68 144.421 19.52C144.069 19.2 143.661 19.04 143.197 19.04C142.269 19.04 141.557 19.288 141.061 19.784L141.109 20.144C141.141 20.432 141.157 20.696 141.157 20.936V29H138.037V20.84C138.037 20.024 137.925 19.424 137.701 19.04C137.493 18.64 137.053 18.44 136.381 18.44H136.141V17.72H138.517C139.061 17.72 139.485 17.792 139.789 17.936C140.109 18.064 140.357 18.288 140.533 18.608C141.397 17.856 142.405 17.48 143.557 17.48C144.245 17.48 144.813 17.64 145.261 17.96ZM152.346 29.24C151.242 29.24 150.274 28.984 149.442 28.472C148.61 27.96 147.962 27.264 147.498 26.384C147.05 25.488 146.826 24.48 146.826 23.36C146.826 22.112 147.05 21.048 147.498 20.168C147.962 19.288 148.594 18.624 149.394 18.176C150.194 17.712 151.098 17.48 152.105 17.48C153.098 17.48 153.994 17.68 154.794 18.08C155.594 18.48 156.226 19.048 156.69 19.784C157.154 20.504 157.386 21.336 157.386 22.28C157.386 22.584 157.37 22.928 157.338 23.312L157.29 23.792H150.066C150.066 25.312 150.298 26.424 150.762 27.128C151.226 27.816 151.874 28.16 152.706 28.16C153.474 28.16 154.114 27.992 154.626 27.656C155.154 27.304 155.658 26.808 156.138 26.168L156.882 26.72C156.418 27.44 155.834 28.04 155.13 28.52C154.442 29 153.514 29.24 152.346 29.24ZM154.146 22.712C154.146 21.208 153.97 20.144 153.618 19.52C153.266 18.88 152.762 18.56 152.105 18.56C151.498 18.56 151.002 18.888 150.618 19.544C150.25 20.184 150.066 21.24 150.066 22.712H154.146ZM164.772 29.24C163.54 29.24 162.492 28.976 161.628 28.448C160.764 27.92 160.108 27.216 159.66 26.336C159.228 25.44 159.012 24.448 159.012 23.36C159.012 22.272 159.228 21.288 159.66 20.408C160.108 19.512 160.764 18.8 161.628 18.272C162.492 17.744 163.54 17.48 164.772 17.48C166.692 17.48 167.932 17.76 168.492 18.32C168.764 18.592 168.932 18.952 168.996 19.4C169.06 19.848 169.092 20.608 169.092 21.68H168.372C168.308 20.672 167.996 19.904 167.436 19.376C166.876 18.832 166.108 18.56 165.132 18.56C164.252 18.56 163.548 18.968 163.02 19.784C162.508 20.584 162.252 21.776 162.252 23.36C162.252 26.56 163.252 28.16 165.252 28.16C166.02 28.16 166.66 27.992 167.172 27.656C167.7 27.304 168.204 26.808 168.684 26.168L169.428 26.72C168.964 27.44 168.38 28.04 167.676 28.52C166.972 29 166.004 29.24 164.772 29.24ZM173.511 16.424C172.935 16.424 172.487 16.248 172.167 15.896C171.863 15.544 171.711 15.112 171.711 14.6C171.711 14.184 171.831 13.856 172.071 13.616C172.327 13.376 172.647 13.256 173.031 13.256C173.607 13.256 174.047 13.432 174.351 13.784C174.671 14.136 174.831 14.568 174.831 15.08C174.831 15.496 174.703 15.824 174.447 16.064C174.207 16.304 173.895 16.424 173.511 16.424ZM171.951 20.84C171.951 20.024 171.839 19.424 171.615 19.04C171.391 18.64 170.943 18.44 170.271 18.44H170.031V17.72H172.911C173.487 17.72 173.927 17.816 174.231 18.008C174.535 18.2 174.751 18.52 174.879 18.968C175.007 19.4 175.071 20.024 175.071 20.84V29H171.951V20.84ZM182.861 29.24C181.757 29.24 180.789 28.984 179.957 28.472C179.125 27.96 178.477 27.264 178.013 26.384C177.565 25.488 177.341 24.48 177.341 23.36C177.341 22.112 177.565 21.048 178.013 20.168C178.477 19.288 179.109 18.624 179.909 18.176C180.709 17.712 181.613 17.48 182.621 17.48C183.613 17.48 184.509 17.68 185.309 18.08C186.109 18.48 186.741 19.048 187.205 19.784C187.669 20.504 187.901 21.336 187.901 22.28C187.901 22.584 187.885 22.928 187.853 23.312L187.805 23.792H180.581C180.581 25.312 180.813 26.424 181.277 27.128C181.741 27.816 182.389 28.16 183.221 28.16C183.989 28.16 184.629 27.992 185.141 27.656C185.669 27.304 186.173 26.808 186.653 26.168L187.397 26.72C186.933 27.44 186.349 28.04 185.645 28.52C184.957 29 184.029 29.24 182.861 29.24ZM184.661 22.712C184.661 21.208 184.485 20.144 184.133 19.52C183.781 18.88 183.277 18.56 182.621 18.56C182.013 18.56 181.517 18.888 181.133 19.544C180.765 20.184 180.581 21.24 180.581 22.712H184.661ZM190.371 20.48C189.939 19.584 189.571 18.96 189.267 18.608C188.963 18.24 188.619 18.04 188.235 18.008V17.528L189.123 17.48C190.195 17.48 191.091 17.688 191.811 18.104C192.547 18.52 193.187 19.312 193.731 20.48L195.843 25.088L199.107 17.72H200.403L195.291 29.24H194.427L190.371 20.48ZM206.767 29.24C205.663 29.24 204.695 28.984 203.863 28.472C203.031 27.96 202.383 27.264 201.919 26.384C201.471 25.488 201.247 24.48 201.247 23.36C201.247 22.112 201.471 21.048 201.919 20.168C202.383 19.288 203.015 18.624 203.815 18.176C204.615 17.712 205.519 17.48 206.527 17.48C207.519 17.48 208.415 17.68 209.215 18.08C210.015 18.48 210.647 19.048 211.111 19.784C211.575 20.504 211.807 21.336 211.807 22.28C211.807 22.584 211.791 22.928 211.759 23.312L211.711 23.792H204.487C204.487 25.312 204.719 26.424 205.183 27.128C205.647 27.816 206.295 28.16 207.127 28.16C207.895 28.16 208.535 27.992 209.047 27.656C209.575 27.304 210.079 26.808 210.559 26.168L211.303 26.72C210.839 27.44 210.255 28.04 209.551 28.52C208.863 29 207.935 29.24 206.767 29.24ZM208.567 22.712C208.567 21.208 208.391 20.144 208.039 19.52C207.687 18.88 207.183 18.56 206.527 18.56C205.919 18.56 205.423 18.888 205.039 19.544C204.671 20.184 204.487 21.24 204.487 22.712H208.567ZM218.498 29.24C216.882 29.24 215.634 28.696 214.754 27.608C213.89 26.504 213.458 25.088 213.458 23.36C213.458 21.632 213.898 20.224 214.778 19.136C215.674 18.032 216.954 17.48 218.618 17.48C219.194 17.48 219.81 17.6 220.466 17.84C220.706 17.952 220.93 18.072 221.138 18.2V16.28C221.138 15.464 221.026 14.864 220.802 14.48C220.578 14.08 220.13 13.88 219.458 13.88H219.218V13.16H222.098C222.674 13.16 223.114 13.256 223.418 13.448C223.722 13.64 223.938 13.96 224.066 14.408C224.194 14.84 224.258 15.464 224.258 16.28V29H222.218L221.378 27.92H221.258C221.114 28.144 220.89 28.368 220.586 28.592C220.042 29.024 219.346 29.24 218.498 29.24ZM218.978 28.16C219.57 28.16 220.106 27.904 220.586 27.392C220.762 27.216 220.946 26.952 221.138 26.6V19.28C220.978 19.152 220.786 19.032 220.562 18.92C220.05 18.68 219.562 18.56 219.098 18.56C217.498 18.56 216.698 20.16 216.698 23.36C216.698 24.848 216.874 26.024 217.226 26.888C217.594 27.736 218.178 28.16 218.978 28.16Z" fill="#2D2D2D"/>
<defs>
<radialGradient id="paint0_radial_289_5600" cx="0" cy="0" r="1" gradientUnits="userSpaceOnUse" gradientTransform="translate(1.38619e-06 21.9231) scale(40 23.6686)">
<stop stop-color="#C4AFAD"/>
<stop offset="1" stop-color="#B28A87"/>
</radialGradient>
</defs>
</svg>
