<svg width="36" height="36" viewBox="0 0 36 36" fill="none" xmlns="http://www.w3.org/2000/svg">
<circle cx="18" cy="18" r="18" fill="#8C443E" fill-opacity="0.1"/>
<path d="M18.0082 27.9919C15.1067 27.9919 12.4636 26.429 10.9315 23.8114C10.9224 23.799 10.914 23.7865 10.9073 23.775C10.718 23.4507 10.5429 23.0952 10.3719 22.6918C9.90402 21.5483 9.66799 20.3443 9.66799 19.1066C9.65548 19.0506 9.25098 16.1638 9.25098 14.664C9.25098 10.375 12.8298 9.84992 13.6655 9.78595C14.1117 9.36212 15.7263 8 18.0082 8C21.6446 8 26.7655 10.0676 26.7655 14.664C26.7655 16.1363 26.361 19.0489 26.3443 19.1715C26.3485 20.3399 26.1133 21.5474 25.6479 22.6945C25.4619 23.1308 25.2584 23.5297 25.0391 23.8896C25.0232 23.9154 25.0049 23.9402 24.984 23.9616C23.4994 26.4601 20.8739 27.9919 18.0082 27.9919ZM11.5996 23.2792C11.6088 23.2916 11.6171 23.3032 11.6238 23.3156C13.0007 25.6871 15.3869 27.1034 18.0082 27.1034C20.587 27.1034 22.9498 25.7253 24.3285 23.4178C24.3451 23.3911 24.3635 23.3645 24.3852 23.3422C24.5353 23.0837 24.7188 22.7238 24.8848 22.3347C25.3018 21.3075 25.5145 20.2182 25.5145 19.1066C25.5228 19.0124 25.9315 16.0714 25.9315 14.664C25.9315 10.6807 21.2985 8.88853 18.0082 8.88853C15.7055 8.88853 14.1484 10.519 14.1334 10.5359C14.055 10.6185 13.949 10.6647 13.8389 10.6656C13.6855 10.6665 10.085 10.7278 10.085 14.664C10.085 16.0981 10.4937 19.0116 10.4978 19.0409C10.502 20.2208 10.7147 21.3066 11.135 22.332C11.2827 22.6838 11.4361 22.9957 11.5996 23.2792Z" fill="#924943" stroke="#924943" stroke-width="0.5"/>
<path d="M25.7551 21.3281C25.5741 21.3281 25.4073 21.201 25.3547 21.0064L24.3664 17.3279C18.3331 17.2746 15.8894 15.6735 14.9169 14.5548C14.2872 16.2786 12.3598 17.0303 11.6726 17.2479L10.6634 21.0055C10.6 21.2428 10.3681 21.3796 10.148 21.3103C9.92694 21.2428 9.7985 20.9967 9.86189 20.7612L10.9361 16.7628C10.977 16.6082 11.0946 16.4891 11.2414 16.4527C11.2722 16.4447 14.2847 15.661 14.2847 13.3837C14.2847 13.1589 14.4424 12.9697 14.6517 12.943C14.8619 12.9101 15.0562 13.0594 15.1071 13.278C15.1137 13.302 16.0562 16.4412 24.6808 16.4412C24.8668 16.4412 25.0303 16.5718 25.0812 16.7628L26.1554 20.7612C26.2188 20.9975 26.0903 21.2428 25.8693 21.3103C25.8318 21.3227 25.7926 21.3281 25.7551 21.3281Z" fill="#924943" stroke="#924943" stroke-width="0.5"/>
<path d="M25.9146 21.7723C25.8179 21.7723 25.7203 21.7625 25.6236 21.7536C25.3942 21.7296 25.2266 21.5119 25.2491 21.2676C25.2716 21.0241 25.4726 20.8562 25.7045 20.8687C25.7745 20.8758 25.8446 20.8838 25.9146 20.8838C26.6044 20.8838 27.1657 20.2858 27.1657 19.551C27.1657 18.8739 26.6928 18.3044 26.0656 18.2235C25.8371 18.1951 25.6736 17.9738 25.7011 17.7295C25.7287 17.4869 25.938 17.3065 26.1649 17.3412C27.2107 17.4745 27.9997 18.4252 27.9997 19.5501C27.9997 20.7762 27.0639 21.7723 25.9146 21.7723Z" fill="#924943" stroke="#924943" stroke-width="0.5"/>
<path d="M10.0851 18.772C8.93578 18.772 8 17.776 8 16.5507C8 15.4151 8.79816 14.4644 9.8557 14.3409C10.0909 14.3196 10.2902 14.4902 10.3161 14.7336C10.3419 14.9771 10.176 15.1966 9.94745 15.2241C9.32276 15.297 8.83402 15.8798 8.83402 16.5507C8.83402 17.2855 9.39532 17.8835 10.0851 17.8835C10.1518 17.8835 10.2143 17.8773 10.2677 17.8657C10.4921 17.8106 10.7139 17.9714 10.7598 18.2113C10.8065 18.4521 10.6605 18.6858 10.4354 18.7356C10.3269 18.7596 10.2085 18.772 10.0851 18.772Z" fill="#924943" stroke="#924943" stroke-width="0.5"/>
<path d="M14.6719 20.8843C13.9822 20.8843 13.4209 20.2864 13.4209 19.5515C13.4209 18.8167 13.9822 18.2188 14.6719 18.2188C15.3617 18.2188 15.923 18.8167 15.923 19.5515C15.923 20.2864 15.3617 20.8843 14.6719 20.8843ZM14.6719 19.1073C14.4417 19.1073 14.2549 19.3072 14.2549 19.5515C14.2549 19.7959 14.4417 19.9958 14.6719 19.9958C14.9021 19.9958 15.0889 19.7959 15.0889 19.5515C15.0889 19.3072 14.9021 19.1073 14.6719 19.1073Z" fill="#924943" stroke="#924943" stroke-width="0.5"/>
<path d="M21.3448 20.8843C20.655 20.8843 20.0938 20.2864 20.0938 19.5515C20.0938 18.8167 20.655 18.2188 21.3448 18.2188C22.0345 18.2188 22.5958 18.8167 22.5958 19.5515C22.5958 20.2864 22.0345 20.8843 21.3448 20.8843ZM21.3448 19.1073C21.1146 19.1073 20.9278 19.3072 20.9278 19.5515C20.9278 19.7959 21.1146 19.9958 21.3448 19.9958C21.575 19.9958 21.7618 19.7959 21.7618 19.5515C21.7618 19.3072 21.575 19.1073 21.3448 19.1073Z" fill="#924943" stroke="#924943" stroke-width="0.5"/>
<path d="M18.0078 24.4586C17.1538 24.4586 16.2989 24.1119 15.6483 23.4186C15.4857 23.2453 15.4857 22.9635 15.6483 22.7902C15.811 22.6168 16.0754 22.6168 16.238 22.7902C17.2138 23.8302 18.801 23.8302 19.7768 22.7902C19.9394 22.6168 20.2038 22.6168 20.3664 22.7902C20.5291 22.9635 20.5291 23.2453 20.3664 23.4186C19.7167 24.1128 18.8618 24.4586 18.0078 24.4586Z" fill="#924943" stroke="#924943" stroke-width="0.5"/>
</svg>
