<svg width="159" height="40" viewBox="0 0 159 40" fill="none" xmlns="http://www.w3.org/2000/svg">
<ellipse cx="20" cy="20" rx="20" ry="20" transform="matrix(-1 8.74228e-08 8.74228e-08 1 40 0)" fill="url(#paint0_radial_289_4533)" fill-opacity="0.35"/>
<path d="M15.28 16.28C15.28 15.464 15.168 14.864 14.944 14.48C14.72 14.08 14.272 13.88 13.6 13.88H13.36V13.16H16.24C16.816 13.16 17.256 13.256 17.56 13.448C17.864 13.64 18.08 13.96 18.208 14.408C18.336 14.84 18.4 15.464 18.4 16.28V20.24H24.88V13.16H28V25.88C28 26.696 28.112 27.304 28.336 27.704C28.56 28.088 29.008 28.28 29.68 28.28H29.92V29H27.04C26.464 29 26.024 28.912 25.72 28.736C25.416 28.544 25.2 28.232 25.072 27.8C24.944 27.352 24.88 26.712 24.88 25.88V21.32H18.4V29H15.28V16.28ZM36.4705 29.24C35.3665 29.24 34.3985 28.984 33.5665 28.472C32.7345 27.96 32.0865 27.264 31.6225 26.384C31.1745 25.488 30.9505 24.48 30.9505 23.36C30.9505 22.112 31.1745 21.048 31.6225 20.168C32.0865 19.288 32.7185 18.624 33.5185 18.176C34.3185 17.712 35.2225 17.48 36.2305 17.48C37.2225 17.48 38.1185 17.68 38.9185 18.08C39.7185 18.48 40.3505 19.048 40.8145 19.784C41.2785 20.504 41.5105 21.336 41.5105 22.28C41.5105 22.584 41.4945 22.928 41.4625 23.312L41.4145 23.792H34.1905C34.1905 25.312 34.4225 26.424 34.8865 27.128C35.3505 27.816 35.9985 28.16 36.8305 28.16C37.5985 28.16 38.2385 27.992 38.7505 27.656C39.2785 27.304 39.7825 26.808 40.2625 26.168L41.0065 26.72C40.5425 27.44 39.9585 28.04 39.2545 28.52C38.5665 29 37.6385 29.24 36.4705 29.24ZM38.2705 22.712C38.2705 21.208 38.0945 20.144 37.7425 19.52C37.3905 18.88 36.8865 18.56 36.2305 18.56C35.6225 18.56 35.1265 18.888 34.7425 19.544C34.3745 20.184 34.1905 21.24 34.1905 22.712H38.2705ZM43.8094 16.28C43.8094 15.464 43.6974 14.864 43.4734 14.48C43.2494 14.08 42.8014 13.88 42.1294 13.88H41.8894V13.16H44.7694C45.3454 13.16 45.7854 13.256 46.0894 13.448C46.3934 13.64 46.6094 13.96 46.7374 14.408C46.8654 14.84 46.9294 15.464 46.9294 16.28V29H43.8094V16.28ZM50.3809 20.84C50.3809 20.024 50.2689 19.424 50.0449 19.04C49.8369 18.64 49.3969 18.44 48.7249 18.44H48.4849V17.72H50.8609C51.4209 17.72 51.8529 17.8 52.1569 17.96C52.4609 18.104 52.7009 18.36 52.8769 18.728C53.8209 17.896 54.9089 17.48 56.1409 17.48C57.7569 17.48 58.9969 18.032 59.8609 19.136C60.7409 20.224 61.1809 21.632 61.1809 23.36C61.1809 25.088 60.7329 26.504 59.8369 27.608C58.9569 28.696 57.6849 29.24 56.0209 29.24C55.3649 29.24 54.7489 29.12 54.1729 28.88C53.9169 28.784 53.6929 28.664 53.5009 28.52V33.56H50.3809V20.84ZM55.5409 28.16C57.1409 28.16 57.9409 26.56 57.9409 23.36C57.9409 21.888 57.7569 20.72 57.3889 19.856C57.0209 18.992 56.4449 18.56 55.6609 18.56C54.7649 18.56 53.9889 18.888 53.3329 19.544L53.4049 19.88C53.4689 20.072 53.5009 20.344 53.5009 20.696V27.44C53.6769 27.584 53.8689 27.704 54.0769 27.8C54.5249 28.04 55.0129 28.16 55.5409 28.16ZM72.1341 29C71.5581 29 71.1181 28.912 70.8141 28.736C70.5101 28.544 70.2941 28.232 70.1661 27.8C70.0381 27.352 69.9741 26.712 69.9741 25.88V13.16H73.0941V25.88C73.0941 26.696 73.2061 27.304 73.4301 27.704C73.6541 28.088 74.1021 28.28 74.7741 28.28H75.0141V29H72.1341ZM87.9912 29.24C86.8232 29.24 85.7992 28.984 84.9192 28.472C84.0552 27.944 83.3912 27.24 82.9272 26.36C82.4632 25.464 82.2312 24.464 82.2312 23.36C82.2312 22.256 82.4632 21.264 82.9272 20.384C83.3912 19.488 84.0552 18.784 84.9192 18.272C85.7992 17.744 86.8232 17.48 87.9912 17.48C89.1592 17.48 90.1752 17.744 91.0392 18.272C91.9192 18.784 92.5912 19.488 93.0552 20.384C93.5192 21.264 93.7512 22.256 93.7512 23.36C93.7512 24.464 93.5192 25.464 93.0552 26.36C92.5912 27.24 91.9192 27.944 91.0392 28.472C90.1752 28.984 89.1592 29.24 87.9912 29.24ZM87.9912 28.16C88.8072 28.16 89.4312 27.72 89.8632 26.84C90.2952 25.96 90.5112 24.8 90.5112 23.36C90.5112 21.92 90.2952 20.76 89.8632 19.88C89.4312 19 88.8072 18.56 87.9912 18.56C87.1752 18.56 86.5512 19 86.1192 19.88C85.6872 20.76 85.4712 21.92 85.4712 23.36C85.4712 24.8 85.6872 25.96 86.1192 26.84C86.5512 27.72 87.1752 28.16 87.9912 28.16ZM96.3374 18.8H94.8974V17.72H96.3374V17.072C96.3374 15.712 96.7214 14.68 97.4894 13.976C98.2734 13.272 99.4494 12.92 101.017 12.92C101.465 12.92 101.889 12.96 102.289 13.04C102.705 13.104 103.009 13.2 103.201 13.328C103.617 13.568 103.929 13.912 104.137 14.36L103.177 15.2C102.937 14.816 102.641 14.52 102.289 14.312C101.937 14.104 101.553 14 101.137 14C100.577 14 100.153 14.232 99.8654 14.696C99.5934 15.16 99.4574 15.952 99.4574 17.072V17.72H102.577V18.8H99.4574V29H96.3374V18.8ZM104.541 18.8H103.101V17.72H104.541V17.072C104.541 15.712 104.925 14.68 105.693 13.976C106.477 13.272 107.653 12.92 109.221 12.92C109.669 12.92 110.093 12.96 110.493 13.04C110.909 13.104 111.213 13.2 111.405 13.328C111.821 13.568 112.133 13.912 112.341 14.36L111.381 15.2C111.141 14.816 110.845 14.52 110.493 14.312C110.141 14.104 109.757 14 109.341 14C108.781 14 108.357 14.232 108.069 14.696C107.797 15.16 107.661 15.952 107.661 17.072V17.72H110.781V18.8H107.661V29H104.541V18.8ZM117.142 29.24C116.038 29.24 115.07 28.984 114.238 28.472C113.406 27.96 112.758 27.264 112.294 26.384C111.846 25.488 111.622 24.48 111.622 23.36C111.622 22.112 111.846 21.048 112.294 20.168C112.758 19.288 113.39 18.624 114.19 18.176C114.99 17.712 115.894 17.48 116.902 17.48C117.894 17.48 118.79 17.68 119.59 18.08C120.39 18.48 121.022 19.048 121.486 19.784C121.95 20.504 122.182 21.336 122.182 22.28C122.182 22.584 122.166 22.928 122.134 23.312L122.086 23.792H114.862C114.862 25.312 115.094 26.424 115.558 27.128C116.022 27.816 116.67 28.16 117.502 28.16C118.27 28.16 118.91 27.992 119.422 27.656C119.95 27.304 120.454 26.808 120.934 26.168L121.678 26.72C121.214 27.44 120.63 28.04 119.926 28.52C119.238 29 118.31 29.24 117.142 29.24ZM118.942 22.712C118.942 21.208 118.766 20.144 118.414 19.52C118.062 18.88 117.558 18.56 116.902 18.56C116.294 18.56 115.798 18.888 115.414 19.544C115.046 20.184 114.862 21.24 114.862 22.712H118.942ZM132.089 17.96C132.377 18.168 132.585 18.4 132.713 18.656C132.841 18.896 132.905 19.024 132.905 19.04L131.681 19.976C131.569 19.832 131.425 19.68 131.249 19.52C130.897 19.2 130.489 19.04 130.025 19.04C129.097 19.04 128.385 19.288 127.889 19.784L127.937 20.144C127.969 20.432 127.985 20.696 127.985 20.936V29H124.865V20.84C124.865 20.024 124.753 19.424 124.529 19.04C124.321 18.64 123.881 18.44 123.209 18.44H122.969V17.72H125.345C125.889 17.72 126.313 17.792 126.617 17.936C126.937 18.064 127.185 18.288 127.361 18.608C128.225 17.856 129.233 17.48 130.385 17.48C131.073 17.48 131.641 17.64 132.089 17.96ZM139.174 29.24C138.07 29.24 137.102 28.984 136.27 28.472C135.438 27.96 134.79 27.264 134.326 26.384C133.878 25.488 133.654 24.48 133.654 23.36C133.654 22.112 133.878 21.048 134.326 20.168C134.79 19.288 135.422 18.624 136.222 18.176C137.022 17.712 137.926 17.48 138.934 17.48C139.926 17.48 140.822 17.68 141.622 18.08C142.422 18.48 143.054 19.048 143.518 19.784C143.982 20.504 144.214 21.336 144.214 22.28C144.214 22.584 144.198 22.928 144.166 23.312L144.118 23.792H136.894C136.894 25.312 137.126 26.424 137.59 27.128C138.054 27.816 138.702 28.16 139.534 28.16C140.302 28.16 140.942 27.992 141.454 27.656C141.982 27.304 142.486 26.808 142.966 26.168L143.71 26.72C143.246 27.44 142.662 28.04 141.958 28.52C141.27 29 140.342 29.24 139.174 29.24ZM140.974 22.712C140.974 21.208 140.798 20.144 140.446 19.52C140.094 18.88 139.59 18.56 138.934 18.56C138.326 18.56 137.83 18.888 137.446 19.544C137.078 20.184 136.894 21.24 136.894 22.712H140.974ZM150.905 29.24C149.289 29.24 148.041 28.696 147.161 27.608C146.297 26.504 145.865 25.088 145.865 23.36C145.865 21.632 146.305 20.224 147.185 19.136C148.081 18.032 149.361 17.48 151.025 17.48C151.601 17.48 152.217 17.6 152.873 17.84C153.113 17.952 153.337 18.072 153.545 18.2V16.28C153.545 15.464 153.433 14.864 153.209 14.48C152.985 14.08 152.537 13.88 151.865 13.88H151.625V13.16H154.505C155.081 13.16 155.521 13.256 155.825 13.448C156.129 13.64 156.345 13.96 156.473 14.408C156.601 14.84 156.665 15.464 156.665 16.28V29H154.625L153.785 27.92H153.665C153.521 28.144 153.297 28.368 152.993 28.592C152.449 29.024 151.753 29.24 150.905 29.24ZM151.385 28.16C151.977 28.16 152.513 27.904 152.993 27.392C153.169 27.216 153.353 26.952 153.545 26.6V19.28C153.385 19.152 153.193 19.032 152.969 18.92C152.457 18.68 151.969 18.56 151.505 18.56C149.905 18.56 149.105 20.16 149.105 23.36C149.105 24.848 149.281 26.024 149.633 26.888C150.001 27.736 150.585 28.16 151.385 28.16Z" fill="#2D2D2D"/>
<defs>
<radialGradient id="paint0_radial_289_4533" cx="0" cy="0" r="1" gradientUnits="userSpaceOnUse" gradientTransform="translate(1.38619e-06 21.9231) scale(40 23.6686)">
<stop stop-color="#C4AFAD"/>
<stop offset="1" stop-color="#B28A87"/>
</radialGradient>
</defs>
</svg>
