<svg width="36" height="36" viewBox="0 0 36 36" fill="none" xmlns="http://www.w3.org/2000/svg">
<circle cx="18" cy="18" r="18" fill="#8C443E" fill-opacity="0.1"/>
<g clip-path="url(#clip0_104_4031)">
<path d="M15.6182 16.1406C14.8295 16.1415 14.1903 16.7805 14.1895 17.5694C14.1895 17.8324 14.4028 18.0455 14.6658 18.0455C14.9288 18.0455 15.1421 17.8324 15.1421 17.5694C15.1421 17.3064 15.3552 17.0931 15.6182 17.0931C15.8812 17.0931 16.0945 17.3064 16.0945 17.5694C16.0945 17.8324 16.3078 18.0455 16.5708 18.0455C16.8338 18.0455 17.047 17.8324 17.047 17.5694C17.0461 16.7805 16.4071 16.1415 15.6182 16.1406Z" fill="#924A44" stroke="#924A44" stroke-width="0.5"/>
<path d="M20.3809 16.1406C19.5922 16.1415 18.953 16.7805 18.9521 17.5694C18.9521 17.8324 19.1654 18.0455 19.4285 18.0455C19.6915 18.0455 19.9046 17.8324 19.9046 17.5694C19.9046 17.3064 20.1179 17.0931 20.3809 17.0931C20.6439 17.0931 20.8572 17.3064 20.8572 17.5694C20.8572 17.8324 21.0703 18.0455 21.3333 18.0455C21.5964 18.0455 21.8097 17.8324 21.8097 17.5694C21.8088 16.7805 21.1696 16.1415 20.3809 16.1406Z" fill="#924A44" stroke="#924A44" stroke-width="0.5"/>
<path d="M26.6075 14.2533C25.4628 11.7916 22.4963 11.7522 21.6262 11.7942C20.7665 10.9567 19.6106 10.4258 18.0001 10.4258C16.3896 10.4258 15.2334 10.9567 14.3738 11.7942C13.5038 11.7522 10.5377 11.793 9.39266 14.2533C7.94106 17.3732 7.62241 19.5341 8.44527 20.6763C8.81345 21.18 9.40766 21.4679 10.0312 21.4446C10.1327 21.4446 10.234 21.4388 10.3348 21.4269C10.6611 21.3874 10.9791 21.2958 11.2766 21.1561C10.903 23.1105 11.1268 24.5841 11.9748 25.6406C13.0165 26.9391 14.9877 27.5708 18.0001 27.5708C21.0123 27.5708 22.9834 26.9391 24.0252 25.6406C24.8731 24.5841 25.0969 23.1105 24.7233 21.1561C25.0209 21.2958 25.3388 21.3874 25.6653 21.4269C25.7661 21.4388 25.8675 21.4446 25.969 21.4446C26.5923 21.4678 27.1867 21.1798 27.5549 20.6763C28.3775 19.5341 28.0589 17.3732 26.6075 14.2533ZM10.2274 20.481C9.84996 20.5565 9.46155 20.4173 9.21825 20.1191C8.94338 19.7376 8.49446 18.4419 10.2558 14.6552C10.9348 13.1954 12.5501 12.8356 13.584 12.7599C12.486 14.4529 12.0717 16.7967 11.71 18.8661C11.6582 19.1626 11.6071 19.4519 11.555 19.7369C11.4111 20.0371 10.8458 20.41 10.2274 20.481ZM18.0001 23.7607C17.4742 23.7602 17.048 23.3341 17.0474 22.8083H18.9525C18.952 23.3341 18.5259 23.7602 18.0001 23.7607ZM23.2825 25.0443C22.485 26.0388 20.9026 26.5469 18.4762 26.6063V24.6456C19.3151 24.4297 19.9023 23.6745 19.905 22.8083C19.9044 22.2824 19.4783 21.8563 18.9525 21.8558H17.0474C16.5216 21.8563 16.0955 22.2824 16.095 22.8083C16.0976 23.6745 16.6848 24.4297 17.5238 24.6456V26.6063C15.0974 26.5469 13.515 26.0388 12.7176 25.0443C12.0111 24.1636 11.8654 22.8426 12.2739 21.0064C12.4096 20.3936 12.5268 19.7238 12.6482 19.0299C13.2752 15.443 13.9859 11.3782 18.0001 11.3782C22.0142 11.3782 22.7248 15.443 23.3518 19.0299C23.4732 19.7238 23.5904 20.3936 23.7262 21.0064C24.1345 22.8426 23.9889 24.1636 23.2825 25.0443ZM26.7819 20.1191C26.5374 20.4159 26.15 20.5549 25.7726 20.4811C25.1543 20.4101 24.5889 20.0371 24.445 19.7371C24.3928 19.4521 24.3417 19.1628 24.2899 18.8663C23.9282 16.7967 23.514 14.4527 22.4157 12.7597C23.4496 12.8354 25.0653 13.1957 25.7441 14.6554C27.5055 18.4419 27.0567 19.7378 26.7819 20.1191Z" fill="#924A44" stroke="#924A44" stroke-width="0.5"/>
</g>
<defs>
<clipPath id="clip0_104_4031">
<rect width="20" height="20" fill="white" transform="translate(8 8)"/>
</clipPath>
</defs>
</svg>
