<svg width="20" height="20" viewBox="0 0 20 20" fill="none" xmlns="http://www.w3.org/2000/svg">
<g clip-path="url(#clip0_104_2197)">
<path d="M19.2241 0.607693C18.7531 0.411053 18.214 0.515818 17.8511 0.874647L15.3086 3.38828C13.7054 2.42449 11.8836 1.91824 10.0001 1.91824C8.11656 1.91824 6.2948 2.42453 4.69164 3.38828L2.1493 0.874686C1.78641 0.515897 1.24695 0.411131 0.775938 0.607732C0.305 0.804334 0 1.26117 0 1.77148V10.989C0 15.6759 3.81441 19.4903 8.50129 19.4903H11.4988C16.1856 19.4903 20 15.6759 20 10.989V1.77148C20 1.26117 19.695 0.804334 19.2241 0.607693ZM18.4043 10.989C18.4043 14.796 15.3057 17.8946 11.4987 17.8946H8.50125C4.6943 17.8946 1.5957 14.796 1.5957 10.989V2.57273L4.02418 4.97304C4.29707 5.24285 4.73281 5.28015 5.0484 5.06191C5.8227 4.52652 6.64895 4.13222 7.5532 3.87629V4.83449C7.5532 5.27512 7.91043 5.63238 8.35109 5.63238C8.79176 5.63238 9.14898 5.27515 9.14898 4.83449V3.5675C9.7341 3.51031 10.266 3.51031 10.8511 3.5675V4.83453C10.8511 5.27515 11.2083 5.63242 11.649 5.63242C12.0896 5.63242 12.4469 5.27519 12.4469 4.83453V3.87633C13.3511 4.1323 14.177 4.5266 14.9513 5.06203C15.2669 5.28027 15.6984 5.24301 15.9713 4.97316L18.4043 2.57277V10.989H18.4043Z" fill="#989898"/>
<path d="M13.547 12.3278C13.1164 12.2339 12.6914 12.5069 12.5976 12.9375C12.4832 13.4627 12.0092 13.8438 11.4706 13.8438C11.1363 13.8438 10.8185 13.6984 10.5987 13.4448C10.5813 13.4248 10.5628 13.406 10.5437 13.388L11.6123 12.3289C11.996 11.9452 11.7242 11.2988 11.1817 11.2988H8.81905C8.27651 11.2988 8.00479 11.9453 8.38843 12.3289L9.45237 13.3881C9.43159 13.4075 9.41175 13.4255 9.39292 13.4472C9.17311 13.7008 8.8553 13.845 8.52096 13.845C7.98241 13.845 7.50846 13.4632 7.39401 12.9381C7.30018 12.5075 6.87507 12.2343 6.44456 12.3281C6.01401 12.4219 5.74104 12.8469 5.83487 13.2774C6.10792 14.5304 7.23757 15.4397 8.521 15.4397C9.04897 15.4397 9.55936 15.2879 9.99585 15.0102C10.4323 15.2879 10.9427 15.4396 11.4707 15.4396C12.7541 15.4396 13.8838 14.5302 14.1568 13.2773C14.2505 12.8467 13.9776 12.4216 13.547 12.3278Z" fill="#989898"/>
<path d="M6.39277 10.3061C6.86426 10.3061 7.24648 9.92384 7.24648 9.45234C7.24648 8.98085 6.86426 8.59863 6.39277 8.59863C5.92128 8.59863 5.53906 8.98085 5.53906 9.45234C5.53906 9.92384 5.92128 10.3061 6.39277 10.3061Z" fill="#989898"/>
<path d="M13.6076 10.3061C14.0791 10.3061 14.4613 9.92384 14.4613 9.45234C14.4613 8.98085 14.0791 8.59863 13.6076 8.59863C13.1361 8.59863 12.7539 8.98085 12.7539 9.45234C12.7539 9.92384 13.1361 10.3061 13.6076 10.3061Z" fill="#989898"/>
</g>
<defs>
<clipPath id="clip0_104_2197">
<rect width="20" height="20" fill="white"/>
</clipPath>
</defs>
</svg>
