<svg width="94" height="27" viewBox="0 0 94 27" fill="none" xmlns="http://www.w3.org/2000/svg">
<ellipse cx="13" cy="13" rx="13" ry="13" transform="matrix(-1 8.74228e-08 8.74228e-08 1 26 0)" fill="url(#paint0_radial_289_6660)" fill-opacity="0.35"/>
<path d="M20.44 22.24C19.56 22.24 18.76 21.984 18.04 21.472C17.32 20.944 16.568 20.04 15.784 18.76L13.384 14.752H12.424V22H9.28V9.28C9.28 8.464 9.168 7.864 8.944 7.48C8.72 7.08 8.272 6.88 7.6 6.88H7.36V6.16H13.984C15.648 6.16 17.144 6.464 18.472 7.072C19.8 7.68 20.464 8.848 20.464 10.576C20.464 12.576 19.168 13.904 16.576 14.56L19.096 18.76C20.04 20.344 21.032 21.224 22.072 21.4V22C21.944 22.064 21.712 22.12 21.376 22.168C21.04 22.216 20.728 22.24 20.44 22.24ZM13.864 13.792C14.76 13.792 15.52 13.528 16.144 13C16.784 12.456 17.104 11.608 17.104 10.456C17.104 9.32 16.792 8.48 16.168 7.936C15.544 7.392 14.816 7.12 13.984 7.12C13.52 7.12 13.16 7.152 12.904 7.216L12.424 7.288V13.792H13.864ZM28.0096 22.24C26.9056 22.24 25.9376 21.984 25.1056 21.472C24.2736 20.96 23.6256 20.264 23.1616 19.384C22.7136 18.488 22.4896 17.48 22.4896 16.36C22.4896 15.112 22.7136 14.048 23.1616 13.168C23.6256 12.288 24.2576 11.624 25.0576 11.176C25.8576 10.712 26.7616 10.48 27.7696 10.48C28.7616 10.48 29.6576 10.68 30.4576 11.08C31.2576 11.48 31.8896 12.048 32.3536 12.784C32.8176 13.504 33.0496 14.336 33.0496 15.28C33.0496 15.584 33.0336 15.928 33.0016 16.312L32.9536 16.792H25.7296C25.7296 18.312 25.9616 19.424 26.4256 20.128C26.8896 20.816 27.5376 21.16 28.3696 21.16C29.1376 21.16 29.7776 20.992 30.2896 20.656C30.8176 20.304 31.3216 19.808 31.8016 19.168L32.5456 19.72C32.0816 20.44 31.4976 21.04 30.7936 21.52C30.1056 22 29.1776 22.24 28.0096 22.24ZM29.8096 15.712C29.8096 14.208 29.6336 13.144 29.2816 12.52C28.9296 11.88 28.4256 11.56 27.7696 11.56C27.1616 11.56 26.6656 11.888 26.2816 12.544C25.9136 13.184 25.7296 14.24 25.7296 15.712H29.8096ZM35.5199 13.48C35.0879 12.584 34.7199 11.96 34.4159 11.608C34.1119 11.24 33.7679 11.04 33.3839 11.008V10.528L34.2719 10.48C35.3439 10.48 36.2399 10.688 36.9599 11.104C37.6959 11.52 38.3359 12.312 38.8799 13.48L40.9919 18.088L44.2559 10.72H45.5519L40.4399 22.24H39.5759L35.5199 13.48ZM49.1279 9.424C48.5519 9.424 48.1039 9.248 47.7839 8.896C47.4799 8.544 47.3279 8.112 47.3279 7.6C47.3279 7.184 47.4479 6.856 47.6879 6.616C47.9439 6.376 48.2639 6.256 48.6479 6.256C49.2239 6.256 49.6639 6.432 49.9679 6.784C50.2879 7.136 50.4479 7.568 50.4479 8.08C50.4479 8.496 50.3199 8.824 50.0639 9.064C49.8239 9.304 49.5119 9.424 49.1279 9.424ZM47.5679 13.84C47.5679 13.024 47.4559 12.424 47.2319 12.04C47.0079 11.64 46.5599 11.44 45.8879 11.44H45.6479V10.72H48.5279C49.1039 10.72 49.5439 10.816 49.8479 11.008C50.1519 11.2 50.3679 11.52 50.4959 11.968C50.6239 12.4 50.6879 13.024 50.6879 13.84V22H47.5679V13.84ZM58.4783 22.24C57.3743 22.24 56.4063 21.984 55.5743 21.472C54.7423 20.96 54.0943 20.264 53.6303 19.384C53.1823 18.488 52.9583 17.48 52.9583 16.36C52.9583 15.112 53.1823 14.048 53.6303 13.168C54.0943 12.288 54.7263 11.624 55.5263 11.176C56.3263 10.712 57.2303 10.48 58.2383 10.48C59.2303 10.48 60.1263 10.68 60.9263 11.08C61.7263 11.48 62.3583 12.048 62.8223 12.784C63.2863 13.504 63.5183 14.336 63.5183 15.28C63.5183 15.584 63.5023 15.928 63.4703 16.312L63.4223 16.792H56.1983C56.1983 18.312 56.4303 19.424 56.8943 20.128C57.3583 20.816 58.0063 21.16 58.8383 21.16C59.6063 21.16 60.2463 20.992 60.7583 20.656C61.2863 20.304 61.7903 19.808 62.2703 19.168L63.0143 19.72C62.5503 20.44 61.9663 21.04 61.2623 21.52C60.5743 22 59.6463 22.24 58.4783 22.24ZM60.2783 15.712C60.2783 14.208 60.1023 13.144 59.7503 12.52C59.3983 11.88 58.8943 11.56 58.2383 11.56C57.6303 11.56 57.1343 11.888 56.7503 12.544C56.3823 13.184 56.1983 14.24 56.1983 15.712H60.2783ZM66.0601 13.48C65.6761 12.584 65.3161 11.952 64.9801 11.584C64.6441 11.216 64.2601 11.016 63.8281 10.984V10.528L64.9801 10.48C66.0361 10.48 66.8921 10.696 67.5481 11.128C68.2201 11.56 68.8201 12.344 69.3481 13.48L71.3881 18.064L72.9961 14.224L72.6601 13.48C72.2761 12.616 71.9161 11.992 71.5801 11.608C71.2441 11.224 70.9001 11.016 70.5481 10.984V10.528L71.4601 10.48C72.5481 10.48 73.4601 10.704 74.1961 11.152C74.9321 11.584 75.5561 12.36 76.0681 13.48L78.2761 18.304L81.2041 10.72H82.4761L78.0601 22.24H76.9561L73.8361 15.496L71.0521 22.24H69.9721L66.0601 13.48ZM88.2694 22.24C86.3974 22.24 85.1094 21.912 84.4054 21.256C84.1494 21.016 83.9894 20.68 83.9254 20.248C83.8614 19.8 83.8294 19.184 83.8294 18.4H84.6694C84.8134 19.232 85.1414 19.904 85.6534 20.416C86.1654 20.912 86.8774 21.16 87.7894 21.16C89.3894 21.16 90.1894 20.616 90.1894 19.528C90.1894 19.112 90.0134 18.768 89.6614 18.496C89.3254 18.224 88.7814 17.92 88.0294 17.584L86.7814 17.056C85.7574 16.608 84.9894 16.12 84.4774 15.592C83.9654 15.064 83.7094 14.424 83.7094 13.672C83.7094 12.664 84.1254 11.88 84.9574 11.32C85.8054 10.76 86.9094 10.48 88.2694 10.48C90.1414 10.48 91.4294 10.808 92.1334 11.464C92.3894 11.704 92.5494 12.04 92.6134 12.472C92.6774 12.904 92.7094 13.52 92.7094 14.32H91.8694C91.7254 13.488 91.3974 12.824 90.8854 12.328C90.3734 11.816 89.6614 11.56 88.7494 11.56C88.0614 11.56 87.5494 11.712 87.2134 12.016C86.8774 12.304 86.7094 12.696 86.7094 13.192C86.7094 13.592 86.8454 13.928 87.1174 14.2C87.4054 14.456 87.8374 14.712 88.4134 14.968L89.8534 15.568C91.0374 16.064 91.8854 16.568 92.3974 17.08C92.9254 17.576 93.1894 18.232 93.1894 19.048C93.1894 20.072 92.7334 20.864 91.8214 21.424C90.9254 21.968 89.7414 22.24 88.2694 22.24Z" fill="#2D2D2D"/>
<defs>
<radialGradient id="paint0_radial_289_6660" cx="0" cy="0" r="1" gradientUnits="userSpaceOnUse" gradientTransform="translate(9.01024e-07 14.25) scale(26 15.3846)">
<stop stop-color="#C4AFAD"/>
<stop offset="1" stop-color="#B28A87"/>
</radialGradient>
</defs>
</svg>
