<svg width="36" height="36" viewBox="0 0 36 36" fill="none" xmlns="http://www.w3.org/2000/svg">
<circle cx="18" cy="18" r="18" fill="#8C443E" fill-opacity="0.1"/>
<path d="M26.2528 14.927C25.68 13.9089 24.8752 12.9406 24.3319 12.4325C23.1457 11.3232 22.1562 11.3502 21.6719 11.4651C21.4684 11.5134 21.2815 11.593 21.1171 11.6992C20.2719 11.0372 19.2438 10.7129 18 10.7129C16.7562 10.7129 15.728 11.0372 14.8829 11.6992C14.7184 11.593 14.5316 11.5134 14.3281 11.4652C13.8439 11.3503 12.8543 11.3233 11.6682 12.4325C11.1248 12.9406 10.32 13.909 9.74714 14.927C8.97153 16.3053 8.79877 17.4202 9.23365 18.241C9.76465 19.243 10.5701 19.4995 11.2203 19.5627C11.0605 20.2179 10.9618 20.9187 10.9618 21.792C10.9618 22.9496 11.2114 23.9455 11.7038 24.752C12.1366 25.4611 12.7597 26.0289 13.5558 26.4396C15.0266 27.1986 16.7966 27.2863 18 27.2863C19.2034 27.2863 20.9735 27.1986 22.4443 26.4396C23.2403 26.0289 23.8635 25.4611 24.2963 24.752C24.7886 23.9454 25.0383 22.9495 25.0383 21.792C25.0383 20.9188 24.9396 20.2179 24.7798 19.5627C25.43 19.4994 26.2354 19.243 26.7664 18.2409C27.2012 17.4203 27.0284 16.3053 26.2528 14.927ZM11.5621 18.4172C10.9867 18.4013 10.5188 18.2837 10.1953 17.6733C9.97583 17.2591 10.1578 16.4746 10.6945 15.5209C11.2039 14.6156 11.935 13.7367 12.3988 13.303C13.1647 12.5866 13.7389 12.5472 14.009 12.5854C13.2051 13.6198 12.7124 14.9642 12.3003 16.2713C12.1296 16.8126 11.9652 17.2747 11.8061 17.7217C11.721 17.9608 11.6391 18.1908 11.5621 18.4172ZM17.2812 22.2302C16.9962 21.9295 16.847 21.6139 16.847 21.4575C16.847 21.3179 16.8697 21.3078 16.954 21.2704C17.1942 21.1637 17.666 21.1514 18 21.1514C18.334 21.1514 18.8058 21.1637 19.046 21.2704C19.1303 21.3078 19.1529 21.3179 19.1529 21.4575C19.1529 21.6139 19.0038 21.9295 18.7188 22.2302C18.4385 22.5259 18.1392 22.6854 18 22.6854C17.8607 22.6854 17.5615 22.5259 17.2812 22.2302ZM21.9604 25.3948C21.1149 25.831 19.9956 26.0677 18.5509 26.1145V23.7323C18.9835 23.5561 19.3357 23.2236 19.4977 23.0528C19.7253 22.8127 20.2547 22.1765 20.2547 21.4575C20.2547 20.8694 19.9772 20.4222 19.4733 20.1984C19.1374 20.0493 18.7105 19.9884 18 19.9884C17.2895 19.9884 16.8627 20.0493 16.5267 20.1984C16.0228 20.4222 15.7453 20.8693 15.7453 21.4575C15.7453 22.1765 16.2748 22.8127 16.5024 23.0528C16.6643 23.2237 17.0166 23.5562 17.4491 23.7323V26.1145C16.0044 26.0677 14.8851 25.8311 14.0396 25.3948C12.7099 24.7088 12.0635 23.5303 12.0635 21.792C12.0635 20.305 12.3881 19.393 12.8374 18.1307C12.9926 17.6948 13.1683 17.2008 13.3456 16.6385C14.3195 13.5497 15.3496 11.8759 18 11.8759C20.6504 11.8759 21.6805 13.5497 22.6543 16.6385C22.8316 17.2009 23.0074 17.6948 23.1625 18.1307C23.6118 19.393 23.9364 20.3049 23.9364 21.792C23.9365 23.5303 23.2901 24.7088 21.9604 25.3948ZM25.8048 17.6733C25.4813 18.2838 25.0133 18.4012 24.4379 18.4172C24.3608 18.1908 24.2791 17.9608 24.194 17.7217C24.0349 17.2747 23.8705 16.8126 23.6998 16.2713C23.2877 14.9642 22.795 13.6198 21.991 12.5854C22.2612 12.5472 22.8354 12.5866 23.6013 13.303C24.0651 13.7366 24.7962 14.6156 25.3056 15.5208C25.8423 16.4746 26.0242 17.2591 25.8048 17.6733Z" fill="#924A45" stroke="#924A45" stroke-width="0.4"/>
<path d="M16.1663 16.8936C15.7677 16.8936 15.4434 17.2395 15.4434 17.6665C15.4434 18.0936 15.7677 18.4398 16.1663 18.4398C16.5654 18.4398 16.8897 18.0936 16.8897 17.6665C16.8897 17.2395 16.5654 16.8936 16.1663 16.8936Z" fill="#924A45" stroke="#924A45" stroke-width="0.4"/>
<path d="M19.8285 16.8877C19.4261 16.8877 19.0996 17.2365 19.0996 17.6667C19.0996 18.097 19.4261 18.4458 19.8285 18.4458C20.2305 18.4458 20.5569 18.097 20.5569 17.6667C20.5569 17.2365 20.2305 16.8877 19.8285 16.8877Z" fill="#924A45" stroke="#924A45" stroke-width="0.4"/>
</svg>
