<svg width="20" height="20" viewBox="0 0 20 20" fill="none" xmlns="http://www.w3.org/2000/svg">
<path d="M18.2528 5.92695C17.68 4.90893 16.8753 3.94056 16.3319 3.43254C15.1457 2.32323 14.1562 2.35024 13.6719 2.46513C13.4684 2.51341 13.2815 2.59301 13.1171 2.69918C12.2719 2.03719 11.2438 1.71289 9.99999 1.71289C8.75617 1.71289 7.72802 2.03719 6.88294 2.69922C6.71841 2.59305 6.53159 2.51341 6.3281 2.46517C5.8439 2.35032 4.85428 2.32327 3.66818 3.43254C3.12477 3.9406 2.32005 4.90897 1.74714 5.92699C0.971526 7.30527 0.798768 8.42022 1.23365 9.24097C1.76465 10.243 2.57008 10.4995 3.22029 10.5627C3.06047 11.2179 2.96179 11.9187 2.96179 12.792C2.96179 13.9496 3.2114 14.9455 3.70376 15.752C4.13657 16.4611 4.75968 17.0289 5.55576 17.4396C7.02662 18.1986 8.79663 18.2863 10 18.2863C11.2034 18.2863 12.9735 18.1986 14.4443 17.4396C15.2403 17.0289 15.8635 16.4611 16.2963 15.752C16.7886 14.9454 17.0383 13.9495 17.0383 12.792C17.0383 11.9188 16.9396 11.2179 16.7798 10.5627C17.43 10.4994 18.2354 10.243 18.7664 9.24093C19.2012 8.42026 19.0284 7.30527 18.2528 5.92695ZM3.56212 9.41724C2.98668 9.40128 2.51875 9.28368 2.19528 8.67327C1.97583 8.25909 2.15777 7.4746 2.6945 6.52085C3.20388 5.61564 3.93502 4.73667 4.3988 4.30297C5.16471 3.58662 5.73888 3.54717 6.00903 3.58535C5.20511 4.61981 4.71236 5.96421 4.30029 7.27131C4.12964 7.81259 3.96518 8.27471 3.80607 8.72169C3.72099 8.96083 3.63914 9.19083 3.56212 9.41724ZM9.28123 13.2302C8.99621 12.9295 8.84705 12.6139 8.84705 12.4575C8.84705 12.3178 8.86972 12.3078 8.95399 12.2704C9.19421 12.1637 9.66601 12.1514 9.99999 12.1514C10.334 12.1514 10.8058 12.1637 11.046 12.2704C11.1303 12.3078 11.1529 12.3179 11.1529 12.4575C11.1529 12.6139 11.0038 12.9295 10.7188 13.2302C10.4385 13.5259 10.1392 13.6854 9.99996 13.6854C9.86067 13.6854 9.56153 13.5259 9.28123 13.2302ZM13.9604 16.3948C13.1149 16.8311 11.9956 17.0677 10.5509 17.1145V14.7323C10.9835 14.5561 11.3357 14.2236 11.4976 14.0528C11.7253 13.8127 12.2547 13.1765 12.2547 12.4575C12.2547 11.8694 11.9772 11.4222 11.4733 11.1984C11.1374 11.0493 10.7105 10.9884 10 10.9884C9.28952 10.9884 8.86266 11.0493 8.52674 11.1984C8.02284 11.4222 7.74529 11.8693 7.74529 12.4575C7.74529 13.1765 8.27477 13.8127 8.50237 14.0528C8.6643 14.2237 9.0166 14.5562 9.44913 14.7323V17.1145C8.00442 17.0677 6.88512 16.8311 6.03958 16.3948C4.7099 15.7088 4.06352 14.5303 4.06352 12.792C4.06352 11.305 4.38815 10.393 4.83741 9.13068C4.99255 8.69483 5.16833 8.20083 5.34563 7.63851C6.31946 4.54968 7.3496 2.87586 9.99999 2.87586C12.6504 2.87586 13.6805 4.54971 14.6543 7.63851C14.8316 8.20086 15.0074 8.69483 15.1625 9.13068C15.6118 10.393 15.9364 11.3049 15.9364 12.792C15.9365 14.5303 15.2901 15.7088 13.9604 16.3948ZM17.8048 8.67327C17.4813 9.28375 17.0133 9.40124 16.4379 9.41724C16.3608 9.19079 16.2791 8.96083 16.194 8.72169C16.0349 8.27475 15.8705 7.81259 15.6998 7.27131C15.2877 5.96421 14.795 4.61981 13.991 3.58535C14.2612 3.54724 14.8354 3.58662 15.6013 4.30301C16.0651 4.73663 16.7962 5.61557 17.3056 6.52078C17.8423 7.4746 18.0242 8.25913 17.8048 8.67327Z" fill="#989898" stroke="#989898" stroke-width="0.4"/>
<path d="M8.16631 7.89355C7.76775 7.89355 7.44336 8.23945 7.44336 8.66654C7.44336 9.0936 7.76771 9.43979 8.16631 9.43979C8.56541 9.43979 8.88972 9.09356 8.88972 8.66654C8.88972 8.23945 8.56541 7.89355 8.16631 7.89355Z" fill="#989898" stroke="#989898" stroke-width="0.4"/>
<path d="M11.8285 7.8877C11.4261 7.8877 11.0996 8.23649 11.0996 8.66673C11.0996 9.09698 11.4261 9.44577 11.8285 9.44577C12.2305 9.44577 12.5569 9.09698 12.5569 8.66673C12.5569 8.23649 12.2305 7.8877 11.8285 7.8877Z" fill="#989898" stroke="#989898" stroke-width="0.4"/>
</svg>
