<svg width="105" height="94" viewBox="0 0 105 94" fill="none" xmlns="http://www.w3.org/2000/svg">
<path d="M71.9358 0.916148C68.9665 2.1964 67.1646 5.27661 67.8625 8.28077C67.964 8.71174 68.1037 9.1554 67.9768 9.5737C67.723 10.3976 66.6697 10.6511 65.8068 10.9173C63.84 11.5511 62.1777 13.0088 61.391 14.8088C60.6042 16.6088 60.6677 18.751 61.5813 20.5129C62.4696 20.665 63.3578 20.8044 64.2588 20.9565C64.411 20.2087 64.6521 19.4735 64.982 18.789C65.5149 19.4608 65.8068 20.2974 65.7941 21.134C68.9918 22.3002 72.5448 22.0467 75.9328 22.5283C77.4809 22.7438 79.0164 23.1241 80.5898 23.1114C81.6557 23.1114 82.7089 22.9213 83.7494 22.7312C84.0286 22.6804 84.3205 22.6297 84.5489 22.4776C84.7646 22.3382 84.9042 22.1354 85.0438 21.9326C85.5894 21.1467 86.1224 20.3735 86.668 19.5876C86.7822 20.4368 86.8965 21.2988 87.0234 22.1481C88.9902 21.8819 90.9696 21.6157 92.9365 21.3495C92.2385 20.0692 92.6954 18.4341 91.9975 17.1538C91.566 16.3552 90.6904 15.7341 90.5509 14.8468C90.3859 13.7821 91.3249 12.8314 91.4899 11.7666C91.7183 10.3342 90.5382 9.04132 89.2819 8.19205C88.0257 7.34277 86.5791 6.63292 85.8051 5.37802C85.4371 4.78226 85.2595 4.11045 84.9296 3.50201C84.0667 1.93022 82.1506 0.916149 80.2853 1.05558C79.9046 1.08093 79.5112 1.157 79.1305 1.1063C78.5976 1.04292 78.1282 0.751366 77.646 0.523202C75.8695 -0.288047 73.6488 -0.148603 72.0119 0.89081L71.9611 0.916148H71.9358Z" fill="black"/>
<path d="M97.2507 73.4076C98.4054 71.5315 99.4206 69.5034 99.6998 67.3105C100.119 64.0275 98.8369 60.7952 97.5679 57.7403C97.0857 56.5868 96.6162 55.4206 96.134 54.2671C96.0325 54.0136 95.9056 53.7474 95.6645 53.6334C95.4869 53.5446 95.2966 53.5573 95.1063 53.57C90.4493 53.8869 86.2238 54.3939 86.2238 54.3939C81.2877 52.5432 60.8326 47.3335 55.5665 47.625C54.4626 47.6884 53.3079 47.8659 52.4196 48.525C51.0365 49.5391 50.6177 51.4278 50.6177 53.139C50.6177 56.5868 51.8993 59.8825 53.1428 63.0895C54.7417 67.1837 60.7437 74.016 62.3425 78.1229C60.9721 79.3778 59.8048 80.8229 59.1069 82.5341C58.0537 85.0946 58.3201 88.3523 60.3377 90.2536C61.7335 91.5592 63.7383 92.0536 65.6544 91.9775C67.5705 91.9015 69.4232 91.3311 71.2504 90.7606C73.4203 90.0888 75.5902 89.4044 77.7727 88.7326C84.5234 86.6284 91.3121 84.5115 97.5298 81.1651C97.238 79.5046 96.9462 77.844 96.6543 76.1835C96.5782 75.7906 96.5147 75.385 96.5654 74.9793C96.6416 74.4089 96.9589 73.9146 97.2507 73.4202V73.4076ZM71.4789 70.6442C70.6922 68.2865 70.0703 66.6641 68.8394 64.4965C71.2758 65.4092 73.7756 66.1443 76.3261 66.6767C75.1587 68.5147 73.2046 69.3259 71.4789 70.6442Z" fill="#883F39"/>
<path d="M79.9935 30.223C75.6538 32.999 71.5679 36.168 67.7865 39.6665C63.0914 35.699 58.5614 31.5666 54.1836 27.2569C53.9171 26.9907 53.6379 26.7118 53.5237 26.3442C53.4095 25.9513 53.5237 25.5203 53.6252 25.1147C53.879 24.1767 54.1454 23.226 54.3992 22.288C54.6403 21.4007 54.8941 20.488 54.8433 19.5627C54.8053 18.8148 54.5642 18.0923 54.2978 17.3825C53.5491 15.3163 52.0772 10.4488 51.4554 10.4488C50.8209 10.7657 51.6203 14.2642 52.1532 15.5952C51.7852 13.3009 50.859 8.35733 50.3514 9.81504C50.3387 9.86574 50.2626 13.9854 50.8336 15.2529C50.4656 14.0361 50.3006 12.2488 49.9453 10.9685C49.9199 10.8925 49.8311 10.8925 49.8057 10.9685C49.2474 12.3756 49.1332 14.5558 49.8438 15.8234L49.184 13.4783C49.1332 13.3009 48.9683 13.1741 48.7907 13.1741C48.613 13.1741 48.5621 13.3136 48.5114 13.4403C47.6358 16.0515 49.6028 18.8148 49.4124 21.5655C49.3109 22.9345 48.6891 24.2527 48.8667 25.6091C48.9556 26.3442 49.2854 27.0161 49.6027 27.6752C52.8257 34.406 56.1123 41.2256 61.0484 46.8283C62.3808 48.3367 64.1192 49.8578 66.1241 49.6677C67.1519 49.5662 68.0782 49.0212 68.9665 48.4888C74.9939 44.8762 81.0974 41.2002 85.9574 36.1299C86.1478 35.9271 86.3382 35.7243 86.389 35.4581C86.4524 35.1539 86.3255 34.8497 86.1859 34.5835C85.5895 33.3032 84.9296 32.023 83.9018 31.0469C82.8866 30.0709 81.44 29.4371 80.0569 29.7033L80.0062 30.2103L79.9935 30.223Z" fill="#EDB894"/>
<path d="M76.1985 27.8022C74.9804 31.0091 73.2672 32.9485 72.2775 36.2315C71.7191 38.0949 69.7143 39.7047 69.8412 41.6441C70.0189 44.2933 71.3512 46.7398 72.95 48.8566C74.5996 51.0368 76.5791 52.9636 78.787 54.5734C79.0916 54.7889 79.4089 55.017 79.7768 55.1058C80.221 55.2198 80.6906 55.1184 81.1474 55.0297C86.1977 54.0537 91.4003 53.7748 96.5268 54.2058C97.2247 51.1383 96.0318 48.0073 95.6892 44.8764C95.537 43.5455 95.5496 42.2018 95.2958 40.8835C94.9532 39.0836 94.1157 37.4104 93.3036 35.7625C92.1743 33.4936 91.1464 32.3908 89.941 30.1599C89.1669 28.7275 87.0478 26.7247 85.855 25.6093C84.2435 24.1135 83.4949 23.9107 81.2996 24.0375C79.1044 24.1642 76.6807 24.0121 75.2468 25.6853L76.1858 27.8022H76.1985Z" fill="#B28A87"/>
<mask id="mask0_353_17996" style="mask-type:luminance" maskUnits="userSpaceOnUse" x="69" y="24" width="28" height="32">
<path d="M76.1985 27.8002C74.9804 31.0072 73.2672 32.9466 72.2775 36.2296C71.7191 38.0929 69.7143 39.7028 69.8412 41.6421C70.0189 44.2914 71.3512 46.7378 72.95 48.8547C74.5996 51.0349 76.5791 52.9616 78.787 54.5714C79.0916 54.7869 79.4089 55.0151 79.7768 55.1038C80.221 55.2179 80.6906 55.1165 81.1474 55.0278C86.1977 54.0517 91.4003 53.7729 96.5268 54.2038C97.2247 51.1363 96.0318 48.0054 95.6892 44.8745C95.537 43.5435 95.5496 42.1999 95.2958 40.8816C94.9532 39.0816 94.1157 37.4084 93.3036 35.7606C92.1743 33.4916 91.1464 32.3888 89.941 30.1579C89.1669 28.7255 87.0478 26.7228 85.855 25.6073C84.2435 24.1116 83.4949 23.9088 81.2996 24.0355C79.1044 24.1623 76.6807 24.0102 75.2468 25.6834L76.1858 27.8002H76.1985Z" fill="white"/>
</mask>
<g mask="url(#mask0_353_17996)">
<path d="M83.6732 43.6747C83.6732 46.869 81.0845 49.4548 77.8868 49.4548C74.6891 49.4548 72.1006 46.869 72.1006 43.6747C72.1006 40.4804 74.6891 37.8945 77.8868 37.8945C81.0845 37.8945 83.6732 40.4804 83.6732 43.6747Z" fill="#883F39" fill-opacity="0.5"/>
<path d="M77.9627 28.7157C77.9627 31.91 75.3741 34.4959 72.1764 34.4959C73.0392 34.4959 66.3901 32.7212 66.3901 28.7157C66.3901 26.3326 73.0392 22.9355 72.1764 22.9355C75.3741 22.9355 77.9627 25.5214 77.9627 28.7157Z" fill="#883F39" fill-opacity="0.5"/>
<path d="M97.4412 34.1923C97.4412 37.3865 94.8526 39.9724 91.6549 39.9724C88.4572 39.9724 85.8687 37.3865 85.8687 34.1923C85.8687 30.998 88.4572 28.4121 91.6549 28.4121C94.8526 28.4121 97.4412 30.998 97.4412 34.1923Z" fill="#883F39" fill-opacity="0.5"/>
<path d="M97.5936 49.9979C97.5936 53.1922 95.0049 55.7781 91.8072 55.7781C88.6095 55.7781 86.021 53.1922 86.021 49.9979C86.021 46.8036 88.6095 44.2178 91.8072 44.2178C95.0049 44.2178 97.5936 46.8036 97.5936 49.9979Z" fill="#883F39" fill-opacity="0.5"/>
</g>
<path d="M96.3373 73.6004C97.8346 73.0934 99.3954 72.7258 100.956 72.523C102.263 72.3455 103.837 72.3962 104.573 73.499C105.017 74.1582 105.017 75.0201 104.991 75.8187C104.877 79.951 104.763 84.0833 104.649 88.2283C104.623 89.0268 104.585 89.8888 104.116 90.5353C103.557 91.2958 102.568 91.5747 101.641 91.7648C100.004 92.0944 98.3422 92.2972 96.6672 92.3733C95.7536 92.4113 94.6877 92.3479 94.1548 91.6C93.5711 90.7888 93.977 89.6353 94.5353 88.8114C95.2079 87.8227 96.1089 86.9734 97.1367 86.365C97.4159 86.2002 97.7204 86.0227 97.8726 85.7312C98.0376 85.4269 97.9742 85.0466 97.9234 84.7044C97.3017 81.0411 96.6799 77.3778 96.0582 73.7272L96.3246 73.6004H96.3373Z" fill="black"/>
<path d="M79.4096 36.9413C80.7927 36.6751 82.2391 37.3089 83.2543 38.285C84.2694 39.261 84.942 40.5412 85.5384 41.8215C85.6653 42.1004 85.7922 42.4046 85.7415 42.6961C85.6907 42.9623 85.4876 43.1778 85.3099 43.3679C80.45 48.4382 74.3464 52.1142 68.319 55.7268C67.4308 56.2592 66.5045 56.8042 65.4766 56.9057C63.4717 57.0958 61.7333 55.5747 60.4009 54.0663C55.4648 48.4636 52.1784 41.644 48.9553 34.9132C48.6381 34.2541 48.3208 33.5696 48.2193 32.8471C48.0416 31.4907 48.6761 30.1725 48.765 28.8035C48.9553 26.0528 46.9884 23.2895 47.8639 20.6783C47.902 20.5516 47.9656 20.4248 48.1432 20.4121C48.3209 20.4121 48.4857 20.5389 48.5365 20.7164L49.1964 23.0614C48.4858 21.7811 48.5999 19.6136 49.1583 18.2065C49.1836 18.1432 49.2851 18.1432 49.2978 18.2065C49.6531 19.4868 49.8182 21.2741 50.1862 22.491C49.6151 21.2234 49.6913 17.1038 49.704 17.0531C50.2115 15.5827 51.1378 20.5389 51.5057 22.8332C50.9728 21.4896 50.1735 17.9911 50.8079 17.6868C51.4424 17.6868 52.9016 22.5543 53.6503 24.6205C53.9041 25.3303 54.1451 26.0402 54.1959 26.8007C54.2466 27.726 54.0056 28.6387 53.7518 29.526C53.498 30.464 53.2315 31.4147 52.9777 32.3527C52.8635 32.7583 52.7621 33.1766 52.8763 33.5823C52.9778 33.9498 53.257 34.2287 53.5361 34.4949C57.9139 38.8047 62.4567 42.937 67.139 46.9045C70.9077 43.406 79.3969 36.954 79.3969 36.954L79.4096 36.9413Z" fill="#FED5B7"/>
<path d="M70.1082 6.49304C69.5498 8.83805 67.9891 13.5281 67.9891 13.5281L64.6392 13.0718L67.0247 16.5449C67.0247 16.5449 66.6694 19.8279 66.9485 21.4504C67.012 21.7927 67.1008 22.1603 67.3799 22.3884C67.6337 22.5913 67.989 22.6039 68.3189 22.6039C69.4356 22.6039 71.8466 22.5025 71.8466 22.5025C71.8466 22.5025 74.4225 26.7742 75.831 29.1573C78.4704 28.739 81.6301 27.6489 83.4954 25.8109C82.0488 22.9715 80.8179 20.0308 79.8282 17.0266C80.3611 17.7871 81.6427 17.8885 82.3533 17.2674C83.0639 16.6463 83.1147 15.4801 82.531 14.745C81.9473 14.0098 80.8433 13.7436 79.9296 14.0478C80.12 12.045 80.2977 10.0549 80.488 8.05215C77.4172 7.25358 73.585 6.59443 70.4254 6.4043L70.1082 6.51837V6.49304Z" fill="#FED5B7"/>
<path d="M89.535 28.6149C89.2559 27.9811 88.9767 27.3474 88.5834 26.7896C87.7459 25.5728 86.4134 24.7362 84.9668 24.4319C85.5251 24.4573 86.0835 24.4446 86.6419 24.3432C88.8879 23.9376 90.6516 22.239 92.2631 20.6292C89.7126 19.7673 86.6925 20.5024 84.8272 22.4545C84.2689 23.0376 83.7359 23.7728 83.0634 24.1784C82.5939 23.2784 82.1244 22.3911 81.6549 21.4912C79.815 24.4193 76.224 25.1925 72.8359 24.47C73.0517 25.3953 73.0263 27.2586 73.5085 28.0826C73.7369 28.4755 73.9906 28.8431 74.3586 29.1093C75.2468 29.7431 76.4778 29.5022 77.5057 29.1093C79.6248 28.3107 81.5408 26.9798 83.0382 25.2685C84.3959 27.8797 86.7434 29.9713 89.4969 30.998C89.8522 31.1247 90.3979 31.1247 90.4359 30.7571C90.4359 30.6557 90.3978 30.5543 90.3597 30.4529C90.0806 29.8318 89.8142 29.2234 89.535 28.6023V28.6149Z" fill="#C23F37"/>
<path d="M80.1963 29.5897C81.4779 30.2108 82.5311 31.2502 83.1656 32.5178C83.2925 32.7713 83.6858 32.5431 83.5589 32.2896C82.8863 30.9587 81.7697 29.8559 80.4247 29.1967C80.1709 29.07 79.9299 29.4629 80.1963 29.5897Z" fill="#883F39"/>
<path d="M76.9854 37.7019C78.838 37.8413 80.5003 38.9948 81.7184 40.4525C82.9493 41.9102 83.7995 43.6848 84.6243 45.4341C85.2588 45.0031 85.8805 44.5721 86.515 44.1412C86.6292 44.0651 86.7434 43.9891 86.7941 43.8496C86.8449 43.7229 86.8195 43.5707 86.7941 43.4313C86.1089 40.0089 83.8122 37.0301 80.8048 35.6484C80.5891 35.547 80.3607 35.4583 80.1196 35.4709C79.777 35.4963 79.4978 35.7371 79.2314 35.978C78.5588 36.5737 77.8989 37.1568 77.2264 37.7526L76.9854 37.6892V37.7019Z" fill="#883F39"/>
<path d="M87.1492 43.5461C88.7227 42.3546 90.2834 41.1757 91.8569 39.9842C92.0853 39.8067 91.8568 39.4265 91.6284 39.5912C90.055 40.7828 88.4942 41.9616 86.9208 43.1531C86.6924 43.3306 86.9208 43.7109 87.1492 43.5461Z" fill="#883F39"/>
<path d="M89.4461 42.0251C90.2201 41.9364 91.007 41.8477 91.781 41.7463C91.9079 41.7336 92.0093 41.6575 92.0093 41.5181C92.0093 41.404 91.9079 41.2773 91.781 41.2899C91.007 41.3787 90.2201 41.4674 89.4461 41.5688C89.3192 41.5815 89.2178 41.6575 89.2178 41.797C89.2178 41.911 89.3192 42.0378 89.4461 42.0251Z" fill="#883F39"/>
<path d="M94.6748 52.4307C93.85 52.5828 93.076 52.925 92.2512 53.1152C91.8198 53.2166 91.401 53.2419 90.9696 53.2039C90.5128 53.1532 90.0686 53.0518 89.6118 52.963C87.9368 52.6461 86.211 52.6335 84.5234 52.9123C83.559 53.0771 82.6073 53.3433 81.6937 53.6982C81.4272 53.7996 81.5414 54.2433 81.8078 54.1292C83.4194 53.4954 85.1451 53.1659 86.8835 53.1532C87.7464 53.1532 88.5966 53.2292 89.4341 53.3813C90.297 53.5461 91.1472 53.749 92.0355 53.6095C92.9745 53.4574 93.8501 53.0391 94.7891 52.8743C95.0682 52.8236 94.9539 52.3926 94.6748 52.4434V52.4307Z" fill="#883F39"/>
<path d="M80.2347 35.5099C82.0239 34.3437 83.737 33.0888 85.3993 31.7451C85.6277 31.5677 85.3105 31.2508 85.0821 31.4283C83.4579 32.7465 81.7575 33.9761 80.0064 35.1169C79.7653 35.269 79.9936 35.662 80.2347 35.5099Z" fill="#883F39"/>
<path d="M74.4988 33.6825C74.283 34.1515 74.08 34.6078 73.8643 35.0768C73.8135 35.1782 73.8263 35.3304 73.9405 35.3811C74.042 35.4318 74.1943 35.4191 74.245 35.305C74.4607 34.836 74.6638 34.3797 74.8795 33.9107C74.9302 33.8093 74.9176 33.6572 74.8034 33.6065C74.7019 33.5558 74.5495 33.5684 74.4988 33.6825Z" fill="#883F39"/>
<path d="M75.5645 33.8231C75.4122 34.0893 75.2727 34.3428 75.1204 34.609C75.0569 34.7104 75.0949 34.8625 75.1964 34.9132C75.298 34.9639 75.4375 34.9386 75.501 34.8371C75.6533 34.571 75.7928 34.3174 75.9451 34.0512C76.0085 33.9498 75.9705 33.7977 75.869 33.747C75.7675 33.6963 75.6279 33.7217 75.5645 33.8231Z" fill="#883F39"/>
<path d="M77.544 32.7954C77.4551 33.163 77.3664 33.5306 77.2775 33.8982C77.2521 34.0122 77.3156 34.1517 77.4298 34.177C77.544 34.2024 77.6835 34.139 77.7089 34.0249C77.7977 33.6573 77.8867 33.2897 77.9755 32.9221C78.0009 32.808 77.9374 32.6686 77.8232 32.6432C77.709 32.6179 77.5693 32.6813 77.544 32.7954Z" fill="#883F39"/>
<path d="M89.5861 47.652C89.6876 48.0703 89.7892 48.476 89.8781 48.8943C89.9034 49.0083 90.043 49.0844 90.1572 49.0464C90.2714 49.0083 90.3475 48.8943 90.3094 48.7675C90.2079 48.3492 90.1064 47.9436 90.0176 47.5253C89.9922 47.4112 89.8525 47.3351 89.7383 47.3732C89.6241 47.4112 89.548 47.5253 89.5861 47.652Z" fill="#883F39"/>
<path d="M91.3502 47.248C90.9822 47.4762 90.9822 48.0466 91.3502 48.2748C91.4517 48.3382 91.604 48.3001 91.6547 48.1987C91.7182 48.0846 91.6802 47.9579 91.5787 47.8945C91.5787 47.8945 91.5533 47.8818 91.5533 47.8692C91.566 47.8692 91.5787 47.8945 91.6041 47.9072C91.5787 47.8945 91.566 47.8692 91.5533 47.8565C91.5533 47.8692 91.5787 47.8818 91.5914 47.9072C91.566 47.8818 91.5533 47.8565 91.5406 47.8311C91.5406 47.8438 91.5533 47.8692 91.566 47.8818C91.5533 47.8438 91.5406 47.8185 91.5406 47.7804C91.5406 47.8058 91.5406 47.8185 91.5406 47.8438C91.5406 47.8058 91.5406 47.7678 91.5406 47.7297C91.5406 47.7551 91.5406 47.7678 91.5406 47.7931C91.5406 47.7551 91.5533 47.7297 91.566 47.6917C91.566 47.7044 91.5533 47.7297 91.5406 47.7424C91.5406 47.717 91.566 47.6917 91.5914 47.6663C91.5914 47.679 91.566 47.6917 91.5533 47.717C91.566 47.6917 91.5914 47.679 91.6041 47.6663C91.5914 47.6663 91.5787 47.6917 91.5533 47.7044C91.5533 47.7044 91.5787 47.6917 91.5787 47.679C91.6802 47.6156 91.7309 47.4762 91.6547 47.3748C91.5913 47.2734 91.4517 47.2227 91.3502 47.2988V47.248Z" fill="#883F39"/>
<path d="M92.9616 46.3954C92.7586 46.8517 92.6951 47.3334 92.7966 47.8151C92.822 47.9292 92.9616 48.0052 93.0758 47.9672C93.2027 47.9292 93.2534 47.8151 93.228 47.6883C93.228 47.663 93.228 47.6249 93.2153 47.5996C93.2153 47.5235 93.2153 47.6376 93.2153 47.5742C93.2153 47.5235 93.2153 47.4728 93.2153 47.4221C93.2153 47.3207 93.2153 47.2193 93.2153 47.1179C93.2153 47.1179 93.2153 47.1179 93.2153 47.0799C93.2153 47.0545 93.2153 47.0419 93.2153 47.0165C93.2153 46.9658 93.2407 46.9151 93.2534 46.8644C93.2661 46.8137 93.2789 46.763 93.3042 46.7123C93.3042 46.6869 93.317 46.6743 93.3296 46.6489C93.3296 46.6236 93.3296 46.6236 93.3296 46.6489C93.3296 46.6362 93.3297 46.6236 93.3423 46.6109C93.3931 46.5095 93.3803 46.3574 93.2661 46.3067C93.1646 46.256 93.0124 46.2686 92.9616 46.3827V46.3954Z" fill="#883F39"/>
<path d="M80.4627 55.3579C79.8409 57.3987 79.676 59.5662 80.0059 61.6704C80.044 61.9239 80.0947 62.1774 80.1455 62.4183C80.1962 62.6591 80.2596 62.9253 80.2088 63.1788C80.1327 63.6352 79.676 63.9647 79.346 64.2689C78.6101 64.9407 77.8614 65.5999 77.0873 66.2463C73.9658 68.8702 70.6539 71.2533 67.4435 73.7758C65.667 75.1701 63.916 76.6151 62.2664 78.1489C62.0506 78.3517 62.3679 78.6686 62.5836 78.4658C65.5656 75.6771 68.8648 73.2307 72.1005 70.7463C73.7374 69.504 75.3616 68.2491 76.9478 66.9309C77.7218 66.2844 78.4832 65.6379 79.2319 64.9661C79.5872 64.6492 79.9678 64.3323 80.285 63.9774C80.6276 63.5845 80.7165 63.1408 80.6404 62.6338C80.5516 62.038 80.412 61.4423 80.3485 60.8465C80.2851 60.2507 80.2724 59.6423 80.2977 59.0338C80.3358 57.817 80.5388 56.6254 80.8941 55.4593C80.9829 55.1804 80.5388 55.0663 80.4627 55.3452V55.3579Z" fill="#621E18"/>
<path d="M95.8926 73.8771C92.403 74.7644 88.9008 75.6391 85.4112 76.5264C83.7236 76.9573 82.0485 77.4137 80.4116 77.9967C78.8889 78.5418 77.4042 79.1883 75.9704 79.9234C74.3588 80.7601 72.798 81.7107 71.326 82.7755C71.0976 82.9403 71.3261 83.3332 71.5545 83.1684C74.1558 81.2798 77.011 79.7333 80.0183 78.6178C81.6298 78.0094 83.2795 77.5404 84.9417 77.1094C86.6675 76.6658 88.3932 76.2348 90.1316 75.7911C92.0858 75.2968 94.0399 74.8025 95.994 74.3081C96.2732 74.232 96.159 73.8011 95.8799 73.8771H95.8926Z" fill="#621E18"/>
<path d="M72.6082 81.1169C73.2808 80.6732 74.1691 80.6099 74.8924 81.0028C75.1462 81.1422 75.3746 80.7493 75.1208 80.6099C74.2707 80.1535 73.192 80.1916 72.3799 80.7239C72.1388 80.8887 72.3671 81.269 72.6082 81.1169Z" fill="#621E18"/>
<path d="M97.0604 58.0439C96.5021 58.1073 95.9312 58.1707 95.3728 58.2341C95.1698 58.2595 94.9414 58.2721 94.7892 58.4369C94.6369 58.6017 94.6241 58.8298 94.6494 59.0453C94.7763 60.1862 94.9414 61.3143 95.081 62.4551C95.2206 63.5579 95.3474 64.6607 95.4997 65.7635C95.6266 66.6762 95.8296 67.6142 96.4387 68.3367C97.0224 69.0339 98.0502 69.4902 98.9384 69.1226C99.2049 69.0212 99.0907 68.5775 98.8243 68.6916C98.1264 68.9705 97.3777 68.6536 96.8828 68.1339C96.2991 67.5254 96.1088 66.6381 95.9819 65.8269C95.8423 64.8762 95.7407 63.9128 95.6138 62.9621C95.487 61.9481 95.3602 60.934 95.2333 59.92C95.1952 59.6538 95.1697 59.3749 95.1316 59.1087C95.1316 59.02 95.0809 58.8679 95.1189 58.7792C95.157 58.6778 95.3094 58.6904 95.3982 58.6777C95.9566 58.6144 96.5275 58.551 97.0858 58.4876C97.365 58.4622 97.3777 58.0059 97.0858 58.0313L97.0604 58.0439Z" fill="#621E18"/>
<path d="M81.0339 64.3447C82.4297 64.8518 83.7114 65.663 84.79 66.6898C84.993 66.8926 85.3229 66.5757 85.1072 66.3729C83.9779 65.2828 82.6327 64.4462 81.1607 63.9138C80.8816 63.8124 80.7674 64.2433 81.0466 64.3447H81.0339Z" fill="#621E18"/>
<path d="M81.4653 63.6621C82.9119 64.1945 84.2823 64.8663 85.5893 65.6776C85.8431 65.8297 86.0587 65.4367 85.8176 65.2846C84.4852 64.4607 83.0641 63.7762 81.5794 63.2312C81.313 63.1297 81.1861 63.5607 81.4653 63.6621Z" fill="#621E18"/>
<path d="M91.997 75.5628C92.5934 77.9965 93.1517 80.443 93.6973 82.8894C93.7608 83.1683 94.1923 83.0542 94.1289 82.7753C93.5833 80.3289 93.0248 77.8825 92.4284 75.4487C92.365 75.1699 91.9209 75.2839 91.997 75.5628Z" fill="#621E18"/>
<path d="M63.6877 59.6926C65.4008 61.2898 67.025 62.9756 68.5731 64.7376C68.7634 64.953 69.0806 64.6362 68.8903 64.4207C67.3422 62.6587 65.718 60.9729 64.005 59.3757C63.7893 59.1729 63.472 59.4898 63.6877 59.6926Z" fill="#621E18"/>
<path d="M65.4386 58.9187C66.4791 60.8581 67.5956 62.7595 68.7884 64.6102C68.9407 64.851 69.3341 64.6228 69.1819 64.382C67.9891 62.5313 66.8724 60.63 65.8319 58.6906C65.6923 58.4371 65.3117 58.6652 65.4386 58.9187Z" fill="#621E18"/>
<path d="M77.6837 60.2753C74.3211 58.5133 70.3875 57.9176 66.6441 58.5767C65.7559 58.7288 64.855 58.9443 64.0175 59.2739C63.3069 59.5527 62.5709 59.9584 62.1775 60.6429C61.6699 61.5302 62.038 62.4809 62.3933 63.3428C62.812 64.3315 63.2435 65.3075 63.6749 66.2836C64.6773 68.5018 65.7178 70.6948 66.8218 72.875C66.9487 73.1285 67.342 72.9003 67.2151 72.6468C66.2888 70.7962 65.3878 68.9328 64.525 67.0568C64.0935 66.1188 63.6748 65.1681 63.256 64.2175C63.053 63.7358 62.8373 63.2668 62.647 62.7851C62.4693 62.3414 62.3044 61.8597 62.3806 61.3781C62.4948 60.6302 63.1546 60.1612 63.789 59.857C64.5631 59.4894 65.4259 59.2739 66.2634 59.1091C68.0272 58.7415 69.8544 58.6655 71.6436 58.8683C73.6739 59.0964 75.6535 59.7048 77.4554 60.6555C77.7092 60.795 77.9375 60.402 77.6837 60.2626V60.2753Z" fill="#621E18"/>
<path d="M84.3838 56.1054C84.3838 56.9927 84.9421 57.7659 85.6781 58.2222C86.5283 58.7546 87.5815 58.8307 88.5713 58.7926C88.8632 58.7926 88.8632 58.3363 88.5713 58.3363C87.7084 58.3616 86.7821 58.3236 86.0081 57.88C85.3609 57.5124 84.8406 56.8532 84.8406 56.0927C84.8406 55.8011 84.3838 55.8011 84.3838 56.0927V56.1054Z" fill="#621E18"/>
<path d="M87.9751 55.7747C88.5081 57.8789 89.0791 60.1352 88.4446 62.2774C87.8736 64.1914 86.4016 65.6618 84.917 66.9167C81.6812 69.6673 77.8871 71.6448 74.4737 74.1672C72.9003 75.3207 71.4028 76.5883 70.1085 78.046C69.4614 78.7685 68.865 79.5545 68.3447 80.3784C68.0909 80.7713 67.8626 81.177 67.6469 81.5953C67.4058 82.0769 67.1773 82.5713 67.1012 83.1037C66.9616 84.0037 67.355 84.8276 68.0529 85.3726C68.8142 85.9684 69.7786 86.1585 70.7303 86.0571C71.8596 85.943 72.9129 85.5247 73.9788 85.1445C75.0828 84.7515 76.1867 84.3586 77.2907 83.9529C81.6431 82.3558 85.9448 80.6319 90.1957 78.8066C90.716 78.5911 91.2235 78.3629 91.7438 78.1348C92.0103 78.0207 91.7818 77.6277 91.5153 77.7418C87.3025 79.5798 83.0517 81.3037 78.75 82.9262C77.6968 83.3191 76.6436 83.7121 75.5904 84.0924C74.5118 84.4853 73.4458 84.8783 72.3546 85.2332C71.3648 85.5501 70.2609 85.8036 69.2331 85.4867C68.4717 85.2459 67.7356 84.6628 67.558 83.8389C67.4565 83.3445 67.5961 82.8248 67.7865 82.3685C67.9768 81.9248 68.2052 81.4938 68.4463 81.0629C68.9285 80.2389 69.4868 79.453 70.0958 78.7305C71.3394 77.2601 72.7988 75.9672 74.3342 74.8137C77.6588 72.3166 81.3513 70.3645 84.5997 67.7533C86.0971 66.5364 87.6324 65.1675 88.4699 63.4055C89.4089 61.4408 89.2187 59.2732 88.7618 57.2197C88.6476 56.7 88.5207 56.1803 88.3811 55.6606C88.305 55.3818 87.8736 55.4958 87.9497 55.7747H87.9751Z" fill="#621E18"/>
<path d="M95.5759 61.0126C96.5149 60.7337 97.4918 60.6323 98.4689 60.7084C98.7607 60.7337 98.7607 60.2774 98.4689 60.252C97.4538 60.1633 96.4386 60.2774 95.4615 60.5689C95.1824 60.6577 95.2967 61.0886 95.5759 60.9999V61.0126Z" fill="#621E18"/>
<path d="M80.4501 16.4175C80.6404 16.1893 80.8435 15.9865 81.0719 15.7963C81.0973 15.771 81.11 15.771 81.1227 15.7583C81.1481 15.733 81.1734 15.7203 81.2114 15.6949C81.2749 15.6569 81.3383 15.6062 81.3891 15.5682C81.516 15.4921 81.643 15.4161 81.7825 15.3527C81.8841 15.302 81.922 15.1372 81.8586 15.0485C81.7825 14.9344 81.6683 14.9091 81.5541 14.9724C80.9957 15.2386 80.5009 15.6316 80.1202 16.1006C80.044 16.1893 80.0187 16.3287 80.1202 16.4175C80.209 16.4935 80.3613 16.5189 80.4374 16.4175H80.4501Z" fill="#7E4927"/>
<path d="M80.9067 16.1405C80.9067 16.1405 80.9955 16.1405 81.0463 16.1405C81.0589 16.1405 81.0717 16.1405 81.0844 16.1405C81.097 16.1405 81.135 16.1405 81.1604 16.1532C81.2112 16.1532 81.2494 16.1785 81.3001 16.1912C81.3255 16.1912 81.3508 16.2039 81.3762 16.2166C81.3508 16.2039 81.3889 16.2166 81.3889 16.2166C81.427 16.2419 81.4777 16.2546 81.5158 16.28C81.5411 16.2926 81.5539 16.3053 81.5793 16.318C81.6427 16.356 81.6808 16.394 81.7188 16.4321C81.7315 16.4447 81.7443 16.4701 81.7696 16.4828C81.7696 16.4828 81.7822 16.5081 81.7949 16.5081C81.8329 16.5588 81.8711 16.5968 81.9346 16.6095C81.9854 16.6222 82.0614 16.6095 82.1121 16.5842C82.2009 16.5208 82.2645 16.3814 82.1883 16.28C82.036 16.0898 81.8585 15.925 81.6301 15.8109C81.4017 15.7095 81.1605 15.6462 80.9194 15.6588C80.8052 15.6588 80.6909 15.7602 80.6909 15.887C80.6909 16.0011 80.7925 16.1152 80.9194 16.1152L80.9067 16.1405Z" fill="#7E4927"/>
<path opacity="0.39" d="M71.8472 22.4911L77.9508 21.8066L72.837 24.0249L71.8472 22.4911Z" fill="#7E4927"/>
<path d="M67.8879 18.4854C68.9538 18.8276 70.1973 18.3333 70.7683 17.3699C70.9206 17.1164 70.5272 16.8882 70.3749 17.1417C69.9054 17.9403 68.8903 18.3333 68.0147 18.0544C67.7356 17.9657 67.6214 18.3966 67.9006 18.4854H67.8879Z" fill="#7E4927"/>
<path d="M71.5545 13.3001C71.5545 13.8832 71.2499 14.3649 70.8692 14.3649C70.4885 14.3649 70.1841 13.8832 70.1841 13.3001C70.1841 12.717 70.4885 12.2354 70.8692 12.2354C71.2499 12.2354 71.5545 12.717 71.5545 13.3001Z" fill="black"/>
<path d="M70.299 10.3087C70.1721 10.4608 70.2482 10.7017 70.3878 10.8285C70.54 10.9552 70.7431 10.9806 70.9335 11.0186C71.7329 11.1327 72.5451 11.2341 73.3445 11.3228C72.7861 10.2961 71.4284 9.80172 70.3371 10.22L70.2863 10.3214L70.299 10.3087Z" fill="black"/>
<path d="M70.3364 4.45154C69.6385 4.89519 69.7273 6.02333 70.3237 6.59374C70.9201 7.16415 71.7955 7.30358 72.6203 7.31625C73.2167 7.31625 73.8132 7.2909 74.3842 7.45569C74.9552 7.62047 75.5008 8.0261 75.615 8.60919C75.7673 9.42044 75.0821 10.3077 75.4881 11.0176C75.7927 11.5626 76.5287 11.626 77.1378 11.6641C77.7596 11.7021 78.4955 11.8415 78.7113 12.4246C78.8762 12.8556 78.6605 13.3373 78.3686 13.7049C78.0768 14.0724 77.7214 14.3893 77.5438 14.8076C77.2646 15.4541 77.4931 16.2907 78.0768 16.6963C78.1022 15.6315 78.8127 14.6048 79.8025 14.1992C80.7923 13.7936 82.0231 14.0471 82.7845 14.7949C82.5687 13.7936 82.6829 12.7288 83.1017 11.8035C83.3935 11.157 83.8378 10.5613 84.0027 9.87676C84.1804 9.12889 84.028 8.33031 83.7234 7.60779C83.1651 6.28951 82.0231 5.13603 80.6146 4.94589C79.2696 4.76843 77.7595 5.44025 76.6302 4.69238C76.2749 4.45154 76.0084 4.10928 75.7039 3.80506C74.9172 3.03184 73.8259 2.60088 72.7347 2.61355C72.0875 2.61355 71.4149 2.80367 70.9073 3.2093C70.3998 3.61492 70.0699 4.27407 70.1587 4.92053L70.3237 4.43885L70.3364 4.45154Z" fill="black"/>
<path d="M83.0262 2.20955C84.1301 2.42504 85.1579 2.94474 85.97 3.73064C86.3761 4.11091 86.7187 4.55456 86.9979 5.03624C87.2898 5.55595 87.5055 6.11369 87.7973 6.6334C88.0892 7.15311 88.4571 7.59674 88.9519 7.92631C89.4468 8.25588 90.0051 8.48406 90.5254 8.75025C91.5532 9.26996 92.3655 10.1192 92.7208 11.222C93.1522 12.5276 92.873 13.9853 92.0482 15.0754C91.8706 15.3036 92.2638 15.5318 92.4415 15.3036C93.2155 14.2896 93.5328 12.9713 93.3171 11.7164C93.1141 10.5502 92.4289 9.47275 91.4645 8.77559C90.4748 8.06574 89.1551 7.83759 88.4191 6.7855C88.0638 6.2658 87.8353 5.68271 87.5562 5.12498C87.2897 4.5926 86.9472 4.11092 86.5411 3.67994C85.6402 2.71659 84.4346 2.03209 83.1403 1.79125C82.8612 1.74054 82.7343 2.17152 83.0262 2.22222V2.20955Z" fill="black"/>
<path d="M72.2653 0.879497C69.8036 0.702036 67.38 2.46398 66.7201 4.83435C66.5425 5.48081 66.5297 6.15262 66.4663 6.81176C66.4028 7.43288 66.2886 8.10468 65.8572 8.58636C65.4385 9.05537 64.8294 9.27085 64.2583 9.47366C63.6746 9.67648 63.0783 9.86662 62.5834 10.2342C61.4668 11.0708 60.9338 12.5792 61.3145 13.9229C61.3906 14.2017 61.822 14.0876 61.7459 13.8088C61.4287 12.6806 61.8475 11.4131 62.7484 10.6779C63.6874 9.91731 65.007 9.91732 65.946 9.1441C66.9738 8.28215 66.8724 6.86246 67.012 5.67093C67.1516 4.49209 67.748 3.44001 68.6235 2.65412C69.6133 1.76681 70.9203 1.25978 72.2526 1.36118C72.5445 1.38653 72.5445 0.930205 72.2526 0.904854L72.2653 0.879497Z" fill="black"/>
<path d="M83.9271 24.4057C85.196 23.4551 86.6046 22.6945 88.1019 22.1621C88.3684 22.0607 88.254 21.6297 87.9876 21.7312C86.4522 22.2762 85.0056 23.0368 83.7113 24.0128C83.4829 24.1903 83.7114 24.5705 83.9398 24.4057H83.9271Z" fill="#6D1111"/>
<path d="M84.0028 24.6191C84.9925 24.2388 86.0075 23.9092 87.0354 23.6304C87.3145 23.5543 87.2004 23.1233 86.9212 23.1994C85.8934 23.4783 84.8782 23.8078 83.8884 24.1881C83.622 24.2895 83.7363 24.7205 84.0028 24.6191Z" fill="#6D1111"/>
<path d="M83.8375 24.5174C84.5735 25.9117 85.6393 27.1159 86.9336 28.0286C87.1747 28.1933 87.3905 27.8004 87.1621 27.6356C85.9439 26.761 84.9414 25.6202 84.2308 24.2892C84.0912 24.0357 83.7106 24.2639 83.8375 24.5174Z" fill="#6D1111"/>
<path d="M74.6511 26.3834C75.1586 27.1312 75.9707 27.6002 76.8463 27.7903C77.9122 28.0312 79.016 27.8537 80.0693 27.6129C80.3484 27.5495 80.2343 27.1185 79.9551 27.1819C78.3182 27.5622 76.1356 27.7523 75.0571 26.1552C74.8921 25.9143 74.4987 26.1425 74.6636 26.3834H74.6511Z" fill="#6D1111"/>
<path d="M75.8567 25.9516C77.0115 26.5474 78.3057 26.8263 79.6 26.7629C79.8919 26.7502 79.8919 26.2939 79.6 26.3065C78.3818 26.3699 77.1763 26.1164 76.0851 25.5587C75.8313 25.4319 75.6029 25.8122 75.8567 25.9516Z" fill="#6D1111"/>
<path d="M78.09 29.8291C78.5849 29.7784 79.0796 29.7784 79.5745 29.6896C80.0567 29.6136 80.5264 29.4995 80.9959 29.3474C81.9222 29.0559 82.823 28.6629 83.7112 28.2827C83.9777 28.1686 83.7494 27.7756 83.4829 27.8897C82.62 28.27 81.7698 28.6376 80.8688 28.9164C80.4374 29.0559 80.0061 29.1573 79.562 29.2333C79.0798 29.3221 78.5849 29.322 78.1027 29.3728C77.8108 29.3981 77.8108 29.8544 78.1027 29.8291H78.09Z" fill="#883F39"/>
<path d="M50.376 17.722C50.8201 19.6614 51.2641 21.6008 51.7083 23.5402C51.7717 23.819 52.2031 23.7049 52.1396 23.4261C51.6955 21.4867 51.2515 19.5473 50.8074 17.6079C50.7439 17.329 50.3125 17.4431 50.376 17.722Z" fill="#7E4927"/>
<path d="M49.4627 17.6601C49.653 20.0431 50.0844 22.4008 50.7316 24.6951C50.8077 24.974 51.2393 24.8599 51.1631 24.581C50.5287 22.3247 50.0971 20.0051 49.9195 17.6601C49.8941 17.3685 49.45 17.3685 49.4627 17.6601Z" fill="#7E4927"/>
<path d="M48.5364 19.6747C48.7014 21.5761 49.0059 23.4648 49.4754 25.3154C49.5388 25.5943 49.9831 25.4802 49.9069 25.2013C49.4628 23.3887 49.1455 21.538 48.9932 19.6747C48.9678 19.3832 48.5237 19.3832 48.5364 19.6747Z" fill="#7E4927"/>
<path d="M49.4503 26.2674C50.5796 25.2787 51.7217 24.29 52.8511 23.3013C53.0668 23.1112 52.7496 22.7943 52.5338 22.9844C51.4045 23.9731 50.2624 24.9618 49.1331 25.9505C48.9173 26.1407 49.2346 26.4576 49.4503 26.2674Z" fill="#7E4927"/>
<path d="M50.7445 35.5585C51.3409 35.1402 51.9246 34.7219 52.521 34.2909C52.6225 34.2149 52.6734 34.0881 52.5972 33.9867C52.5338 33.8853 52.3941 33.8346 52.2925 33.9106C51.6961 34.3289 51.1126 34.7472 50.5162 35.1782C50.4147 35.2543 50.3638 35.381 50.44 35.4824C50.5034 35.5838 50.643 35.6345 50.7445 35.5585Z" fill="#7E4927"/>
<path d="M51.1125 11.0433C51.6581 13.1094 52.2799 15.1502 52.9778 17.1783C53.0666 17.4572 53.5107 17.3304 53.4092 17.0643C52.7239 15.0488 52.1022 12.9953 51.5439 10.9292C51.4677 10.6503 51.0364 10.7644 51.1125 11.0433Z" fill="#7E4927"/>
<path d="M50.0592 11.6798C50.2622 13.4037 50.592 15.1276 51.0488 16.8008C51.1249 17.0796 51.5565 16.9655 51.4803 16.6867C51.0362 15.0515 50.7063 13.3783 50.5033 11.6798C50.4652 11.4009 50.0211 11.3882 50.0465 11.6798H50.0592Z" fill="#7E4927"/>
<path d="M49.1958 13.681C49.3988 14.6316 49.6653 15.5696 50.0079 16.4823C50.046 16.5964 50.1602 16.6724 50.2871 16.6344C50.4013 16.6091 50.4901 16.4696 50.4393 16.3555C50.0967 15.4429 49.8302 14.5049 49.6272 13.5542C49.5637 13.2753 49.1324 13.3894 49.1958 13.6683V13.681Z" fill="#7E4927"/>
<path d="M51.6198 17.7367C52.3558 17.6353 53.0664 17.3818 53.6882 17.0015C53.9293 16.8494 53.7135 16.4565 53.4597 16.6086C52.8633 16.9762 52.1909 17.2044 51.493 17.3058C51.3661 17.3184 51.3025 17.4706 51.3405 17.5846C51.3786 17.7114 51.4929 17.7621 51.6198 17.7367Z" fill="#7E4927"/>
<path d="M67.7864 40.0199C67.5961 41.3509 67.4438 42.6945 67.3296 44.0382C67.3043 44.3297 67.761 44.3297 67.7864 44.0382C67.9006 42.7326 68.0402 41.4396 68.2305 40.134C68.2432 40.0073 68.2051 39.8932 68.0783 39.8552C67.9767 39.8298 67.8118 39.8932 67.7991 40.0073L67.7864 40.0199Z" fill="#7E4927"/>
<path d="M67.076 47.3739C67.1902 48.819 67.2029 50.264 67.1141 51.7217C67.1014 52.0133 67.5455 52.0133 67.5709 51.7217C67.6597 50.2767 67.6469 48.819 67.5327 47.3739C67.5074 47.0824 67.0633 47.0824 67.076 47.3739Z" fill="#7E4927"/>
<path d="M94.2682 91.1289C95.1945 91.0655 96.1081 91.0148 97.0344 90.9514C97.7196 90.9134 98.4048 90.85 99.09 90.7486C100.397 90.5458 101.755 90.1148 102.656 89.1007C103.62 88.0233 103.836 86.5529 103.823 85.1459C103.823 84.4107 103.747 83.6755 103.709 82.9276C103.646 82.0277 103.62 81.115 103.62 80.215C103.62 78.1616 103.722 76.1208 103.836 74.0673C103.849 73.7757 103.404 73.7757 103.379 74.0673C103.278 75.8292 103.189 77.5911 103.163 79.3531C103.163 80.2277 103.163 81.0897 103.189 81.9643C103.214 82.7502 103.29 83.5361 103.328 84.3347C103.405 85.6783 103.404 87.1487 102.656 88.3275C101.945 89.443 100.702 89.9754 99.4454 90.2162C98.7094 90.3683 97.9607 90.4317 97.2121 90.4697C96.2223 90.5331 95.2326 90.5965 94.2428 90.6599C93.951 90.6725 93.951 91.1289 94.2428 91.1162L94.2682 91.1289Z" fill="white"/>
<path d="M100.194 73.8128C100.765 75.1184 102.161 76.0057 103.582 75.955C103.874 75.955 103.874 75.4987 103.582 75.4987C102.301 75.5367 101.083 74.7508 100.575 73.5719C100.524 73.4578 100.359 73.4325 100.271 73.4959C100.156 73.5592 100.144 73.6987 100.194 73.8001V73.8128Z" fill="white"/>
<path d="M95.7908 88.2024C97.009 88.5193 98.1003 89.2418 98.849 90.2559C99.0139 90.484 99.4072 90.2559 99.2422 90.0277C98.4301 88.9249 97.25 88.1137 95.9177 87.7714C95.6385 87.6954 95.5116 88.139 95.8035 88.2024H95.7908Z" fill="white"/>
<path d="M98.3922 86.0203C99.3439 86.1724 100.296 86.2104 101.247 86.1344C101.374 86.1344 101.476 86.033 101.476 85.9062C101.476 85.7922 101.374 85.6654 101.247 85.6781C100.334 85.7541 99.4073 85.7288 98.5064 85.5893C98.3922 85.564 98.2653 85.6147 98.2272 85.7414C98.2019 85.8429 98.2653 85.995 98.3795 86.0203H98.3922Z" fill="white"/>
<path d="M98.5327 84.1588C99.2813 84.0193 100.043 83.956 100.791 83.9813C101.083 83.9813 101.083 83.5376 100.791 83.525C99.992 83.4996 99.1926 83.563 98.4058 83.7151C98.2916 83.7404 98.2155 83.8799 98.2536 83.994C98.2916 84.1207 98.4058 84.1715 98.5327 84.1461V84.1588Z" fill="white"/>
<path d="M99.2302 77.2627C98.8876 77.5289 98.824 78.036 98.9636 78.4289C99.1286 78.8599 99.522 79.2022 100.004 79.1388C100.499 79.0881 100.918 78.6571 101.019 78.1754C101.121 77.681 100.867 77.1994 100.41 76.9966C99.928 76.7811 99.3189 76.8318 98.9509 77.2374C98.8621 77.3261 98.8621 77.4656 98.9509 77.5543C99.0397 77.643 99.192 77.643 99.2681 77.5543C99.2935 77.529 99.3317 77.4909 99.357 77.4656C99.3951 77.4402 99.4204 77.4275 99.4458 77.4148C99.4585 77.4148 99.4839 77.4022 99.4966 77.3895C99.5347 77.3768 99.4712 77.3895 99.522 77.3895C99.5601 77.3768 99.6108 77.3642 99.6489 77.3515C99.6616 77.3515 99.687 77.3515 99.6997 77.3515C99.7504 77.3515 99.6869 77.3515 99.7249 77.3515C99.763 77.3515 99.8139 77.3515 99.8519 77.3515C99.8773 77.3515 99.9026 77.3515 99.9153 77.3515C99.9153 77.3515 99.9788 77.3515 99.9534 77.3515C99.928 77.3515 99.9915 77.3515 100.004 77.3515C100.03 77.3515 100.055 77.3515 100.08 77.3642C100.093 77.3642 100.118 77.3641 100.131 77.3768C100.131 77.3768 100.195 77.4022 100.169 77.3895C100.144 77.3895 100.194 77.3895 100.207 77.4022C100.232 77.4022 100.245 77.4276 100.271 77.4402C100.283 77.4402 100.309 77.4656 100.321 77.4783C100.334 77.4783 100.36 77.5163 100.334 77.4783C100.372 77.5036 100.398 77.529 100.423 77.567C100.423 77.567 100.474 77.6177 100.448 77.605C100.436 77.5797 100.474 77.643 100.474 77.643C100.474 77.6557 100.499 77.681 100.499 77.6937C100.499 77.6937 100.537 77.7698 100.512 77.7317C100.524 77.7698 100.537 77.8205 100.55 77.8585C100.55 77.9092 100.55 77.9346 100.55 77.9599C100.55 77.9853 100.55 78.0106 100.55 78.036C100.55 78.074 100.55 78.0106 100.55 78.0613C100.55 78.112 100.524 78.1627 100.512 78.2134C100.512 78.2134 100.486 78.2768 100.499 78.2515C100.499 78.2768 100.486 78.2895 100.474 78.3022C100.448 78.3402 100.423 78.3909 100.397 78.4289C100.397 78.4289 100.385 78.4543 100.372 78.4543C100.359 78.4669 100.347 78.4796 100.334 78.505C100.321 78.5177 100.296 78.543 100.283 78.5557C100.258 78.5684 100.233 78.5937 100.22 78.6064C100.182 78.6317 100.156 78.6444 100.144 78.6571C100.118 78.6571 100.106 78.6824 100.08 78.6824C100.08 78.6824 100.055 78.6824 100.042 78.6951C100.029 78.6951 100.004 78.6951 99.9788 78.7078C99.9661 78.7078 99.9026 78.7205 99.9534 78.7078C99.9026 78.7078 99.8646 78.7078 99.8138 78.7078C99.7758 78.7078 99.8392 78.7078 99.7884 78.7078C99.7757 78.7078 99.7503 78.7078 99.7376 78.6951C99.7122 78.6951 99.6996 78.6825 99.6743 78.6698C99.725 78.6825 99.6742 78.6698 99.6489 78.6571C99.6362 78.6571 99.6235 78.6444 99.6108 78.6318C99.6108 78.6318 99.56 78.5937 99.5727 78.6064C99.598 78.6191 99.5601 78.5937 99.5474 78.581C99.5347 78.5684 99.5093 78.5557 99.4966 78.5303C99.4839 78.5176 99.4712 78.505 99.4585 78.4796C99.4331 78.4416 99.4078 78.4162 99.3951 78.3782C99.3951 78.3529 99.3697 78.3402 99.3697 78.3149C99.3951 78.3656 99.3697 78.3022 99.3697 78.2895C99.3571 78.2515 99.3443 78.2008 99.3316 78.1628C99.3189 78.0994 99.3316 78.1627 99.3316 78.1374C99.3316 78.112 99.3316 78.0994 99.3316 78.074C99.3316 78.0233 99.3316 77.9853 99.3316 77.9346C99.3316 77.9853 99.3316 77.9346 99.3316 77.9219C99.3316 77.9092 99.3316 77.8839 99.3443 77.8585C99.3443 77.8332 99.3571 77.8205 99.3697 77.7951C99.3824 77.7571 99.395 77.7444 99.4077 77.7191C99.4331 77.6811 99.395 77.7191 99.4204 77.6937C99.4585 77.6557 99.4839 77.6304 99.522 77.5923C99.6235 77.5163 99.5981 77.3515 99.522 77.2754C99.4332 77.1867 99.2936 77.1994 99.2048 77.2754L99.2302 77.2627Z" fill="white"/>
<path d="M16.9653 28.2714C18.2216 27.2319 18.6784 25.5207 19.6682 24.2278C19.8966 23.9362 20.1504 23.6447 20.493 23.4926C21.4827 23.0109 22.612 23.7588 23.4495 24.4813C25.2768 26.0911 26.9771 27.8404 28.5252 29.7291C28.8171 30.084 29.1216 30.515 28.982 30.9586C28.8424 31.3896 28.3349 31.5797 27.8908 31.6051C26.0001 31.7065 24.4012 29.9572 22.5105 30.0079C21.8761 30.0206 21.267 30.2488 20.6452 30.2488C20.0108 30.2488 19.3002 29.9192 19.186 29.3108L16.9907 28.284L16.9653 28.2714Z" fill="#54260C"/>
<path d="M16.7625 79.0121C15.5316 78.9741 14.4658 78.1248 13.6791 77.1741C12.8923 76.2234 12.2705 75.1206 11.3569 74.2967C10.2149 73.2573 8.70484 72.7249 7.22019 72.294C5.96396 71.9264 4.68238 71.5968 3.37539 71.6855C2.06839 71.7742 0.748666 72.3193 0 73.3841C1.43389 75.3868 4.20015 75.8051 6.66186 76.0587C5.63403 76.5657 5.45641 78.0741 6.0528 79.0501C6.6492 80.0262 7.76588 80.5712 8.85716 80.9261C10.2403 81.3698 11.7122 81.5979 13.1334 81.3064C14.5546 81.0149 15.8869 80.1276 16.4833 78.8093L16.7499 79.0121H16.7625Z" fill="#54260C"/>
<path d="M29.1984 73.7913C31.1906 73.0688 33.5381 73.7279 35.0481 75.211C36.5581 76.694 37.2306 78.9123 37.0656 81.0165C36.9007 83.1207 35.9363 85.1234 34.5659 86.7332C36.1774 86.1882 38.0301 86.4797 39.4006 87.4811C39.7051 87.7093 40.0096 88.0008 40.0857 88.3684C40.1999 88.9135 39.7938 89.4459 39.299 89.674C38.8041 89.9022 38.2205 89.9022 37.6749 89.8895C34.5025 89.8515 31.3302 89.8008 28.1579 89.7628C27.8407 89.7628 27.5233 89.7628 27.2315 89.6233C26.3559 89.2177 26.3433 88.0008 26.4828 87.0375C27.0158 83.2474 27.536 79.47 28.069 75.68L29.1984 73.7786V73.7913Z" fill="#54260C"/>
<path d="M27.2562 38.4756C29.7687 37.8418 31.4818 35.4587 32.2813 32.9996C32.7381 31.6053 32.9664 30.1476 32.9664 28.6772C32.9664 27.511 32.8268 26.3449 32.8141 25.1787C32.7761 21.9337 33.7785 18.6887 35.6565 16.0268C35.8215 15.7986 35.9865 15.5704 36.2276 15.431C37.1412 14.924 38.131 16.0648 38.296 17.0916C38.6132 19.069 37.6742 21.021 37.3443 22.9984C36.7098 26.7124 38.2198 30.4898 37.9152 34.2419C37.763 36.1306 37.1539 37.9812 36.1514 39.5784C35.3774 40.8206 34.3242 41.9361 33.0045 42.5572C31.6721 43.1783 30.0353 43.229 28.779 42.4558C27.5228 41.6952 26.8249 40.0347 27.3578 38.6657L27.2689 38.4756H27.2562Z" fill="#54260C"/>
<path d="M13.8944 29.058C14.072 28.6016 14.4272 28.2214 14.8713 28.0186C16.6224 27.1946 18.5132 26.4848 20.3659 26.9411C21.1907 27.1439 21.9521 27.5622 22.7642 27.8157C25.0102 28.5129 27.4084 27.8665 29.667 27.2327C30.7076 28.8425 30.8725 30.9847 30.0984 32.7339C29.3244 34.4832 27.6241 35.8015 25.7207 36.1057C26.444 38.8944 29.5783 40.5295 32.4588 40.3901C33.2201 40.3521 33.9941 40.2126 34.6413 39.7943C35.6564 39.1479 36.1513 37.9564 36.5447 36.8155C37.2553 34.6987 37.7375 32.5185 38.004 30.3002C38.1943 28.6143 38.2577 26.9031 38.7145 25.2679C39.1967 23.5187 40.1864 21.8074 41.8487 20.9962C42.0898 20.8821 42.3689 20.8441 42.6227 20.9328C43.1049 21.0976 43.143 21.5286 43.1303 21.9088C43.0796 23.6581 42.3563 25.306 42.0264 27.0172C41.5061 29.7171 41.9757 32.4931 42.1153 35.2311C42.2549 37.969 42.0137 40.9225 40.3388 43.1027C39.349 44.3956 36.0625 47.7927 34.6794 48.6674C34.1845 48.9716 33.6641 49.3265 33.4484 49.8589C33.2454 50.3533 33.3469 50.911 33.4484 51.4434C34.3113 56.0193 36.6208 58.2503 35.7326 62.8262C34.8443 67.4022 32.5602 71.8387 28.8295 74.6273C30.8217 75.1978 32.5222 76.6681 33.3851 78.5442C34.2479 80.4202 34.2225 82.6765 33.347 84.5398C32.2049 86.9736 29.8193 88.5326 27.5606 89.9777C29.4386 89.6354 31.38 89.6481 33.2581 90.0031C34.0321 90.1552 34.8189 90.3706 35.3772 90.9664C35.6183 91.2199 35.796 91.5495 35.8467 91.9044C35.9863 92.8171 35.3011 93.3748 34.5905 93.6537C33.1185 94.2494 31.4436 93.9579 29.8828 93.6537L19.2999 91.6382C18.8938 91.5621 18.5133 91.4227 18.1707 91.1946C16.0896 89.8383 17.6377 87.2777 17.2317 85.1862C17.0033 84.0074 16.153 83.0567 15.5566 82.0047C13.6913 78.747 14.3258 74.6527 15.4297 71.0655C16.5337 67.4782 18.0817 63.891 17.8787 60.139C17.7137 56.9447 16.2673 53.9025 16.115 50.7082C16.0262 48.7815 16.3941 46.8674 16.3306 44.9407C16.1784 40.0732 13.3106 35.5353 13.3741 30.6805C13.3741 30.4523 13.4248 30.2241 13.5136 30.0213L13.9069 29.0326L13.8944 29.058Z" fill="#7E4927"/>
<path d="M15.189 27.8916C13.1841 28.4493 11.2934 29.2859 9.44076 30.2239C9.08546 30.4014 8.71746 30.6169 8.5525 30.9591C8.1972 31.6943 8.86976 32.4802 9.45346 33.0506C11.0904 34.6351 12.5116 36.4604 13.6409 38.4378C13.7551 38.6406 13.882 38.8561 14.0723 38.9956C14.4149 39.2491 14.9353 39.173 15.2779 38.9195C15.6205 38.6533 15.8108 38.2477 15.9123 37.8294C16.4326 35.6999 14.9099 33.4943 15.2652 31.3267C15.3667 30.7183 15.6078 30.0972 15.4809 29.4887C15.3794 29.0197 15.1128 28.3859 15.5316 28.1578L15.2017 27.8789L15.189 27.8916Z" fill="#54260C"/>
<mask id="mask1_353_17996" style="mask-type:luminance" maskUnits="userSpaceOnUse" x="13" y="20" width="31" height="75">
<path d="M13.8944 29.0589C14.072 28.6026 14.4272 28.2223 14.8713 28.0195C16.6224 27.1956 18.5132 26.4858 20.3659 26.9421C21.1907 27.1449 21.9521 27.5632 22.7642 27.8167C25.0102 28.5139 27.4084 27.8674 29.667 27.2336C30.7076 28.8435 30.8725 30.9857 30.0984 32.7349C29.3244 34.4842 27.6241 35.8025 25.7207 36.1067C26.444 38.8953 29.5783 40.5305 32.4588 40.3911C33.2201 40.353 33.9941 40.2136 34.6413 39.7953C35.6564 39.1488 36.1513 37.9573 36.5447 36.8165C37.2553 34.6997 37.7375 32.5194 38.004 30.3012C38.1943 28.6153 38.2577 26.9041 38.7145 25.2689C39.1967 23.5196 40.1864 21.8084 41.8487 20.9972C42.0898 20.8831 42.3689 20.8451 42.6227 20.9338C43.1049 21.0986 43.143 21.5295 43.1303 21.9098C43.0796 23.6591 42.3563 25.3069 42.0264 27.0182C41.5061 29.7181 41.9757 32.4941 42.1153 35.232C42.2549 37.97 42.0137 40.9235 40.3388 43.1037C39.349 44.3966 36.0625 47.7937 34.6794 48.6683C34.1845 48.9726 33.6641 49.3275 33.4484 49.8599C33.2454 50.3542 33.3469 50.912 33.4484 51.4443C34.3113 56.0203 36.6208 58.2512 35.7326 62.8272C34.8443 67.4031 32.5602 71.8397 28.8295 74.6283C30.8217 75.1987 32.5222 76.6691 33.3851 78.5451C34.2479 80.4211 34.2225 82.6774 33.347 84.5408C32.2049 86.9745 29.8193 88.5336 27.5606 89.9787C29.4386 89.6364 31.38 89.6491 33.2581 90.004C34.0321 90.1561 34.8189 90.3716 35.3772 90.9674C35.6183 91.2209 35.796 91.5505 35.8467 91.9054C35.9863 92.8181 35.3011 93.3758 34.5905 93.6547C33.1185 94.2504 31.4436 93.9589 29.8828 93.6547L19.2999 91.6392C18.8938 91.5631 18.5133 91.4237 18.1707 91.1956C16.0896 89.8393 17.6377 87.2787 17.2317 85.1872C17.0033 84.0084 16.153 83.0577 15.5566 82.0056C13.6913 78.748 14.3258 74.6537 15.4297 71.0664C16.5337 67.4792 18.0817 63.892 17.8787 60.1399C17.7137 56.9456 16.2673 53.9034 16.115 50.7091C16.0262 48.7824 16.3941 46.8684 16.3306 44.9417C16.1784 40.0742 13.3106 35.5363 13.3741 30.6815C13.3741 30.4533 13.4248 30.2251 13.5136 30.0223L13.9069 29.0336L13.8944 29.0589Z" fill="white"/>
</mask>
<g mask="url(#mask1_353_17996)">
<path d="M30.3911 29.9731C29.8581 30.1886 29.1728 29.9478 28.8937 29.4407C28.8175 29.314 28.7794 29.1745 28.6779 29.0605C28.4875 28.8703 28.1957 28.8576 27.9293 28.9083C27.6628 28.9464 27.3963 29.0351 27.1425 28.9844C26.8761 28.9337 26.635 28.6802 26.7238 28.4267C26.7873 28.2365 27.003 28.1351 27.1933 28.0717C28.0562 27.7549 28.919 27.438 29.7945 27.1084C29.9468 27.0577 30.1245 26.9943 30.264 27.0704C30.3909 27.1337 30.4418 27.2732 30.4925 27.4126C30.7717 28.2492 30.8352 29.1619 30.6956 30.0238L30.4036 29.9731H30.3911Z" fill="black"/>
<path d="M15.5189 50.0244C15.3032 50.785 15.6585 51.6089 16.2042 52.1793C16.7625 52.737 17.4857 53.092 18.209 53.4342C19.0338 53.8271 19.8587 54.2201 20.6962 54.613C21.4829 54.9806 22.3077 55.3863 22.8406 56.0708C23.6147 57.0595 23.6401 58.4665 23.2214 59.6453C22.7772 60.8495 21.9017 61.9777 21.9905 63.2579C22.0667 64.3861 22.8787 65.3241 23.1198 66.4269C23.3862 67.6311 22.9041 68.9366 22.0285 69.8113C21.1656 70.6859 19.9602 71.1802 18.7293 71.3577C18.2979 71.4211 17.8537 71.4464 17.4223 71.3577C16.9274 71.2563 16.4706 70.9901 16.0519 70.7113C14.6434 69.7606 13.4634 68.493 12.6259 67.0226C12.4228 66.6677 12.2324 66.2874 12.1817 65.8691C12.004 64.5762 13.146 63.5114 13.5901 62.2819C14.1357 60.8115 13.6536 59.1763 13.1714 57.6806L15.5189 50.0498V50.0244Z" fill="#CCA692"/>
<path d="M17.8154 30.9095C17.8535 31.1884 17.9423 31.4673 18.1072 31.7081C18.323 32.0377 18.6021 32.3165 18.8813 32.5954C19.135 32.8489 19.4016 33.1151 19.7315 33.2799C20.3025 33.5588 20.9877 33.5207 21.5841 33.47C22.1678 33.4193 22.7262 33.2546 23.221 32.9503C23.5002 32.7729 23.792 32.5447 23.9316 32.2278C24.16 31.6954 23.8935 31.087 23.627 30.5673C23.3732 30.0729 23.1067 29.5659 22.6372 29.2744C22.3073 29.0716 21.9267 28.9955 21.546 28.9321C20.8354 28.8054 20.1249 28.6786 19.4143 28.78C19.4016 28.78 19.3889 28.78 19.3762 28.78C18.3737 28.9448 17.6885 29.8828 17.8154 30.8969V30.9095Z" fill="#CCA692"/>
<path d="M33.754 50.3818C32.041 51.0283 30.8863 52.9043 31.0639 54.7169C31.2289 56.3774 32.371 57.8859 32.2822 59.5591C32.2441 60.3323 31.9395 61.0675 31.7619 61.828C31.4193 63.2984 31.635 64.9716 32.6121 66.1251C33.5892 67.2786 35.4164 67.7349 36.698 66.911C37.1675 66.6068 37.5355 66.1505 37.8528 65.6815C39.2105 63.6407 39.6926 61.1308 39.6291 58.6844C39.553 56.238 38.9567 53.8423 38.2842 51.4973L33.7667 50.3691L33.754 50.3818Z" fill="#CCA692"/>
<path d="M37.5729 27.5889C37.0399 28.6029 36.7735 29.7564 36.8242 30.9099C36.8623 31.7465 37.1162 32.6719 37.8521 33.0902C38.9053 33.6986 40.4279 32.9888 41.3669 33.7493C41.5319 33.8887 41.6969 34.0789 41.9126 34.1042C42.1664 34.1296 42.3694 33.9268 42.5217 33.724C44.4124 31.2268 43.7779 27.703 44.5519 24.6735C44.8692 23.4186 45.4276 22.0369 44.8058 20.9088C44.1333 19.6665 42.3313 19.4637 41.0751 20.1102C39.8189 20.744 38.9814 21.9735 38.2073 23.1397L37.5729 27.6142V27.5889Z" fill="#CCA692"/>
<path d="M22.5108 30.6186C22.5108 31.1636 22.1048 31.6073 21.5972 31.6073C21.0896 31.6073 20.6836 31.1636 20.6836 30.6186C20.6836 30.0735 21.0896 29.6299 21.5972 29.6299C22.1048 29.6299 22.5108 30.0735 22.5108 30.6186Z" fill="black"/>
<path d="M21.7628 28.7677C21.6105 28.9325 21.3567 28.9706 21.141 29.0086C20.4177 29.11 19.707 29.2114 18.9837 29.3001C18.8695 29.3128 18.7428 29.3001 18.654 29.2241C18.4002 29.0086 18.6158 28.679 18.8442 28.5016C19.6436 27.8424 20.7095 27.5255 21.7501 27.6143L21.8769 27.6903C22.3337 27.9438 22.2577 28.6157 21.7755 28.7804L21.7628 28.7677Z" fill="black"/>
</g>
<path d="M21.4576 74.0823C24.1858 73.588 27.0535 73.8922 29.6294 74.9316C30.3654 75.2231 31.0633 75.5907 31.7486 75.9964C32.0023 76.1485 32.2181 75.7555 31.977 75.6034C29.528 74.1077 26.6347 73.3345 23.7543 73.3852C22.9422 73.3978 22.1429 73.4866 21.3434 73.626C21.0643 73.6767 21.1784 74.1077 21.4576 74.057V74.0823Z" fill="#54260C"/>
<path d="M41.6714 21.8951C41.8871 21.8698 42.0649 21.6797 42.1029 21.4642C42.141 21.2487 41.8999 21.0839 41.7222 21.2487C41.1131 21.7937 40.7705 22.5796 40.7578 23.3909C40.7578 23.6824 41.2019 23.6824 41.2146 23.3909C41.2146 22.6937 41.5192 22.0346 42.0394 21.5656C41.9125 21.4895 41.7857 21.4135 41.6589 21.3501C41.6462 21.4261 41.6207 21.4515 41.5445 21.4642C41.4303 21.4768 41.3542 21.629 41.3923 21.743C41.4303 21.8698 41.5445 21.9205 41.6714 21.8951Z" fill="#54260C"/>
<path d="M42.2813 21.6308C41.8245 22.3533 41.5706 23.1772 41.5198 24.0265C41.5071 24.318 41.9514 24.318 41.9767 24.0265C42.0275 23.2533 42.2685 22.5181 42.6746 21.8589C42.8268 21.6181 42.4335 21.3899 42.2813 21.6308Z" fill="#54260C"/>
<path d="M33.5508 48.92C31.9393 50.1495 29.871 50.6946 27.8534 50.4537C27.2823 50.3903 26.7239 50.2509 26.191 50.0608C25.9118 49.9594 25.7977 50.403 26.0768 50.4918C28.069 51.2016 30.3023 51.0748 32.2311 50.2129C32.7767 49.972 33.297 49.6552 33.7791 49.3002C34.0076 49.1228 33.7792 48.7298 33.5508 48.9073V48.92Z" fill="#54260C"/>
<path d="M29.985 30.2344C29.2871 31.0837 29.579 32.3513 28.7669 33.1372C28.4243 33.4668 27.9293 33.6822 27.4471 33.6315C27.0157 33.5808 26.6604 33.302 26.4827 32.9217C26.2924 32.5161 26.2797 32.0091 26.5969 31.6668C26.7999 31.4513 26.47 31.1344 26.2797 31.3499C25.5691 32.1231 25.9372 33.4794 26.8508 33.9231C27.9674 34.4682 29.2617 33.6569 29.6551 32.5795C29.8962 31.933 29.8454 31.1217 30.3022 30.564C30.4926 30.3485 30.1626 30.0189 29.985 30.2471V30.2344Z" fill="#54260C"/>
<path d="M16.6736 38.3865C16.4706 39.2105 16.2676 40.0597 16.4199 40.8964C16.4833 41.2259 16.5974 41.5555 16.7878 41.847C16.8766 41.9865 16.9781 42.1259 17.105 42.24C17.2192 42.3414 17.3843 42.5315 17.5492 42.5188C17.6888 42.5062 17.841 42.4174 17.9679 42.3541C18.1202 42.278 18.2724 42.202 18.412 42.1005C18.6658 41.9231 18.9069 41.7203 19.0973 41.4794C19.516 40.9977 19.8078 40.402 19.9347 39.7682C19.9981 39.464 20.0109 39.1471 19.9855 38.8429C19.9601 38.5767 19.9348 38.1204 19.6049 38.057C19.3003 38.0063 19.0338 38.3992 18.9069 38.6274C18.7546 38.8936 18.6786 39.1851 18.6532 39.4893C18.6024 40.0978 18.8434 40.7442 19.3256 41.1245C19.8078 41.5175 20.4803 41.6315 21.0767 41.4921C22.5868 41.1499 23.0309 39.2231 22.0411 38.1204C21.965 38.0316 21.8 38.0443 21.7239 38.1204C20.9118 38.9189 21.2544 40.4273 22.3457 40.7696C23.4496 41.1118 24.6424 40.2119 24.5663 39.0584C24.5282 38.4119 24.1603 37.8035 23.5766 37.4992C23.4497 37.4359 23.2848 37.4992 23.2467 37.6387C23.0564 38.3612 23.2975 39.1724 23.8812 39.6414C24.4902 40.1358 25.3404 40.1992 26.0256 39.8569C26.2794 39.7302 26.051 39.3372 25.7973 39.464C25.277 39.7302 24.6044 39.6668 24.1603 39.2865C23.7289 38.9189 23.5385 38.2978 23.6908 37.7527L23.3609 37.8922C24.1095 38.2851 24.4267 39.3879 23.7795 40.0217C23.1832 40.5921 22.1047 40.5161 21.8128 39.6795C21.6605 39.2612 21.7239 38.7668 22.0538 38.4499H21.7366C22.2569 39.0203 22.295 39.9964 21.7874 40.5921C21.2925 41.1752 20.3662 41.2639 19.7318 40.8583C19.0846 40.44 18.9322 39.5147 19.3002 38.8556C19.3383 38.7795 19.3892 38.7034 19.4399 38.6401C19.4653 38.6147 19.5033 38.5767 19.5287 38.5513C19.5287 38.5513 19.5541 38.526 19.5668 38.5133C19.4906 38.4372 19.4652 38.4372 19.4906 38.4879C19.4779 38.564 19.5287 38.6908 19.5414 38.7795C19.5414 38.8809 19.5541 38.9823 19.5541 39.0837C19.5541 39.4767 19.4779 39.8569 19.3383 40.2245C19.0084 41.0611 18.3232 41.771 17.4603 42.0498C17.5238 42.0498 17.5745 42.0625 17.638 42.0752C16.4706 41.2766 16.8258 39.6288 17.1177 38.4753C17.1938 38.1964 16.7497 38.0697 16.6863 38.3612L16.6736 38.3865Z" fill="#54260C"/>
<path d="M21.3439 46.3846C21.0647 47.0184 21.1153 47.7789 21.5341 48.3367C21.6102 48.4381 21.7244 48.4888 21.8386 48.4127C21.9401 48.362 21.9909 48.1973 21.9148 48.1085C21.7499 47.893 21.6484 47.6268 21.623 47.386C21.6103 47.2592 21.6103 47.0945 21.623 46.9931C21.6357 46.8663 21.6864 46.7142 21.7244 46.6128C21.7752 46.4987 21.7626 46.3719 21.6484 46.3086C21.5469 46.2578 21.3946 46.2832 21.3439 46.3846Z" fill="#54260C"/>
<path d="M22.8912 46.3728C22.371 46.677 22.4725 47.5516 23.0562 47.7291C23.1704 47.7671 23.3099 47.691 23.3353 47.5769C23.3607 47.4502 23.2972 47.3361 23.183 47.2981C23.1704 47.2981 23.1576 47.2981 23.1449 47.2854C23.2084 47.3108 23.183 47.2981 23.1576 47.2854C23.1323 47.2854 23.1197 47.2601 23.0943 47.2474C23.1577 47.2854 23.0943 47.2474 23.0943 47.2347C23.0562 47.184 23.107 47.2601 23.0816 47.222C23.0816 47.2094 23.0562 47.184 23.0435 47.1713C23.0562 47.2094 23.0435 47.1713 23.0435 47.1587C23.0435 47.1333 23.0308 47.1206 23.0181 47.0953C23.0054 47.0192 23.0181 47.1206 23.0181 47.0826C23.0181 47.0319 23.0181 46.9939 23.0181 46.9432C23.0181 46.9305 23.0181 47.0066 23.0181 46.9559C23.0181 46.9051 23.0308 46.8798 23.0435 46.8671C23.0181 46.9305 23.0435 46.8291 23.0435 46.8671C23.0689 46.8291 23.0689 46.8291 23.0816 46.8164C23.0435 46.8544 23.107 46.7784 23.0816 46.8164C23.0943 46.8037 23.1069 46.7784 23.1322 46.7657C23.1576 46.7404 23.0815 46.8037 23.1195 46.7657C23.1195 46.7657 23.145 46.753 23.1576 46.7404C23.2592 46.677 23.31 46.5375 23.2338 46.4361C23.1704 46.3347 23.0308 46.2967 22.9293 46.3601L22.8912 46.3728Z" fill="#54260C"/>
<path d="M24.8076 46.4098C24.5284 46.9675 24.5665 47.6774 24.9599 48.1717C25.036 48.2731 25.1502 48.3238 25.2644 48.2478C25.3532 48.1971 25.4166 48.0323 25.3404 47.9436C25.3024 47.8929 25.2644 47.8422 25.239 47.7915C25.2263 47.7661 25.2009 47.7281 25.1882 47.7027C25.1882 47.69 25.1756 47.6774 25.1629 47.6647C25.1502 47.6267 25.1629 47.69 25.1629 47.6647C25.1376 47.6013 25.1248 47.5506 25.1121 47.4872C25.1121 47.4619 25.0994 47.4238 25.0867 47.3985C25.0867 47.3858 25.0867 47.3731 25.0867 47.3478C25.0867 47.3098 25.0867 47.3985 25.0867 47.3224C25.0867 47.2591 25.0867 47.1957 25.0867 47.1323C25.0867 47.107 25.0867 47.0689 25.0867 47.0436C25.0867 47.0309 25.0867 47.0182 25.0867 46.9929C25.0994 46.9168 25.1121 46.8534 25.1375 46.7901C25.1375 46.7647 25.1629 46.7267 25.1629 46.7013C25.1629 46.7267 25.1756 46.6633 25.1629 46.7013C25.1629 46.6887 25.1755 46.6633 25.1882 46.6506C25.2389 46.5365 25.2136 46.4098 25.1121 46.3464C25.0106 46.283 24.8584 46.3211 24.8076 46.4225V46.4098Z" fill="#54260C"/>
<path d="M19.1232 50.3276C18.9836 51.1388 19.1231 51.9627 19.5418 52.6726C19.6941 52.9261 20.0747 52.6979 19.9351 52.4444C19.5798 51.8487 19.4403 51.1261 19.5545 50.4416C19.5799 50.3276 19.5165 50.2008 19.4023 50.1628C19.2881 50.1374 19.1485 50.2008 19.1232 50.3149V50.3276Z" fill="#54260C"/>
<path d="M24.4526 58.1483V60.3159C24.4526 60.6074 24.9094 60.6074 24.9094 60.3159V58.1483C24.9094 57.8568 24.4526 57.8568 24.4526 58.1483Z" fill="#54260C"/>
<path d="M25.4795 59.2505C25.3399 59.4279 25.251 59.6308 25.251 59.8589C25.251 60.0617 25.3018 60.2772 25.4286 60.442C25.4667 60.4927 25.5048 60.5307 25.5682 60.5434C25.619 60.5561 25.6951 60.5434 25.7459 60.5181C25.8347 60.4547 25.8981 60.3153 25.8219 60.2139C25.7966 60.1885 25.784 60.1505 25.7586 60.1124C25.7586 60.0871 25.7586 60.1251 25.7586 60.0998C25.7586 60.0871 25.7586 60.0617 25.7459 60.0491C25.7459 60.011 25.7332 59.973 25.7205 59.935C25.7205 59.9096 25.7205 59.9857 25.7205 59.9476C25.7205 59.8969 25.7205 59.8843 25.7205 59.8589C25.7205 59.8463 25.7205 59.8209 25.7205 59.8082C25.7205 59.7702 25.7332 59.7322 25.7459 59.6941C25.7459 59.6941 25.7713 59.6307 25.7459 59.6688C25.7713 59.6307 25.7713 59.6181 25.784 59.6054C25.822 59.5547 25.7713 59.6181 25.784 59.5927C25.822 59.542 25.8473 59.4913 25.8473 59.428C25.8473 59.3773 25.822 59.3012 25.784 59.2632C25.7078 59.1871 25.5429 59.1618 25.4667 59.2632L25.4795 59.2505Z" fill="#54260C"/>
<path d="M27.3076 59.9108C27.3964 60.4812 27.4979 61.0517 27.5867 61.6221C27.6121 61.7361 27.7517 61.8122 27.8659 61.7742C27.9928 61.7361 28.0437 61.6221 28.0183 61.4953C27.9295 60.9249 27.8278 60.3545 27.739 59.7841C27.7136 59.67 27.5741 59.5939 27.4599 59.632C27.333 59.67 27.2822 59.7841 27.3076 59.9108Z" fill="#54260C"/>
<path d="M27.5614 65.6899C27.3964 66.2603 27.3457 66.8688 27.4218 67.4646C27.4345 67.5913 27.5107 67.6927 27.6503 67.6927C27.7645 67.6927 27.8913 67.5913 27.8786 67.4646C27.8152 66.9068 27.8534 66.3491 28.0056 65.8167C28.0818 65.5378 27.6502 65.4238 27.5741 65.7026L27.5614 65.6899Z" fill="#54260C"/>
<path d="M29.1344 67.7186C28.906 68.2764 28.792 68.8848 28.8047 69.4806C28.8047 69.7721 29.2615 69.7721 29.2615 69.4806C29.2615 68.9102 29.363 68.3651 29.5787 67.8327C29.6294 67.7186 29.5279 67.5792 29.4264 67.5538C29.2995 67.5158 29.1979 67.5919 29.1471 67.706L29.1344 67.7186Z" fill="#54260C"/>
<path d="M20.9119 76.5016C20.6454 76.8818 20.6581 77.4396 20.9119 77.8199C20.9754 77.9213 21.1149 77.972 21.2165 77.8959C21.318 77.8325 21.3688 77.6931 21.2927 77.5917C21.2673 77.5537 21.2418 77.5157 21.2165 77.4776C21.1911 77.4269 21.2165 77.4776 21.2165 77.4523C21.2165 77.4269 21.2039 77.4142 21.1912 77.3889C21.1785 77.3509 21.1658 77.3002 21.1531 77.2495C21.1531 77.1988 21.1531 77.1734 21.1531 77.148C21.1531 77.1227 21.1531 77.11 21.1531 77.0847C21.1531 77.0467 21.1531 77.0086 21.1531 77.0467C21.1531 76.996 21.1658 76.9706 21.1785 76.9452C21.1785 76.9199 21.1911 76.9072 21.2038 76.8819C21.2164 76.8565 21.2038 76.8819 21.2038 76.8565C21.2291 76.8185 21.2546 76.7678 21.28 76.7298C21.3434 76.6284 21.3053 76.4762 21.2038 76.4255C21.0895 76.3621 20.9627 76.4002 20.8992 76.5016H20.9119Z" fill="#54260C"/>
<path d="M22.8154 76.6793C22.4474 77.1737 22.5109 77.9215 22.9297 78.3652C23.0058 78.4539 23.1708 78.4539 23.2469 78.3652C23.3357 78.2764 23.3357 78.137 23.2469 78.0483C23.2469 78.0483 23.2215 78.0229 23.2088 78.0103L23.1834 77.9722C23.1834 77.9722 23.1707 77.9469 23.158 77.9342C23.1453 77.9088 23.1326 77.8835 23.1199 77.8581C23.1199 77.8455 23.0819 77.7694 23.0946 77.8075C23.0693 77.7568 23.0565 77.6934 23.0438 77.6427C23.0438 77.63 23.0438 77.6173 23.0438 77.6047C23.0438 77.6047 23.0438 77.5413 23.0438 77.5793C23.0438 77.5413 23.0438 77.5286 23.0438 77.5159C23.0438 77.4652 23.0438 77.4018 23.0438 77.3511C23.0438 77.3131 23.0438 77.3258 23.0438 77.3511C23.0438 77.3384 23.0438 77.3258 23.0438 77.3131C23.0438 77.2877 23.0565 77.2497 23.0692 77.2244C23.0692 77.199 23.0819 77.1736 23.0946 77.1356C23.0946 77.1103 23.1072 77.0976 23.1199 77.0849C23.1453 77.0342 23.1834 76.9709 23.2215 76.9202C23.2976 76.8314 23.2341 76.6667 23.1453 76.6159C23.0311 76.5526 22.9169 76.5906 22.8408 76.692L22.8154 76.6793Z" fill="#54260C"/>
<path d="M29.7947 80.2932C30.0612 80.7876 30.2008 81.3326 30.2008 81.903C30.2008 82.1946 30.6576 82.1946 30.6576 81.903C30.6576 81.2692 30.4927 80.6355 30.1881 80.0651C30.1247 79.9637 29.9851 79.9256 29.8836 79.989C29.7694 80.0524 29.744 80.1918 29.8074 80.2932H29.7947Z" fill="#54260C"/>
<path d="M32.256 91.7773C33.1188 91.9294 33.8295 92.6013 34.0198 93.4505C34.0452 93.5646 34.1847 93.6407 34.2989 93.6026C34.4258 93.5646 34.4893 93.4505 34.4512 93.3238C34.2228 92.3351 33.3726 91.5111 32.3701 91.3337C32.2559 91.3083 32.1291 91.3717 32.091 91.4858C32.0656 91.5999 32.1291 91.7393 32.2433 91.7646L32.256 91.7773Z" fill="#54260C"/>
<path d="M34.108 91.6879C34.108 91.6879 34.1716 91.7005 34.1969 91.7132C34.1969 91.7132 34.2475 91.7386 34.2095 91.7132C34.1714 91.7005 34.2222 91.7132 34.2349 91.7132C34.2856 91.7386 34.3364 91.7639 34.3871 91.8019C34.3871 91.8019 34.4126 91.8146 34.4253 91.8273C34.3999 91.802 34.4633 91.8527 34.4253 91.8273C34.4506 91.8527 34.4761 91.8653 34.5015 91.8907C34.5395 91.9287 34.5903 91.9794 34.6283 92.0174C34.6156 91.9921 34.6537 92.0555 34.6283 92.0174C34.6283 92.0301 34.6537 92.0428 34.6537 92.0555C34.6664 92.0808 34.6917 92.1062 34.7044 92.1315C34.7171 92.1569 34.7298 92.1822 34.7425 92.2076C34.7425 92.2203 34.7552 92.2329 34.7679 92.2456C34.7552 92.2076 34.7679 92.271 34.7679 92.2456C34.7933 92.2963 34.806 92.3597 34.8187 92.4104C34.8187 92.4357 34.8187 92.4738 34.8314 92.4991C34.8314 92.5245 34.8314 92.5371 34.8314 92.5498C34.8314 92.6639 34.9328 92.778 35.0597 92.778C35.1739 92.778 35.2882 92.6766 35.2882 92.5498C35.2501 91.9287 34.8186 91.3836 34.2222 91.2062C34.108 91.1682 33.9684 91.2442 33.9431 91.3583C33.9177 91.4724 33.9811 91.5991 34.0953 91.6372L34.108 91.6879Z" fill="#54260C"/>
<path d="M14.4658 48.692C15.2398 48.3878 16.0265 48.0709 16.8006 47.7667C16.9148 47.716 16.9909 47.6146 16.9528 47.4879C16.9275 47.3864 16.7879 47.285 16.6737 47.3358C15.8997 47.64 15.113 47.9569 14.3389 48.2611C14.2247 48.3118 14.1486 48.4132 14.1867 48.5399C14.212 48.6414 14.3516 48.7428 14.4658 48.692Z" fill="#7E4927"/>
<path d="M15.1134 49.0339C15.7351 48.8691 16.3569 48.717 16.9786 48.5522C17.2578 48.4762 17.1436 48.0452 16.8645 48.1213C16.2427 48.286 15.621 48.4382 14.9992 48.6029C14.72 48.679 14.8342 49.11 15.1134 49.0339Z" fill="#7E4927"/>
<path d="M38.1567 45.0052C38.9054 44.5362 39.7174 44.232 40.5802 44.0672C40.6945 44.0419 40.7706 43.9024 40.7325 43.7883C40.6944 43.6616 40.5803 43.6109 40.4534 43.6362C39.5524 43.801 38.6896 44.1306 37.9155 44.6249C37.6744 44.7771 37.8902 45.17 38.144 45.0179L38.1567 45.0052Z" fill="#7E4927"/>
<path d="M37.8141 45.5619C38.512 45.2577 39.2988 45.1436 40.0602 45.207C40.187 45.207 40.2885 45.0929 40.2885 44.9788C40.2885 44.8521 40.187 44.7633 40.0602 44.7506C39.21 44.6746 38.3597 44.8267 37.5857 45.1689C37.4715 45.2196 37.4462 45.3844 37.5096 45.4732C37.573 45.5872 37.6999 45.5999 37.8141 45.5492V45.5619Z" fill="#7E4927"/>
<path d="M15.5061 81.1659C15.2523 81.7744 14.8844 82.3321 14.4276 82.8138C14.2245 83.0292 14.5418 83.3461 14.7448 83.1306C15.227 82.6236 15.6204 82.0405 15.8996 81.3941C15.9503 81.28 15.9376 81.1532 15.8234 81.0899C15.7345 81.0392 15.5569 81.0518 15.5188 81.1659H15.5061Z" fill="#7E4927"/>
<path d="M15.7602 82.143C15.5953 82.5486 15.4303 82.9669 15.2653 83.3726C15.2273 83.4866 15.3161 83.6261 15.4176 83.6514C15.5445 83.6768 15.646 83.6134 15.6967 83.4993C15.8617 83.0937 16.0267 82.6754 16.1916 82.2698C16.2297 82.1557 16.1409 82.0163 16.0394 81.9909C15.9125 81.9655 15.811 82.0289 15.7602 82.143Z" fill="#7E4927"/>
<path d="M4.89872 70.9383C6.71328 71.3312 8.31211 72.4847 9.23842 74.1072C9.378 74.3607 9.77137 74.1326 9.63179 73.8791C8.65471 72.1678 6.94164 70.9256 5.01288 70.5073C4.73371 70.4439 4.60686 70.8749 4.89872 70.9383Z" fill="#54260C"/>
<path d="M3.62904 71.0145C4.87259 71.5976 6.00192 72.3961 6.95362 73.3849C7.15665 73.5877 7.47388 73.2708 7.27085 73.068C6.29378 72.0539 5.12636 71.23 3.85744 70.6342C3.59096 70.5075 3.36256 70.9004 3.62904 71.0272V71.0145Z" fill="#54260C"/>
<path d="M15.3537 43.0628C19.6426 42.6572 23.8174 41.1742 27.3957 38.7911C27.5607 38.6897 27.7257 38.5503 27.7511 38.3601C27.7765 38.2207 27.7004 38.0813 27.6369 37.9545L26.7867 36.3193C25.6827 36.6109 24.7564 37.3461 23.8047 37.9799C21.0765 39.7671 18.0819 40.2995 14.8208 40.3249L15.3409 43.0502L15.3537 43.0628Z" fill="#F59F18"/>
<path d="M24.4399 37.7256C24.5541 37.4468 24.8333 37.2693 25.1252 37.2059C25.4424 37.1299 25.7723 37.2439 26.0515 37.4214C26.5844 37.7763 27.1047 38.6256 26.724 39.2594C26.5718 39.5129 26.2164 39.7284 25.9246 39.6016C25.8104 39.5509 25.6835 39.5636 25.6201 39.6777C25.5693 39.7664 25.5819 39.9439 25.6961 39.9819C26.1276 40.1594 26.5843 40.0453 26.9142 39.7284C27.2695 39.3862 27.3584 38.8791 27.2569 38.4101C27.0538 37.4975 26.1529 36.6228 25.1758 36.7496C24.6556 36.813 24.2115 37.1299 24.0212 37.6115C23.9831 37.7256 24.072 37.8524 24.1735 37.8904C24.3004 37.9284 24.4018 37.8524 24.4526 37.7383L24.4399 37.7256Z" fill="#C87C0D"/>
<path d="M26.5083 39.667C26.0007 40.2374 25.7976 41.0613 25.9753 41.8092C26.1656 42.6078 27.092 43.3303 27.7899 42.8866C28.196 42.6204 28.3102 42.0881 28.3229 41.6064C28.3229 41.0993 28.2213 40.5796 27.8914 40.1867C27.5615 39.7937 26.9905 39.6036 26.5337 39.8191L26.5083 39.6543V39.667Z" fill="#F9CA8C"/>
<path d="M17.6254 41.1891C17.5365 41.4933 17.6761 41.8102 17.9299 41.9877C18.171 42.1651 18.5136 42.1398 18.742 41.9623C18.8182 41.9116 18.8689 41.8482 18.9197 41.7848C18.9704 41.7215 19.0211 41.6327 19.0211 41.544C19.0211 41.4553 18.945 41.3665 18.8943 41.2905C18.8435 41.2271 18.7928 41.1637 18.742 41.1003C18.6278 40.9863 18.5008 40.8975 18.3486 40.8468C18.1963 40.7961 18.0314 40.8088 17.8918 40.8849C17.7395 40.9609 17.638 41.0877 17.5745 41.2398C17.5111 41.4046 17.5493 41.5947 17.6762 41.7215C17.7523 41.8102 17.9173 41.8102 17.9934 41.7215C18.0822 41.6327 18.0822 41.4933 17.9934 41.4046C17.968 41.3792 18.0188 41.4553 17.9934 41.4046C17.9934 41.3792 17.9934 41.3919 17.9934 41.4299C17.9934 41.4299 17.9934 41.4046 17.9934 41.3919C17.9934 41.3412 17.9807 41.4426 17.9934 41.4046C17.9934 41.3919 17.9934 41.3792 17.9934 41.3665C17.9934 41.3285 17.968 41.4172 17.9934 41.3792C17.9934 41.3665 18.0061 41.3539 18.0188 41.3412C18.0315 41.3158 18.0569 41.3158 18.0188 41.3412C18.0188 41.3412 18.044 41.3158 18.044 41.3032C18.0948 41.2525 18.0187 41.3032 18.0694 41.2778C18.1583 41.2271 18.0695 41.2778 18.0949 41.2651C18.1837 41.2398 18.0949 41.2651 18.1203 41.2651C18.1329 41.2651 18.1457 41.2651 18.1584 41.2651C18.171 41.2651 18.1583 41.2651 18.133 41.2651C18.171 41.2651 18.1963 41.2651 18.209 41.2778C18.2471 41.2778 18.2471 41.2905 18.209 41.2778C18.2344 41.2905 18.2725 41.3032 18.2979 41.3285C18.3106 41.3285 18.3614 41.3792 18.2979 41.3285C18.2979 41.3285 18.3233 41.3412 18.336 41.3539C18.3614 41.3792 18.3867 41.4046 18.4121 41.4299C18.4121 41.4299 18.4756 41.4933 18.4756 41.506C18.4502 41.4806 18.4502 41.4806 18.4756 41.506C18.501 41.544 18.5135 41.5567 18.5135 41.5694C18.5389 41.6074 18.5517 41.6327 18.5771 41.6708C18.5771 41.6074 18.5643 41.5567 18.5516 41.4933C18.5516 41.506 18.5389 41.5187 18.5262 41.5313C18.5009 41.5694 18.5009 41.5694 18.5262 41.5313C18.5262 41.5313 18.5137 41.5567 18.501 41.5567C18.501 41.5567 18.4883 41.5693 18.4756 41.582C18.4375 41.6074 18.4375 41.6074 18.4756 41.582C18.4502 41.582 18.4248 41.6201 18.3994 41.6327C18.3613 41.6454 18.374 41.6327 18.3994 41.6327C18.3867 41.6327 18.374 41.6327 18.3613 41.6454C18.3486 41.6454 18.336 41.6454 18.3233 41.6454C18.3106 41.6454 18.2725 41.6454 18.2471 41.6454C18.209 41.6454 18.2979 41.6581 18.2471 41.6454C18.2344 41.6454 18.2217 41.6454 18.209 41.6454C18.209 41.6454 18.1837 41.6327 18.1584 41.6201C18.1584 41.6201 18.133 41.6074 18.133 41.5947C18.0949 41.5694 18.171 41.6327 18.133 41.5947C18.1203 41.582 18.0948 41.544 18.0822 41.5313C18.1075 41.5567 18.1075 41.5694 18.0822 41.544C18.0568 41.506 18.0567 41.506 18.044 41.4933C18.0187 41.4299 18.044 41.468 18.044 41.4933C18.044 41.4933 18.044 41.468 18.0313 41.4553C18.0313 41.4299 18.0315 41.3919 18.0061 41.3665C18.0061 41.4046 18.0188 41.4172 18.0061 41.3665C18.0061 41.3539 18.0061 41.3285 18.0061 41.3158C18.0061 41.2778 18.0061 41.2905 18.0061 41.3158C18.0061 41.3032 18.0061 41.2778 18.0061 41.2651C18.0315 41.151 17.968 41.0116 17.8538 40.9863C17.7396 40.9609 17.6126 41.0243 17.5745 41.1384L17.6254 41.1891Z" fill="#C87C0D"/>
<path d="M20.2143 40.4254C20.1254 40.7296 20.265 41.0465 20.5188 41.224C20.7599 41.4014 21.1025 41.3761 21.3309 41.1986C21.4071 41.1479 21.4578 41.0845 21.5086 41.0212C21.5593 40.9578 21.61 40.869 21.61 40.7803C21.61 40.6916 21.5339 40.6029 21.4832 40.5268C21.4324 40.4634 21.3817 40.4 21.3309 40.3367C21.2167 40.2226 21.0898 40.1339 20.9375 40.0832C20.7852 40.0325 20.6203 40.0451 20.4807 40.1212C20.3284 40.1972 20.2269 40.324 20.1635 40.4761C20.1 40.6409 20.138 40.831 20.2649 40.9578C20.341 41.0465 20.506 41.0465 20.5821 40.9578C20.671 40.8691 20.671 40.7296 20.5821 40.6409C20.5568 40.6155 20.6075 40.6916 20.5821 40.6409C20.5821 40.6155 20.5821 40.6282 20.5821 40.6662C20.5821 40.6662 20.5821 40.6409 20.5821 40.6282C20.5821 40.5775 20.5695 40.6789 20.5821 40.6409C20.5821 40.6282 20.5821 40.6155 20.5821 40.6028C20.5821 40.5648 20.5568 40.6536 20.5821 40.6155C20.5821 40.6029 20.5949 40.5902 20.6075 40.5775C20.6202 40.5522 20.6456 40.5522 20.6075 40.5775C20.6075 40.5775 20.633 40.5522 20.633 40.5395C20.6837 40.4888 20.6076 40.5395 20.6584 40.5141C20.7472 40.4634 20.6584 40.5141 20.6838 40.5015C20.7726 40.4761 20.6838 40.5015 20.7092 40.5015C20.7218 40.5015 20.7344 40.5015 20.7471 40.5015C20.7598 40.5015 20.7472 40.5015 20.7219 40.5015C20.7599 40.5015 20.7852 40.5015 20.7979 40.5141C20.836 40.5141 20.836 40.5268 20.7979 40.5141C20.8233 40.5268 20.8613 40.5395 20.8867 40.5648C20.8994 40.5648 20.9501 40.6155 20.8867 40.5648C20.8867 40.5648 20.9121 40.5775 20.9248 40.5902C20.9502 40.6155 20.9756 40.6409 21.001 40.6662C21.001 40.6662 21.0643 40.7296 21.0643 40.7423C21.039 40.7169 21.039 40.7169 21.0643 40.7423C21.0897 40.7803 21.1024 40.793 21.1024 40.8057C21.1278 40.8437 21.1406 40.869 21.166 40.9071C21.166 40.8437 21.1532 40.793 21.1406 40.7296C21.1406 40.7423 21.1278 40.755 21.1151 40.7676C21.0898 40.8057 21.0898 40.8057 21.1151 40.7676C21.1151 40.7676 21.1024 40.793 21.0897 40.793C21.0897 40.793 21.077 40.8057 21.0643 40.8184C21.0263 40.8437 21.0263 40.8437 21.0643 40.8184C21.039 40.8184 21.0137 40.8564 20.9883 40.869C20.9502 40.8817 20.9629 40.8817 20.9883 40.869C20.9756 40.869 20.9629 40.869 20.9502 40.8817C20.9375 40.8817 20.9248 40.8817 20.9121 40.8817C20.8994 40.8817 20.8614 40.8817 20.836 40.8817C20.798 40.8817 20.8868 40.8944 20.836 40.8817C20.8233 40.8817 20.8106 40.8817 20.7979 40.8817C20.7979 40.8817 20.7725 40.8691 20.7471 40.8564C20.7471 40.8564 20.7219 40.8437 20.7219 40.831C20.6838 40.8057 20.7599 40.869 20.7219 40.831C20.7092 40.8183 20.6837 40.7803 20.6711 40.7676C20.6964 40.793 20.6964 40.8057 20.6711 40.7803C20.6457 40.7423 20.6456 40.7423 20.633 40.7296C20.6076 40.6662 20.633 40.7043 20.633 40.7296C20.633 40.7296 20.6329 40.7043 20.6202 40.6916C20.6202 40.6662 20.6202 40.6282 20.5948 40.6028C20.5948 40.6409 20.6075 40.6662 20.5948 40.6028C20.5948 40.5902 20.5948 40.5648 20.5948 40.5522C20.5948 40.5141 20.5948 40.5268 20.5948 40.5522C20.5948 40.5395 20.5948 40.5141 20.5948 40.5015C20.6202 40.3874 20.5568 40.2479 20.4426 40.2226C20.3284 40.1972 20.2015 40.2606 20.1635 40.3747L20.2143 40.4254Z" fill="#C87C0D"/>
</svg>
