<svg width="22" height="22" viewBox="0 0 22 22" fill="none" xmlns="http://www.w3.org/2000/svg">
<path d="M11.0082 21C8.10666 21 5.46364 19.4364 3.93154 16.8178C3.92236 16.8053 3.91402 16.7929 3.90735 16.7813C3.71803 16.4569 3.54288 16.1013 3.37191 15.6978C2.90402 14.5538 2.66799 13.3493 2.66799 12.1111C2.65548 12.0551 2.25098 9.16711 2.25098 7.66667C2.25098 3.376 5.82977 2.85067 6.66547 2.78667C7.11167 2.36267 8.72634 1 11.0082 1C14.6446 1 19.7655 3.06844 19.7655 7.66667C19.7655 9.13956 19.361 12.0533 19.3443 12.176C19.3485 13.3449 19.1133 14.5529 18.6479 15.7004C18.4619 16.1369 18.2584 16.536 18.0391 16.896C18.0232 16.9218 18.0049 16.9467 17.984 16.968C16.4994 19.4676 13.8739 21 11.0082 21ZM4.59959 16.2853C4.60876 16.2978 4.6171 16.3093 4.62378 16.3218C6.00075 18.6942 8.38689 20.1111 11.0082 20.1111C13.587 20.1111 15.9498 18.7324 17.3285 16.424C17.3451 16.3973 17.3635 16.3707 17.3852 16.3484C17.5353 16.0898 17.7188 15.7298 17.8848 15.3404C18.3018 14.3129 18.5145 13.2231 18.5145 12.1111C18.5228 12.0169 18.9315 9.07467 18.9315 7.66667C18.9315 3.68178 14.2985 1.88889 11.0082 1.88889C8.70549 1.88889 7.14837 3.52 7.13335 3.53689C7.05496 3.61956 6.94904 3.66578 6.83894 3.66667C6.68548 3.66756 3.085 3.72889 3.085 7.66667C3.085 9.10133 3.49367 12.016 3.49784 12.0453C3.50201 13.2258 3.71469 14.312 4.13504 15.3378C4.28266 15.6898 4.43612 16.0018 4.59959 16.2853Z" fill="#924943" stroke="#924943" stroke-width="0.5"/>
<path d="M18.7551 14.3334C18.5741 14.3334 18.4073 14.2063 18.3547 14.0116L17.3664 10.3316C11.3331 10.2783 8.88938 8.67652 7.91691 7.55741C7.28722 9.28186 5.35979 10.0339 4.67256 10.2516L3.66339 14.0107C3.6 14.2481 3.36814 14.385 3.14796 14.3156C2.92694 14.2481 2.7985 14.0019 2.86189 13.7663L3.93611 9.7663C3.97698 9.61164 4.09458 9.49252 4.24137 9.45608C4.27223 9.44808 7.28472 8.66408 7.28472 6.38586C7.28472 6.16097 7.44235 5.97164 7.65169 5.94497C7.86187 5.91208 8.05619 6.06141 8.10707 6.28008C8.11374 6.30408 9.05619 9.44452 17.6808 9.44452C17.8668 9.44452 18.0303 9.57519 18.0812 9.7663L19.1554 13.7663C19.2188 14.0027 19.0903 14.2481 18.8693 14.3156C18.8318 14.3281 18.7926 14.3334 18.7551 14.3334Z" fill="#924943" stroke="#924943" stroke-width="0.5"/>
<path d="M18.9146 14.7777C18.8179 14.7777 18.7203 14.768 18.6236 14.7591C18.3942 14.7351 18.2266 14.5173 18.2491 14.2729C18.2716 14.0293 18.4726 13.8613 18.7045 13.8737C18.7745 13.8809 18.8446 13.8889 18.9146 13.8889C19.6044 13.8889 20.1657 13.2906 20.1657 12.5555C20.1657 11.8782 19.6928 11.3084 19.0656 11.2275C18.8371 11.1991 18.6736 10.9777 18.7011 10.7333C18.7287 10.4906 18.938 10.3102 19.1649 10.3448C20.2107 10.4782 20.9997 11.4293 20.9997 12.5546C20.9997 13.7813 20.0639 14.7777 18.9146 14.7777Z" fill="#924943" stroke="#924943" stroke-width="0.5"/>
<path d="M3.08506 11.776C1.93578 11.776 1 10.7796 1 9.55377C1 8.41777 1.79816 7.46666 2.8557 7.34311C3.0909 7.32177 3.29023 7.49244 3.31609 7.736C3.34194 7.97955 3.17597 8.19911 2.94745 8.22666C2.32276 8.29955 1.83402 8.88266 1.83402 9.55377C1.83402 10.2889 2.39532 10.8871 3.08506 10.8871C3.15178 10.8871 3.21433 10.8809 3.26771 10.8693C3.49206 10.8142 3.71392 10.9751 3.75979 11.2151C3.80649 11.456 3.66054 11.6898 3.43535 11.7396C3.32693 11.7636 3.2085 11.776 3.08506 11.776Z" fill="#924943" stroke="#924943" stroke-width="0.5"/>
<path d="M7.67193 13.8896C6.9822 13.8896 6.4209 13.2913 6.4209 12.5562C6.4209 11.8211 6.9822 11.2229 7.67193 11.2229C8.36167 11.2229 8.92297 11.8211 8.92297 12.5562C8.92297 13.2913 8.36167 13.8896 7.67193 13.8896ZM7.67193 12.1118C7.44174 12.1118 7.25492 12.3118 7.25492 12.5562C7.25492 12.8007 7.44174 13.0007 7.67193 13.0007C7.90213 13.0007 8.08895 12.8007 8.08895 12.5562C8.08895 12.3118 7.90213 12.1118 7.67193 12.1118Z" fill="#924943" stroke="#924943" stroke-width="0.5"/>
<path d="M14.3448 13.8896C13.655 13.8896 13.0938 13.2913 13.0938 12.5562C13.0938 11.8211 13.655 11.2229 14.3448 11.2229C15.0345 11.2229 15.5958 11.8211 15.5958 12.5562C15.5958 13.2913 15.0345 13.8896 14.3448 13.8896ZM14.3448 12.1118C14.1146 12.1118 13.9278 12.3118 13.9278 12.5562C13.9278 12.8007 14.1146 13.0007 14.3448 13.0007C14.575 13.0007 14.7618 12.8007 14.7618 12.5562C14.7618 12.3118 14.575 12.1118 14.3448 12.1118Z" fill="#924943" stroke="#924943" stroke-width="0.5"/>
<path d="M11.0078 17.4645C10.1538 17.4645 9.29888 17.1178 8.64834 16.4245C8.48571 16.2511 8.48571 15.9693 8.64834 15.796C8.81098 15.6227 9.07536 15.6227 9.238 15.796C10.2138 16.836 11.801 16.836 12.7768 15.796C12.9394 15.6227 13.2038 15.6227 13.3664 15.796C13.5291 15.9693 13.5291 16.2511 13.3664 16.4245C12.7167 17.1187 11.8618 17.4645 11.0078 17.4645Z" fill="#924943" stroke="#924943" stroke-width="0.5"/>
</svg>
