<svg width="107" height="40" viewBox="0 0 107 40" fill="none" xmlns="http://www.w3.org/2000/svg">
<ellipse cx="20" cy="20" rx="20" ry="20" transform="matrix(-1 8.74228e-08 8.74228e-08 1 40 0)" fill="url(#paint0_radial_289_4528)" fill-opacity="0.35"/>
<path d="M30.328 30.08C28.6 30.08 27.352 29.68 26.584 28.88C25.832 28.064 25.456 26.744 25.456 24.92V16.424L20.2 29H19.408L12.976 15.944V29H11.776V13.16H14.704L20.512 24.944L25.432 13.16H28.576V24.92C28.576 26.424 28.704 27.528 28.96 28.232C29.216 28.936 29.672 29.352 30.328 29.48V30.08ZM33.0205 32.96C33.9005 32.96 34.6125 32.792 35.1565 32.456C35.7005 32.12 36.1405 31.512 36.4765 30.632L36.9805 29.336L32.6605 19.88C32.1325 18.728 31.3885 18.088 30.4285 17.96V17.48H32.5405C33.2445 17.48 33.8685 17.656 34.4125 18.008C34.9565 18.344 35.3725 18.808 35.6605 19.4L38.4205 25.448L41.3485 17.72H42.6205L37.7725 30.56C37.3245 31.808 36.8045 32.656 36.2125 33.104C35.6205 33.568 34.8765 33.8 33.9805 33.8H33.0205V32.96ZM50.9434 20.84C50.9434 20.024 50.8314 19.424 50.6074 19.04C50.3994 18.64 49.9594 18.44 49.2874 18.44H49.0474V17.72H51.4234C51.9834 17.72 52.4154 17.8 52.7194 17.96C53.0234 18.104 53.2634 18.36 53.4394 18.728C54.3834 17.896 55.4714 17.48 56.7034 17.48C58.3194 17.48 59.5594 18.032 60.4234 19.136C61.3034 20.224 61.7434 21.632 61.7434 23.36C61.7434 25.088 61.2954 26.504 60.3994 27.608C59.5194 28.696 58.2474 29.24 56.5834 29.24C55.9274 29.24 55.3114 29.12 54.7354 28.88C54.4794 28.784 54.2554 28.664 54.0634 28.52V33.56H50.9434V20.84ZM56.1034 28.16C57.7034 28.16 58.5034 26.56 58.5034 23.36C58.5034 21.888 58.3194 20.72 57.9514 19.856C57.5834 18.992 57.0074 18.56 56.2234 18.56C55.3274 18.56 54.5514 18.888 53.8954 19.544L53.9674 19.88C54.0314 20.072 54.0634 20.344 54.0634 20.696V27.44C54.2394 27.584 54.4314 27.704 54.6394 27.8C55.0874 28.04 55.5754 28.16 56.1034 28.16ZM69.2646 29.24C68.0966 29.24 67.0726 28.984 66.1926 28.472C65.3286 27.944 64.6646 27.24 64.2006 26.36C63.7366 25.464 63.5046 24.464 63.5046 23.36C63.5046 22.256 63.7366 21.264 64.2006 20.384C64.6646 19.488 65.3286 18.784 66.1926 18.272C67.0726 17.744 68.0966 17.48 69.2646 17.48C70.4326 17.48 71.4486 17.744 72.3126 18.272C73.1926 18.784 73.8646 19.488 74.3286 20.384C74.7926 21.264 75.0246 22.256 75.0246 23.36C75.0246 24.464 74.7926 25.464 74.3286 26.36C73.8646 27.24 73.1926 27.944 72.3126 28.472C71.4486 28.984 70.4326 29.24 69.2646 29.24ZM69.2646 28.16C70.0806 28.16 70.7046 27.72 71.1366 26.84C71.5686 25.96 71.7846 24.8 71.7846 23.36C71.7846 21.92 71.5686 20.76 71.1366 19.88C70.7046 19 70.0806 18.56 69.2646 18.56C68.4486 18.56 67.8246 19 67.3926 19.88C66.9606 20.76 66.7446 21.92 66.7446 23.36C66.7446 24.8 66.9606 25.96 67.3926 26.84C67.8246 27.72 68.4486 28.16 69.2646 28.16ZM81.3788 29.24C79.5068 29.24 78.2188 28.912 77.5148 28.256C77.2588 28.016 77.0988 27.68 77.0348 27.248C76.9708 26.8 76.9388 26.184 76.9388 25.4H77.7788C77.9228 26.232 78.2508 26.904 78.7628 27.416C79.2748 27.912 79.9868 28.16 80.8988 28.16C82.4988 28.16 83.2988 27.616 83.2988 26.528C83.2988 26.112 83.1228 25.768 82.7708 25.496C82.4348 25.224 81.8908 24.92 81.1388 24.584L79.8908 24.056C78.8668 23.608 78.0988 23.12 77.5868 22.592C77.0748 22.064 76.8188 21.424 76.8188 20.672C76.8188 19.664 77.2348 18.88 78.0668 18.32C78.9148 17.76 80.0188 17.48 81.3788 17.48C83.2508 17.48 84.5388 17.808 85.2428 18.464C85.4988 18.704 85.6588 19.04 85.7228 19.472C85.7868 19.904 85.8188 20.52 85.8188 21.32H84.9788C84.8348 20.488 84.5068 19.824 83.9948 19.328C83.4828 18.816 82.7708 18.56 81.8588 18.56C81.1708 18.56 80.6588 18.712 80.3228 19.016C79.9868 19.304 79.8188 19.696 79.8188 20.192C79.8188 20.592 79.9548 20.928 80.2268 21.2C80.5148 21.456 80.9468 21.712 81.5228 21.968L82.9628 22.568C84.1468 23.064 84.9948 23.568 85.5068 24.08C86.0348 24.576 86.2988 25.232 86.2988 26.048C86.2988 27.072 85.8428 27.864 84.9308 28.424C84.0348 28.968 82.8508 29.24 81.3788 29.24ZM92.5334 29.24C91.4294 29.24 90.5734 28.944 89.9654 28.352C89.3574 27.744 89.0534 26.872 89.0534 25.736V18.8H87.6134V17.72H89.0534V15.56L90.2534 14.12H92.1734V17.72H94.8134V18.8H92.1734V25.88C92.1734 26.744 92.2774 27.344 92.4854 27.68C92.6934 28 93.0054 28.16 93.4214 28.16C93.8694 28.16 94.3174 28.056 94.7654 27.848C94.9414 27.752 95.1254 27.64 95.3174 27.512L95.6534 28.184C95.4454 28.36 95.1974 28.536 94.9094 28.712C94.2374 29.064 93.4454 29.24 92.5334 29.24ZM101.09 29.24C99.2178 29.24 97.9298 28.912 97.2258 28.256C96.9698 28.016 96.8098 27.68 96.7458 27.248C96.6818 26.8 96.6498 26.184 96.6498 25.4H97.4898C97.6338 26.232 97.9618 26.904 98.4738 27.416C98.9858 27.912 99.6978 28.16 100.61 28.16C102.21 28.16 103.01 27.616 103.01 26.528C103.01 26.112 102.834 25.768 102.482 25.496C102.146 25.224 101.602 24.92 100.85 24.584L99.6018 24.056C98.5778 23.608 97.8098 23.12 97.2978 22.592C96.7858 22.064 96.5298 21.424 96.5298 20.672C96.5298 19.664 96.9458 18.88 97.7778 18.32C98.6258 17.76 99.7298 17.48 101.09 17.48C102.962 17.48 104.25 17.808 104.954 18.464C105.21 18.704 105.37 19.04 105.434 19.472C105.498 19.904 105.53 20.52 105.53 21.32H104.69C104.546 20.488 104.218 19.824 103.706 19.328C103.194 18.816 102.482 18.56 101.57 18.56C100.882 18.56 100.37 18.712 100.034 19.016C99.6978 19.304 99.5298 19.696 99.5298 20.192C99.5298 20.592 99.6658 20.928 99.9378 21.2C100.226 21.456 100.658 21.712 101.234 21.968L102.674 22.568C103.858 23.064 104.706 23.568 105.218 24.08C105.746 24.576 106.01 25.232 106.01 26.048C106.01 27.072 105.554 27.864 104.642 28.424C103.746 28.968 102.562 29.24 101.09 29.24Z" fill="#2D2D2D"/>
<defs>
<radialGradient id="paint0_radial_289_4528" cx="0" cy="0" r="1" gradientUnits="userSpaceOnUse" gradientTransform="translate(1.38619e-06 21.9231) scale(40 23.6686)">
<stop stop-color="#C4AFAD"/>
<stop offset="1" stop-color="#B28A87"/>
</radialGradient>
</defs>
</svg>
