<svg width="56" height="56" viewBox="0 0 56 56" fill="none" xmlns="http://www.w3.org/2000/svg">
<g clip-path="url(#clip0_353_5332)">
<path d="M43.737 30.5746C43.1267 29.6607 42.0663 29.139 40.7572 29.1074C39.5387 29.0831 38.2214 29.4972 37.0552 30.2634C35.8913 31.0389 34.997 32.0879 34.5424 33.2205C34.0596 34.4389 34.1236 35.6159 34.7304 36.5357C34.9881 36.9205 35.3157 37.229 35.7096 37.4669C36.2657 37.8027 36.943 37.9903 37.7159 38.0064C38.9344 38.0307 40.2482 37.6224 41.4121 36.8469C42.5783 36.0807 43.4726 35.0317 43.9215 33.8956C44.4135 32.6749 44.3437 31.4944 43.737 30.5746Z" fill="#EDDED7"/>
<path d="M33.3981 26.5924C33.5855 26.7926 33.8055 26.965 34.0373 27.1049C34.7962 27.5631 35.7613 27.719 36.8203 27.5363C38.1184 27.3241 39.4284 26.621 40.5049 25.5713C41.5813 24.5217 42.3126 23.232 42.5646 21.9375C42.8354 20.5595 42.5325 19.3331 41.7074 18.487C40.0849 16.8275 36.8943 17.2804 34.5971 19.5139C32.2695 21.7845 31.742 24.8968 33.3981 26.5924Z" fill="#EDDED7"/>
<path d="M13.2882 36.252C14.333 37.8078 16.0247 38.7898 17.9276 38.9507C19.9059 39.1175 21.6439 40.1669 22.7069 41.8365C23.2384 42.6713 23.9433 43.3499 24.7602 43.8431C25.5133 44.2979 26.3643 44.5904 27.2612 44.6892C29.1662 44.8988 31.0589 44.1602 32.3315 42.7073C34.1711 40.6164 34.3467 37.5762 32.7759 35.3075C32.0893 34.3237 31.8107 33.0962 31.994 31.863C32.2791 29.9639 32.0252 27.36 29.2677 25.695L29.2098 25.66C27.1543 24.4426 24.864 24.6091 22.5838 26.1335C21.5025 26.8639 20.2632 27.175 19.095 27.015C16.3257 26.6393 13.6868 28.208 12.6755 30.8385C11.9822 32.6413 12.2156 34.6637 13.2882 36.252Z" fill="#EDDED7"/>
<path d="M20.0421 24.4649C20.8328 23.5352 21.3505 22.2589 21.489 20.8642C21.79 17.8522 20.3069 15.3203 18.1024 15.0959C15.9002 14.8808 13.935 17.0619 13.6341 20.0739C13.4956 21.4685 13.7402 22.8178 14.3349 23.8884C14.7032 24.5614 15.1904 25.0769 15.7407 25.4092C16.1346 25.6471 16.5659 25.7968 17.0208 25.8422C18.1172 25.9509 19.1944 25.463 20.0421 24.4649Z" fill="#EDDED7"/>
<path d="M25.7162 22.0724C25.9421 22.2088 26.182 22.3221 26.4464 22.3948C28.6763 23.0614 31.234 21.1037 32.1467 18.0342C33.0594 14.9647 31.9804 11.9337 29.7447 11.2636C27.989 10.741 26.028 11.8416 24.8317 13.8228C24.5029 14.3674 24.2331 14.9713 24.0409 15.6299C23.2325 18.3434 23.984 21.0265 25.7162 22.0724Z" fill="#EDDED7"/>
</g>
<defs>
<clipPath id="clip0_353_5332">
<rect width="40.6037" height="40.6037" fill="white" transform="translate(20.9883) rotate(31.1245)"/>
</clipPath>
</defs>
</svg>
